<?xml version="1.0" encoding="utf-8"?>
<!-- Generator: Adobe Illustrator 16.0.0, SVG Export Plug-In . SVG Version: 6.00 Build 0)  -->
<!DOCTYPE svg PUBLIC "-//W3C//DTD SVG 1.1//EN" "http://www.w3.org/Graphics/SVG/1.1/DTD/svg11.dtd">
<svg version="1.1" id="Layer_1" xmlns="http://www.w3.org/2000/svg" xmlns:xlink="http://www.w3.org/1999/xlink" x="0px" y="0px"
	 width="1261.721px" height="362px" viewBox="0 0 1261.721 362" enable-background="new 0 0 1261.721 362" xml:space="preserve">
<rect x="0" y="0.105" fill="#A4E6F6" width="1261.721" height="340.509"/>
<g>
	<g>
		<rect x="50.382" y="33.683" fill="#6FD2EE" width="156.995" height="190.916"/>
		<rect x="62.722" y="164.173" fill="#5EC9EA" width="131.495" height="56.075"/>
		<rect x="62.722" y="106.334" fill="#5EC9EA" width="131.495" height="49.727"/>
		<rect x="62.722" y="36.504" fill="#5EC9EA" width="131.495" height="61.013"/>
		<g>
			<rect x="69.655" y="190.271" fill="#51C1E7" width="31.023" height="27.744"/>
			<rect x="68.244" y="188.39" fill="#5BC7E9" width="31.023" height="27.744"/>
			<g>
				<path fill="#75D5EF" d="M90.336,191.094c-0.584,0-1.058-0.474-1.058-1.058v-8.111c0-3.372-2.741-6.114-6.11-6.114
					s-6.111,2.742-6.111,6.114v8.111c0,0.584-0.474,1.058-1.058,1.058s-1.058-0.474-1.058-1.058v-8.111
					c0-4.539,3.69-8.23,8.227-8.23c4.535,0,8.226,3.691,8.226,8.23v8.111C91.394,190.62,90.921,191.094,90.336,191.094z"/>
			</g>
		</g>
		<g>
			<polygon fill="#51C1E7" points="191.396,202.732 179.41,179.925 137.576,179.925 126.296,202.732 126.296,218.485 
				191.396,218.485 			"/>
			<g>
				<rect x="164.857" y="172.713" fill="#96E1F4" width="9.103" height="8.635"/>
				<polygon fill="#6ACFED" points="190.457,200.616 178.47,177.81 136.636,177.81 125.355,200.616 125.355,216.369 
					190.457,216.369 				"/>
			</g>
		</g>
		<g>
			<rect x="142.747" y="120.617" fill="#7DD8F0" width="43.538" height="35.444"/>
			<rect x="138.693" y="114.975" fill="#75D5EF" width="50.236" height="6.524"/>
			<rect x="156.496" y="125.026" fill="#95E1F4" width="14.982" height="5.29"/>
		</g>
		<g>
			<rect x="69.655" y="141.837" fill="#56C4E8" width="59.931" height="14.107"/>
			<rect x="68.715" y="127.495" fill="#4FC0E6" width="61.81" height="15.518"/>
			<rect x="69.655" y="127.965" fill="#7AD7EF" width="59.931" height="10.815"/>
			<rect x="68.244" y="123.262" fill="#69CFEC" width="62.751" height="5.643"/>
			<rect x="68.244" y="115.68" fill="#5FC9EA" width="62.751" height="8.112"/>
		</g>
		<g>
			<g>
				<path fill="#4FC1E6" d="M141.401,82.779c-1.195-3.881-1.827-8.266-1.827-12.682c0-15.12,7.314-27.42,16.305-27.42
					s16.305,12.301,16.305,27.42c0,4.219-0.548,8.262-1.63,12.019l-2.033-0.585c1.027-3.566,1.547-7.413,1.547-11.433
					c0-13.953-6.366-25.304-14.19-25.304c-7.825,0-14.189,11.351-14.189,25.304c0,4.208,0.599,8.378,1.733,12.06L141.401,82.779z"/>
			</g>
			<path fill="#58C5E8" d="M175.356,95.577c0,1.169-0.946,2.116-2.115,2.116H138.34c-1.168,0-2.115-0.947-2.115-2.116V73.535
				c0-1.168,0.947-2.116,2.115-2.116h34.901c1.168,0,2.115,0.948,2.115,2.116V95.577z"/>
			<path fill="#7CD8F0" d="M173.241,71.419H138.34c-1.168,0-2.115,0.948-2.115,2.116v2.821l17.806,11.729
				c0.825,0.826,2.166,0.826,2.991,0l18.073-11.906c0.054-0.053,0.143-0.132,0.261-0.23v-2.415
				C175.356,72.367,174.409,71.419,173.241,71.419z"/>
			<path fill="#57C5E8" d="M159.844,82.705c0,0.39-0.316,0.706-0.705,0.706h-6.874c-0.389,0-0.706-0.316-0.706-0.706v-2.469
				c0-0.389,0.316-0.705,0.706-0.705h6.874c0.389,0,0.705,0.316,0.705,0.705V82.705z"/>
		</g>
		<g>
			<g>
				<path fill="#4FC1E6" d="M116.131,95.225H94.626c-1.75,0-3.172-1.424-3.172-3.174V66.481c0-1.75,1.423-3.174,3.172-3.174h21.505
					c1.749,0,3.172,1.424,3.172,3.174v25.569C119.303,93.801,117.88,95.225,116.131,95.225z M94.626,65.424
					c-0.583,0-1.058,0.475-1.058,1.058v25.569c0,0.583,0.475,1.058,1.058,1.058h21.505c0.583,0,1.058-0.474,1.058-1.058V66.481
					c0-0.583-0.475-1.058-1.058-1.058H94.626z"/>
			</g>
			<path fill="#8CDEF2" d="M127.764,94.343c0,1.948-1.579,3.527-3.525,3.527H86.87c-1.946,0-3.525-1.579-3.525-3.527V74.77
				c0-1.947,1.58-3.527,3.525-3.527h37.369c1.947,0,3.525,1.58,3.525,3.527V94.343z"/>
			<path fill="#68CFEC" d="M92.511,71.243v20.808c0,1.169,0.946,2.116,2.115,2.116h21.505c1.168,0,2.115-0.947,2.115-2.116V71.243
				H92.511z"/>
			<path fill="#59C6E8" d="M107.317,96.106c0,0.779-0.632,1.411-1.41,1.411h-1.586c-0.779,0-1.41-0.632-1.41-1.411v-5.29
				c0-0.779,0.631-1.411,1.41-1.411h1.586c0.778,0,1.41,0.632,1.41,1.411V96.106z"/>
		</g>
		<rect x="50.382" y="33.683" fill="#63CCEB" width="156.995" height="7.758"/>
		<rect x="62.722" y="36.504" fill="#56C4E8" width="131.495" height="4.937"/>
		<rect x="62.722" y="106.202" fill="#56C4E8" width="131.495" height="3.086"/>
		<rect x="62.722" y="164.394" fill="#56C4E8" width="131.495" height="3.086"/>
		<rect x="40.512" y="19.929" fill="#6BD0ED" width="174.857" height="15.165"/>
	</g>
	<rect x="36.338" y="229.444" fill="#60CAEA" width="184.728" height="110.389"/>
	<rect x="36.338" y="229.444" fill="#56C4E8" width="184.728" height="10.908"/>
	<g>
		<rect x="50.086" y="286.227" fill="#56C4E8" width="75.089" height="45.848"/>
		<rect x="68.417" y="295.748" fill="#48BDE5" width="39.014" height="5.644"/>
		<rect x="68.417" y="294.338" fill="#ABE9F7" width="39.014" height="5.643"/>
	</g>
	<g>
		<rect x="131.169" y="286.227" fill="#56C4E8" width="75.09" height="45.848"/>
		<rect x="149.5" y="295.748" fill="#48BDE5" width="39.014" height="5.644"/>
		<rect x="149.5" y="294.338" fill="#ABE9F7" width="39.014" height="5.643"/>
	</g>
	<g>
		<rect x="50.086" y="237.204" fill="#94E0F4" width="75.089" height="45.848"/>
		<rect x="68.417" y="246.727" fill="#48BDE5" width="39.014" height="5.643"/>
		<rect x="68.417" y="245.315" fill="#C1EFF7" width="39.014" height="5.644"/>
	</g>
	<g>
		<rect x="131.169" y="237.204" fill="#94E0F4" width="75.09" height="45.848"/>
		<rect x="149.5" y="246.727" fill="#48BDE5" width="39.014" height="5.643"/>
		<rect x="149.5" y="245.315" fill="#C1EFF7" width="39.014" height="5.644"/>
	</g>
	<rect x="26.819" y="220.979" fill="#7DD8F0" width="202.354" height="9.17"/>
	<rect x="50.086" y="237.204" fill="#5ED0EF" width="75.089" height="3.148"/>
	<rect x="131.169" y="237.204" fill="#5ED0EF" width="75.09" height="3.148"/>
</g>
<g>
	<g>
		<rect x="671.326" y="33.683" fill="#6FD2EE" width="156.994" height="190.916"/>
		<rect x="683.665" y="164.173" fill="#5EC9EA" width="131.495" height="56.075"/>
		<rect x="683.665" y="106.334" fill="#5EC9EA" width="131.495" height="49.727"/>
		<rect x="683.665" y="36.504" fill="#5EC9EA" width="131.495" height="61.013"/>
		<g>
			<rect x="690.598" y="190.271" fill="#51C1E7" width="31.023" height="27.744"/>
			<rect x="689.188" y="188.39" fill="#5BC7E9" width="31.023" height="27.744"/>
			<g>
				<path fill="#75D5EF" d="M711.279,191.094c-0.584,0-1.057-0.474-1.057-1.058v-8.111c0-3.372-2.742-6.114-6.11-6.114
					c-3.37,0-6.111,2.742-6.111,6.114v8.111c0,0.584-0.473,1.058-1.058,1.058c-0.584,0-1.058-0.474-1.058-1.058v-8.111
					c0-4.539,3.689-8.23,8.227-8.23c4.536,0,8.225,3.691,8.225,8.23v8.111C712.337,190.62,711.864,191.094,711.279,191.094z"/>
			</g>
		</g>
		<g>
			<polygon fill="#51C1E7" points="812.34,202.732 800.353,179.925 758.519,179.925 747.239,202.732 747.239,218.485 
				812.34,218.485 			"/>
			<g>
				<rect x="785.8" y="172.713" fill="#96E1F4" width="9.103" height="8.635"/>
				<polygon fill="#6ACFED" points="811.399,200.616 799.414,177.81 757.58,177.81 746.299,200.616 746.299,216.369 
					811.399,216.369 				"/>
			</g>
		</g>
		<g>
			<rect x="763.69" y="120.617" fill="#7DD8F0" width="43.538" height="35.444"/>
			<rect x="759.636" y="114.975" fill="#75D5EF" width="50.235" height="6.524"/>
			<rect x="777.438" y="125.026" fill="#95E1F4" width="14.983" height="5.29"/>
		</g>
		<g>
			<rect x="690.598" y="141.837" fill="#56C4E8" width="59.931" height="14.107"/>
			<rect x="689.658" y="127.495" fill="#4FC0E6" width="61.811" height="15.518"/>
			<rect x="690.598" y="127.965" fill="#7AD7EF" width="59.931" height="10.815"/>
			<rect x="689.188" y="123.262" fill="#69CFEC" width="62.751" height="5.643"/>
			<rect x="689.188" y="115.68" fill="#5FC9EA" width="62.751" height="8.112"/>
		</g>
		<g>
			<g>
				<path fill="#4FC1E6" d="M762.344,82.779c-1.193-3.881-1.826-8.266-1.826-12.682c0-15.12,7.314-27.42,16.305-27.42
					s16.305,12.301,16.305,27.42c0,4.219-0.548,8.262-1.63,12.019l-2.033-0.585c1.026-3.566,1.546-7.413,1.546-11.433
					c0-13.953-6.364-25.304-14.188-25.304c-7.826,0-14.19,11.351-14.19,25.304c0,4.208,0.599,8.378,1.733,12.06L762.344,82.779z"/>
			</g>
			<path fill="#58C5E8" d="M796.3,95.577c0,1.169-0.948,2.116-2.116,2.116h-34.9c-1.168,0-2.115-0.947-2.115-2.116V73.535
				c0-1.168,0.947-2.116,2.115-2.116h34.9c1.168,0,2.116,0.948,2.116,2.116V95.577z"/>
			<path fill="#7CD8F0" d="M794.183,71.419h-34.9c-1.168,0-2.115,0.948-2.115,2.116v2.821l17.806,11.729
				c0.826,0.826,2.164,0.826,2.991,0l18.073-11.906c0.054-0.053,0.143-0.132,0.262-0.23v-2.415
				C796.3,72.367,795.351,71.419,794.183,71.419z"/>
			<path fill="#57C5E8" d="M780.788,82.705c0,0.39-0.315,0.706-0.705,0.706h-6.874c-0.391,0-0.705-0.316-0.705-0.706v-2.469
				c0-0.389,0.314-0.705,0.705-0.705h6.874c0.39,0,0.705,0.316,0.705,0.705V82.705z"/>
		</g>
		<g>
			<g>
				<path fill="#4FC1E6" d="M737.074,95.225h-21.505c-1.749,0-3.173-1.424-3.173-3.174V66.481c0-1.75,1.424-3.174,3.173-3.174
					h21.505c1.749,0,3.173,1.424,3.173,3.174v25.569C740.247,93.801,738.823,95.225,737.074,95.225z M715.569,65.424
					c-0.583,0-1.058,0.475-1.058,1.058v25.569c0,0.583,0.475,1.058,1.058,1.058h21.505c0.582,0,1.058-0.474,1.058-1.058V66.481
					c0-0.583-0.476-1.058-1.058-1.058H715.569z"/>
			</g>
			<path fill="#8CDEF2" d="M748.707,94.343c0,1.948-1.577,3.527-3.525,3.527h-37.368c-1.948,0-3.525-1.579-3.525-3.527V74.77
				c0-1.947,1.577-3.527,3.525-3.527h37.368c1.948,0,3.525,1.58,3.525,3.527V94.343z"/>
			<path fill="#68CFEC" d="M713.454,71.243v20.808c0,1.169,0.947,2.116,2.115,2.116h21.505c1.167,0,2.115-0.947,2.115-2.116V71.243
				H713.454z"/>
			<path fill="#59C6E8" d="M728.26,96.106c0,0.779-0.633,1.411-1.41,1.411h-1.586c-0.779,0-1.41-0.632-1.41-1.411v-5.29
				c0-0.779,0.631-1.411,1.41-1.411h1.586c0.777,0,1.41,0.632,1.41,1.411V96.106z"/>
		</g>
		<rect x="671.326" y="33.683" fill="#63CCEB" width="156.994" height="7.758"/>
		<rect x="683.665" y="36.504" fill="#56C4E8" width="131.495" height="4.937"/>
		<rect x="683.665" y="105.497" fill="#56C4E8" width="131.495" height="3.086"/>
		<rect x="683.665" y="164.041" fill="#56C4E8" width="131.495" height="3.086"/>
		<rect x="661.456" y="19.929" fill="#6BD0ED" width="174.856" height="15.165"/>
	</g>
	<rect x="657.28" y="229.444" fill="#60CAEA" width="184.728" height="110.389"/>
	<rect x="657.28" y="229.444" fill="#56C4E8" width="184.728" height="10.908"/>
	<g>
		<rect x="671.029" y="286.227" fill="#56C4E8" width="75.089" height="45.848"/>
		<rect x="689.36" y="295.748" fill="#48BDE5" width="39.014" height="5.644"/>
		<rect x="689.36" y="294.338" fill="#ABE9F7" width="39.014" height="5.643"/>
	</g>
	<g>
		<rect x="752.111" y="286.227" fill="#56C4E8" width="75.09" height="45.848"/>
		<rect x="770.443" y="295.748" fill="#48BDE5" width="39.013" height="5.644"/>
		<rect x="770.443" y="294.338" fill="#ABE9F7" width="39.013" height="5.643"/>
	</g>
	<g>
		<rect x="671.029" y="237.204" fill="#94E0F4" width="75.089" height="45.848"/>
		<rect x="689.36" y="246.727" fill="#48BDE5" width="39.014" height="5.643"/>
		<rect x="689.36" y="245.315" fill="#C1EFF7" width="39.014" height="5.644"/>
	</g>
	<g>
		<rect x="752.111" y="237.204" fill="#94E0F4" width="75.09" height="45.848"/>
		<rect x="770.443" y="246.727" fill="#48BDE5" width="39.013" height="5.643"/>
		<rect x="770.443" y="245.315" fill="#C1EFF7" width="39.013" height="5.644"/>
	</g>
	<rect x="647.762" y="220.979" fill="#7DD8F0" width="202.353" height="9.17"/>
	<rect x="671.029" y="237.204" fill="#5ED0EF" width="75.089" height="3.148"/>
	<rect x="752.111" y="237.204" fill="#5ED0EF" width="75.09" height="3.148"/>
</g>
<g>
	<rect x="279.27" y="32.272" fill="#6FD2EE" width="310.229" height="308.004"/>
	<rect x="279.27" y="36.505" fill="#63CCEB" width="310.229" height="5.172"/>
	<rect x="291.49" y="98.576" fill="#5EC9EA" width="285.787" height="192.327"/>
	<rect x="291.49" y="36.505" fill="#5EC9EA" width="285.787" height="52.666"/>
	<rect x="291.49" y="36.505" fill="#56C4E8" width="285.787" height="5.172"/>
	<rect x="291.49" y="98.061" fill="#56C4E8" width="285.787" height="2.91"/>
	<rect x="291.49" y="298.427" fill="#5EC9EA" width="285.787" height="30.095"/>
	<rect x="291.49" y="298.529" fill="#56C4E8" width="285.787" height="3.556"/>
	<path fill="#8BDDF2" d="M563.999,125.467c-1.493,0-2.792,0.818-3.482,2.028H306.435c-0.69-1.21-1.991-2.028-3.483-2.028
		c-2.214,0-4.011,1.796-4.011,4.012c0,2.216,1.796,4.012,4.011,4.012c1.529,0,2.858-0.857,3.535-2.117h253.978
		c0.677,1.26,2.006,2.117,3.535,2.117c2.216,0,4.01-1.796,4.01-4.012C568.009,127.263,566.213,125.467,563.999,125.467z"/>
	<path fill="#9FE4F5" d="M490.143,143.277c0,0.828-0.671,1.499-1.498,1.499l0,0c-0.829,0-1.499-0.67-1.499-1.499v-17.986
		c0-0.828,0.67-1.499,1.499-1.499l0,0c0.827,0,1.498,0.671,1.498,1.499V143.277z"/>
	<path fill="#9FE4F5" d="M502.13,143.277c0,0.828-0.514,1.499-1.146,1.499l0,0c-0.631,0-1.146-0.67-1.146-1.499v-17.986
		c0-0.828,0.514-1.499,1.146-1.499l0,0c0.632,0,1.146,0.671,1.146,1.499V143.277z"/>
	<path fill="#9FE4F5" d="M511.648,143.277c0,0.828-0.514,1.499-1.146,1.499l0,0c-0.632,0-1.146-0.67-1.146-1.499v-17.986
		c0-0.828,0.514-1.499,1.146-1.499l0,0c0.632,0,1.146,0.671,1.146,1.499V143.277z"/>
	<path fill="#9FE4F5" d="M526.983,143.277c0,0.828-0.514,1.499-1.146,1.499l0,0c-0.632,0-1.146-0.67-1.146-1.499v-17.986
		c0-0.828,0.514-1.499,1.146-1.499l0,0c0.632,0,1.146,0.671,1.146,1.499V143.277z"/>
	<path fill="#9FE4F5" d="M540.379,143.277c0,0.828-0.513,1.499-1.146,1.499l0,0c-0.632,0-1.146-0.67-1.146-1.499v-17.986
		c0-0.828,0.513-1.499,1.146-1.499l0,0c0.632,0,1.146,0.671,1.146,1.499V143.277z"/>
	<path fill="#9FE4F5" d="M552.894,143.277c0,0.828-0.514,1.499-1.146,1.499l0,0c-0.632,0-1.146-0.67-1.146-1.499v-17.986
		c0-0.828,0.514-1.499,1.146-1.499l0,0c0.631,0,1.146,0.671,1.146,1.499V143.277z"/>
	<g>
		<path fill="#A7E7F6" d="M435.207,140.896h-2.116v-5.982l0.636-0.278c1.294-0.565,4.652-2.537,4.652-4.85
			c0-2.908-2.101-4.232-4.054-4.232c-2.038,0-3.525,1.276-3.525,1.939h-2.115c0-2.122,2.688-4.056,5.641-4.056
			c2.99,0,6.169,2.225,6.169,6.348c0,3.391-3.751,5.685-5.288,6.481V140.896z"/>
	</g>
	<g>
		<path fill="#A7E7F6" d="M409.912,145.151l-0.882-1.923c0.311-0.143,7.822-3.506,25.942-3.506c18.119,0,23.939,2.572,24.179,2.683
			l-0.881,1.924c-0.051-0.023-5.784-2.49-23.297-2.49C417.399,141.837,409.984,145.117,409.912,145.151z"/>
	</g>
	<path fill="#68CEEC" d="M410.999,141.954c0,0,19.037,10.933,22.739,10.933c3.701,0,25.911-11.814,25.911-11.814
		s3.702,0.881,4.935,6.348c1.234,5.466,13.749,68.596,13.749,68.596l-10.047-0.529l-12.515-52.725c0,0-2.644,22.923-2.468,29.272
		s6.698,13.754,5.993,29.448c-0.705,15.695-6.169,51.315-6.169,51.315s-5.112,2.469-15.159,2.469c-10.047,0-13.749-3.35-13.749-3.35
		s-9.166-38.796-10.928-50.435c-1.763-11.638,1.057-21.865,0.352-29.801s-1.763-24.511-1.763-24.511l-3.349,47.083l-9.518-2.469
		c0,0,3.878-56.076,5.288-62.071C405.711,143.718,410.999,141.954,410.999,141.954z"/>
	<g>
		<path fill="#A7E7F6" d="M421.693,140.896h-2.115v-5.982l0.635-0.278c1.294-0.565,4.653-2.537,4.653-4.85
			c0-2.908-2.101-4.232-4.054-4.232c-2.038,0-3.525,1.276-3.525,1.939h-2.115c0-2.122,2.688-4.056,5.641-4.056
			c2.99,0,6.169,2.225,6.169,6.348c0,3.391-3.751,5.685-5.288,6.481V140.896z"/>
	</g>
	<g>
		<path fill="#A7E7F6" d="M396.397,145.151l-0.882-1.923c0.311-0.143,7.823-3.506,25.942-3.506c18.118,0,23.938,2.572,24.178,2.683
			l-0.881,1.924c-0.051-0.023-5.784-2.49-23.297-2.49C403.885,141.837,396.47,145.117,396.397,145.151z"/>
	</g>
	<path fill="#74D5EF" d="M396.546,142.483c0,0,19.037,10.933,22.738,10.933s25.911-11.814,25.911-11.814s3.702,0.882,4.936,6.348
		s13.749,68.595,13.749,68.595l-10.047-0.528l-12.515-52.726c0,0-2.644,22.924-2.468,29.272c0.176,6.348,6.698,13.754,5.993,29.448
		c-0.706,15.695-6.169,51.315-6.169,51.315s-5.112,2.469-15.159,2.469s-13.749-3.351-13.749-3.351s-9.167-38.795-10.929-50.434
		c-1.763-11.639,1.058-21.866,0.353-29.801c-0.705-7.936-1.763-24.511-1.763-24.511l-3.349,47.083l-9.519-2.469
		c0,0,3.878-56.076,5.288-62.071S396.546,142.483,396.546,142.483z"/>
	<g>
		<path fill="#A7E7F6" d="M343.313,143.012h-2.115v-8.099l0.635-0.278c1.294-0.565,4.653-2.537,4.653-4.85
			c0-2.908-2.101-4.232-4.054-4.232c-2.038,0-3.525,1.276-3.525,1.939h-2.115c0-2.122,2.688-4.056,5.641-4.056
			c2.99,0,6.169,2.225,6.169,6.348c0,3.391-3.751,5.685-5.288,6.481V143.012z"/>
	</g>
	<g>
		<path fill="#A7E7F6" d="M358.296,143.012h-2.115v-8.099l0.635-0.278c1.293-0.565,4.652-2.537,4.652-4.85
			c0-2.908-2.101-4.232-4.054-4.232c-2.037,0-3.525,1.276-3.525,1.939h-2.115c0-2.122,2.688-4.056,5.64-4.056
			c2.991,0,6.169,2.225,6.169,6.348c0,3.391-3.751,5.685-5.288,6.481V143.012z"/>
	</g>
	<g>
		<path fill="#A7E7F6" d="M372.573,143.012h-2.115v-8.099l0.635-0.278c1.294-0.565,4.653-2.537,4.653-4.85
			c0-2.908-2.101-4.232-4.055-4.232c-2.037,0-3.525,1.276-3.525,1.939h-2.115c0-2.122,2.688-4.056,5.64-4.056
			c2.991,0,6.169,2.225,6.169,6.348c0,3.391-3.751,5.685-5.288,6.481V143.012z"/>
	</g>
	<path fill="#5FC9EA" d="M362.937,148.89l0.234-8.229c0,0,3.056,1.881,8.932,1.881s10.341-1.881,10.341-1.881l0.705,8.229
		c0,0,21.857,9.169,23.973,10.345c2.115,1.176,1.645,7.523,1.88,11.521c0.235,3.997,1.175,20.927,1.41,23.982
		c0.235,3.057,6.58,39.5,6.58,39.5h-10.105c0,0-7.756-35.503-8.461-39.03c-0.705-3.526-2.115-21.16-2.115-21.16
		s-1.645,19.044-1.88,23.276s4.701,32.446,4.701,32.446l-54.761-1.411c0,0,7.286-27.508,7.521-32.445
		c0.235-4.938,0.47-21.631,0.47-21.631s-4.7,21.396-4.936,23.747c-0.236,2.352-9.871,35.738-9.871,35.738h-12.221
		c0,0,10.341-35.738,11.046-38.795c0.705-3.057,5.406-29.625,6.345-32.681c0.94-3.056,3.291-5.172,7.756-7.524
		c4.465-2.352,4.465-2.351,4.465-2.351L362.937,148.89z"/>
	<path fill="#6BD0ED" d="M345.545,148.419l0.235-8.229c0,0,3.055,1.881,8.931,1.881s10.341-1.881,10.341-1.881l0.705,8.229
		c0,0,21.857,9.169,23.972,10.345c2.115,1.176,1.645,7.523,1.88,11.521c0.236,3.997,1.175,20.926,1.41,23.982
		c0.235,3.057,6.581,39.499,6.581,39.499h-10.106c0,0-7.755-35.502-8.461-39.028c-0.705-3.527-2.115-21.161-2.115-21.161
		s-1.645,19.045-1.881,23.276c-0.235,4.232,4.701,32.446,4.701,32.446l-54.761-1.41c0,0,7.286-27.509,7.521-32.446
		s0.47-21.631,0.47-21.631s-4.7,21.396-4.936,23.748c-0.235,2.351-9.871,35.737-9.871,35.737h-12.221
		c0,0,10.341-35.738,11.046-38.795c0.705-3.056,5.406-29.625,6.346-32.681c0.94-3.057,3.291-5.172,7.756-7.524
		c4.465-2.352,4.465-2.351,4.465-2.351L345.545,148.419z"/>
	<g>
		<path fill="#78D7EF" d="M357.767,59.781c0,1.169-0.947,2.116-2.115,2.116h-54.525c-1.168,0-2.115-0.947-2.115-2.116v-1.881
			c0-1.168,0.947-2.116,2.115-2.116h54.525c1.168,0,2.115,0.947,2.115,2.116V59.781z"/>
		<path fill="#95E1F4" d="M357.767,66.274c0,1.349-0.947,2.441-2.115,2.441h-54.525c-1.168,0-2.115-1.093-2.115-2.441v-2.17
			c0-1.349,0.947-2.441,2.115-2.441h54.525c1.168,0,2.115,1.094,2.115,2.441V66.274z"/>
		<path fill="#5BC7E9" d="M357.767,72.857c0,1.349-0.947,2.441-2.115,2.441h-54.525c-1.168,0-2.115-1.093-2.115-2.441v-2.17
			c0-1.349,0.947-2.441,2.115-2.441h54.525c1.168,0,2.115,1.094,2.115,2.441V72.857z"/>
		<path fill="#74D5EF" d="M357.767,80.146c0,1.349-0.947,2.441-2.115,2.441h-54.525c-1.168,0-2.115-1.093-2.115-2.441v-2.17
			c0-1.348,0.947-2.441,2.115-2.441h54.525c1.168,0,2.115,1.093,2.115,2.441V80.146z"/>
		<path fill="#5CC8E9" d="M357.767,86.729c0,1.349-0.947,2.441-2.115,2.441h-54.525c-1.168,0-2.115-1.093-2.115-2.441v-2.171
			c0-1.348,0.947-2.441,2.115-2.441h54.525c1.168,0,2.115,1.093,2.115,2.441V86.729z"/>
	</g>
	<g>
		<path fill="#90E0F3" d="M424.748,65.071c0,2.143-1.736,3.879-3.878,3.879h-44.89c-2.142,0-3.877-1.736-3.877-3.879l0,0
			c0-2.143,1.736-3.879,3.877-3.879h44.89C423.011,61.191,424.748,62.929,424.748,65.071L424.748,65.071z"/>
		<path fill="#68CEEC" d="M424.748,72.125c0,2.143-1.736,3.879-3.878,3.879h-44.89c-2.142,0-3.877-1.736-3.877-3.879l0,0
			c0-2.143,1.736-3.879,3.877-3.879h44.89C423.011,68.245,424.748,69.982,424.748,72.125L424.748,72.125z"/>
		<path fill="#4CBFE5" d="M428.274,79.178c0,1.883-1.69,3.409-3.775,3.409h-51.913c-2.084,0-3.774-1.526-3.774-3.409l0,0
			c0-1.882,1.689-3.409,3.774-3.409h51.913C426.583,75.769,428.274,77.295,428.274,79.178L428.274,79.178z"/>
		<path fill="#7DD8F0" d="M431.107,85.291c0,1.883-1.689,3.409-3.775,3.409h-56.626c-2.084,0-3.775-1.526-3.775-3.409l0,0
			c0-1.882,1.689-3.409,3.775-3.409h56.626C429.417,81.882,431.107,83.408,431.107,85.291L431.107,85.291z"/>
	</g>
	<g>
		<rect x="437.87" y="56.049" fill="#7DD8F0" width="40.591" height="33.046"/>
		<rect x="434.091" y="50.788" fill="#75D5EF" width="46.836" height="6.083"/>
		<rect x="450.689" y="60.159" fill="#95E1F4" width="13.968" height="4.932"/>
	</g>
	<g>
		<rect x="488.909" y="83.293" fill="#69CFED" width="77.792" height="6.113"/>
		<rect x="495.96" y="62.132" fill="#74D5EF" width="57.581" height="19.515"/>
		<rect x="493.14" y="55.549" fill="#8CDEF2" width="63.221" height="8.699"/>
		<rect x="493.14" y="67.54" fill="#8CDEF2" width="63.221" height="8.699"/>
		<rect x="486.089" y="78.12" fill="#78D6F0" width="82.963" height="8.699"/>
	</g>
	<path fill="#71D3EE" d="M332.854,147.95l0.235-8.229c0,0,3.055,1.881,8.931,1.881s10.341-1.881,10.341-1.881l0.705,8.229
		c0,0,21.857,9.169,23.972,10.345c2.116,1.176,1.645,7.523,1.881,11.521c0.235,3.998,1.175,20.927,1.41,23.982
		c0.235,3.057,6.581,39.499,6.581,39.499h-10.106c0,0-7.755-35.502-8.46-39.029c-0.705-3.526-2.115-21.16-2.115-21.16
		s-1.645,19.045-1.88,23.276c-0.236,4.232,4.701,32.446,4.701,32.446l-54.76-1.41c0,0,7.285-27.509,7.521-32.446
		c0.236-4.938,0.47-21.631,0.47-21.631s-4.7,21.396-4.935,23.748c-0.236,2.351-9.871,35.737-9.871,35.737h-12.221
		c0,0,10.341-35.738,11.046-38.795c0.705-3.056,5.406-29.625,6.346-32.681c0.94-3.057,3.291-5.172,7.756-7.524
		c4.465-2.352,4.465-2.351,4.465-2.351L332.854,147.95z"/>
	<path fill="#5DC8EA" d="M488.44,140.426c3.054,0,4.465,4.938,4.465,14.812s0.705,39.263,0.705,53.841
		c0,14.577-1.176,49.376-1.176,49.376s-6.11,3.292-10.341,0.235c0,0,0.235-34.799,0.47-52.903
		c0.235-18.104,0.94-44.438,1.175-54.547S486.559,140.426,488.44,140.426z"/>
	<path fill="#79D7EF" d="M501.13,140.896c2.312-0.42,3.525,6.583,3.525,10.815s-0.234,23.042,0.235,29.39s0.941,14.107,0.706,26.803
		c-0.236,12.696,1.175,23.512,1.41,27.038c0.235,3.528-0.705,7.76-0.235,14.344c0.47,6.584-1.646,17.398-4.466,17.634
		c-2.821,0.235-4.466-7.758-4.936-20.925c-0.469-13.168,1.646-28.451,1.411-47.025c-0.235-18.574-0.234-40.206-0.47-46.318
		C498.075,146.539,498.545,141.366,501.13,140.896z"/>
	<path fill="#79D7EF" d="M511.002,141.836c2.111,0.132,3.525,6.113,3.76,9.64s-1.175,30.801-0.94,36.208
		c0.235,5.407,0.471,18.338,0.705,22.101c0.235,3.763,1.41,12.932,0.47,15.753c-0.939,2.821-5.64,6.113-6.815,0.235
		c-1.175-5.878,0.47-28.684,0.235-31.271s-1.645-12.697-1.41-24.923C507.241,157.354,507.242,141.602,511.002,141.836z"/>
	<path fill="#95E1F4" d="M525.573,140.661c3.055,0,4.936,11.051,5.171,17.164c0.235,6.112,1.174,20.22,0.47,27.744
		c-0.706,7.523,0,13.871,0,22.806s1.175,34.564,0.47,38.326c-0.705,3.762-0.47,10.933,0,15.753
		c0.412,4.218-0.234,15.518-1.645,15.988c-1.41,0.47-8.461,0.705-9.401-0.706c-0.94-1.41,0.47-24.451,0-32.681
		c-0.47-8.23,0.705-16.459,0.705-27.51s-1.41-17.635-1.41-31.271c0-13.636,0.471-25.862,0.706-32.446
		C520.872,147.244,523.457,140.661,525.573,140.661z"/>
	<path fill="#5BC7E9" d="M539.44,142.072c2.584,0,4.229,11.049,4.229,20.219c0.001,9.17,0.942,40.675,0.706,50.786
		c-0.235,10.11,0.47,41.617,0.235,47.024c-0.235,5.408-2.585,11.757-2.585,11.757l-5.405,0.234c0,0-0.705-8.463,0-19.279
		c0.705-10.815,1.176-39.972,0.941-51.962c-0.236-11.991-2.351-25.629-2.116-34.328c0.235-8.699,0.47-20.926,1.645-23.042
		C538.264,141.366,539.44,142.072,539.44,142.072z"/>
	<path fill="#54C3E7" d="M552.13,142.072c2.816,0.148,4.701,7.288,4.701,21.395c0,14.107,0.704,49.375,0.704,55.018
		c0,5.643-1.41,42.792-1.41,42.792s-4.465,2.587-7.051-1.41c0,0,0-29.626,0-43.028c0-13.401,0.236-33.855-0.235-46.788
		C548.37,157.119,547.665,141.836,552.13,142.072z"/>
	<path fill="#8FE0F3" d="M298.071,304.539c2.104-0.211,7.521,3.997,14.806,8.229c7.287,4.232,11.281,6.348,13.631,6.348
		s8.226,0,9.636,0c1.41,0,1.645-2.586,4.23-1.176c2.585,1.411,5.641,4.702,5.406,5.878s-0.705,3.997-4.465,3.997s-20.212,0-22.328,0
		c-2.115,0-5.17-6.583-7.521-8.699c-2.351-2.115-5.17-2.115-5.17,0.94c0,3.057,0,5.408-1.645,5.408s-2.82,0.705-3.055-2.587
		c-0.235-3.292-0.706-4.466-3.761-8.229C294.781,310.888,293.371,305.01,298.071,304.539z"/>
	<path fill="#6ACFED" d="M373.749,313.003c2.35,0,8.931,4.702,17.861,5.878c8.931,1.176,12.456,0.235,16.217-3.526
		c0,0,10.576,3.997,15.746,6.113c5.17,2.116,4.23,5.408,0.939,5.408c-3.291,0-44.184,0-48.179,0c-3.995,0-7.521-3.293-7.755-7.29
		C368.343,315.59,371.163,313.003,373.749,313.003z"/>
	<path fill="#6ACFED" d="M522.518,305.95c0,0,14.571,1.175,19.742,0.47c0.94,3.526,4.936,7.289,7.051,8.229
		c2.115,0.939,16.451,3.996,16.921,6.583c0.471,2.586-0.94,5.643-6.11,5.643s-27.026,0-31.493,0c-4.466,0-7.756-2.586-8.461-8.935
		C519.463,311.593,522.518,305.95,522.518,305.95z"/>
	<path fill="#6BD0ED" d="M447.075,304.774h12.926v2.821h-6.581c0,0,4.23,3.292,7.286,6.113c3.055,2.821,5.64,6.348,11.281,6.348
		c5.64,0,8.226-1.88,9.4-2.821c1.174-0.94,4.936,2.115,7.051,3.997c2.115,1.881,1.88,6.113-2.586,6.113c-4.465,0-12.926,0-16.216,0
		c-3.291,0-4.465-1.882-8.227-6.349c-3.761-4.467-7.521-5.173-7.521-1.881s-0.939,6.818-0.939,6.818h-2.35c0,0,0-4.232-0.705-6.113
		s-4.231-3.996-4.466-7.523C445.195,308.771,447.075,304.774,447.075,304.774z"/>
	<rect x="271.746" y="20.049" fill="#6BD0ED" width="326.21" height="15.047"/>
</g>
<g>
	<rect x="905.108" y="32.272" fill="#6FD2EE" width="310.229" height="308.004"/>
	<rect x="905.108" y="36.505" fill="#63CCEB" width="310.229" height="5.172"/>
	<rect x="917.329" y="98.576" fill="#5EC9EA" width="285.787" height="192.327"/>
	<rect x="917.329" y="36.505" fill="#5EC9EA" width="285.787" height="52.666"/>
	<rect x="917.329" y="36.505" fill="#56C4E8" width="285.787" height="5.172"/>
	<rect x="917.329" y="98.061" fill="#56C4E8" width="285.787" height="2.91"/>
	<rect x="917.329" y="298.427" fill="#5EC9EA" width="285.787" height="30.095"/>
	<rect x="917.329" y="298.529" fill="#56C4E8" width="285.787" height="3.556"/>
	<path fill="#8BDDF2" d="M1189.838,125.467c-1.493,0-2.793,0.818-3.482,2.028H932.273c-0.69-1.21-1.99-2.028-3.483-2.028
		c-2.214,0-4.011,1.796-4.011,4.012c0,2.216,1.797,4.012,4.011,4.012c1.529,0,2.858-0.857,3.535-2.117h253.978
		c0.678,1.26,2.006,2.117,3.535,2.117c2.216,0,4.01-1.796,4.01-4.012C1193.847,127.263,1192.052,125.467,1189.838,125.467z"/>
	<path fill="#9FE4F5" d="M1115.982,143.277c0,0.828-0.672,1.499-1.498,1.499l0,0c-0.829,0-1.499-0.67-1.499-1.499v-17.986
		c0-0.828,0.67-1.499,1.499-1.499l0,0c0.826,0,1.498,0.671,1.498,1.499V143.277z"/>
	<path fill="#9FE4F5" d="M1127.969,143.277c0,0.828-0.515,1.499-1.146,1.499l0,0c-0.632,0-1.146-0.67-1.146-1.499v-17.986
		c0-0.828,0.515-1.499,1.146-1.499l0,0c0.632,0,1.146,0.671,1.146,1.499V143.277z"/>
	<path fill="#9FE4F5" d="M1137.486,143.277c0,0.828-0.514,1.499-1.146,1.499l0,0c-0.632,0-1.146-0.67-1.146-1.499v-17.986
		c0-0.828,0.514-1.499,1.146-1.499l0,0c0.632,0,1.146,0.671,1.146,1.499V143.277z"/>
	<path fill="#9FE4F5" d="M1152.821,143.277c0,0.828-0.514,1.499-1.146,1.499l0,0c-0.633,0-1.146-0.67-1.146-1.499v-17.986
		c0-0.828,0.514-1.499,1.146-1.499l0,0c0.632,0,1.146,0.671,1.146,1.499V143.277z"/>
	<path fill="#9FE4F5" d="M1166.218,143.277c0,0.828-0.513,1.499-1.146,1.499l0,0c-0.633,0-1.146-0.67-1.146-1.499v-17.986
		c0-0.828,0.513-1.499,1.146-1.499l0,0c0.633,0,1.146,0.671,1.146,1.499V143.277z"/>
	<path fill="#9FE4F5" d="M1178.732,143.277c0,0.828-0.514,1.499-1.145,1.499l0,0c-0.633,0-1.146-0.67-1.146-1.499v-17.986
		c0-0.828,0.514-1.499,1.146-1.499l0,0c0.631,0,1.145,0.671,1.145,1.499V143.277z"/>
	<g>
		<path fill="#A7E7F6" d="M1061.045,140.896h-2.115v-5.982l0.636-0.278c1.294-0.565,4.652-2.537,4.652-4.85
			c0-2.908-2.101-4.232-4.054-4.232c-2.037,0-3.525,1.276-3.525,1.939h-2.115c0-2.122,2.688-4.056,5.641-4.056
			c2.99,0,6.17,2.225,6.17,6.348c0,3.391-3.752,5.685-5.289,6.481V140.896z"/>
	</g>
	<g>
		<path fill="#A7E7F6" d="M1035.75,145.151l-0.882-1.923c0.311-0.143,7.822-3.506,25.942-3.506c18.118,0,23.939,2.572,24.178,2.683
			l-0.881,1.924c-0.051-0.023-5.783-2.49-23.297-2.49C1043.237,141.837,1035.822,145.117,1035.75,145.151z"/>
	</g>
	<path fill="#68CEEC" d="M1036.838,141.954c0,0,19.037,10.933,22.738,10.933s25.912-11.814,25.912-11.814s3.701,0.881,4.935,6.348
		c1.234,5.466,13.749,68.596,13.749,68.596l-10.047-0.529l-12.516-52.725c0,0-2.644,22.923-2.467,29.272
		c0.176,6.349,6.697,13.754,5.992,29.448c-0.705,15.695-6.169,51.315-6.169,51.315s-5.112,2.469-15.159,2.469
		s-13.748-3.35-13.748-3.35s-9.166-38.796-10.929-50.435c-1.763-11.638,1.058-21.865,0.353-29.801s-1.764-24.511-1.764-24.511
		l-3.349,47.083l-9.519-2.469c0,0,3.879-56.076,5.289-62.071C1031.55,143.718,1036.838,141.954,1036.838,141.954z"/>
	<g>
		<path fill="#A7E7F6" d="M1047.531,140.896h-2.115v-5.982l0.635-0.278c1.295-0.565,4.653-2.537,4.653-4.85
			c0-2.908-2.101-4.232-4.054-4.232c-2.038,0-3.525,1.276-3.525,1.939h-2.115c0-2.122,2.688-4.056,5.641-4.056
			c2.99,0,6.169,2.225,6.169,6.348c0,3.391-3.751,5.685-5.288,6.481V140.896z"/>
	</g>
	<g>
		<path fill="#A7E7F6" d="M1022.236,145.151l-0.883-1.923c0.311-0.143,7.823-3.506,25.943-3.506c18.117,0,23.938,2.572,24.178,2.683
			l-0.881,1.924c-0.051-0.023-5.785-2.49-23.297-2.49C1029.723,141.837,1022.308,145.117,1022.236,145.151z"/>
	</g>
	<path fill="#74D5EF" d="M1022.385,142.483c0,0,19.036,10.933,22.738,10.933c3.701,0,25.91-11.814,25.91-11.814
		s3.702,0.882,4.936,6.348c1.234,5.466,13.749,68.595,13.749,68.595l-10.047-0.528l-12.515-52.726c0,0-2.645,22.924-2.468,29.272
		c0.176,6.348,6.698,13.754,5.993,29.448c-0.705,15.695-6.17,51.315-6.17,51.315s-5.111,2.469-15.158,2.469
		c-10.048,0-13.749-3.351-13.749-3.351s-9.167-38.795-10.929-50.434c-1.763-11.639,1.058-21.866,0.353-29.801
		c-0.705-7.936-1.763-24.511-1.763-24.511l-3.35,47.083l-9.518-2.469c0,0,3.877-56.076,5.287-62.071
		S1022.385,142.483,1022.385,142.483z"/>
	<g>
		<path fill="#A7E7F6" d="M969.152,143.012h-2.115v-8.099l0.635-0.278c1.294-0.565,4.652-2.537,4.652-4.85
			c0-2.908-2.101-4.232-4.054-4.232c-2.038,0-3.525,1.276-3.525,1.939h-2.115c0-2.122,2.688-4.056,5.641-4.056
			c2.99,0,6.169,2.225,6.169,6.348c0,3.391-3.751,5.685-5.287,6.481V143.012z"/>
	</g>
	<g>
		<path fill="#A7E7F6" d="M984.135,143.012h-2.115v-8.099l0.635-0.278c1.294-0.565,4.652-2.537,4.652-4.85
			c0-2.908-2.1-4.232-4.054-4.232c-2.037,0-3.525,1.276-3.525,1.939h-2.114c0-2.122,2.688-4.056,5.64-4.056
			c2.991,0,6.169,2.225,6.169,6.348c0,3.391-3.751,5.685-5.287,6.481V143.012z"/>
	</g>
	<g>
		<path fill="#A7E7F6" d="M998.412,143.012h-2.115v-8.099l0.635-0.278c1.295-0.565,4.653-2.537,4.653-4.85
			c0-2.908-2.101-4.232-4.055-4.232c-2.037,0-3.524,1.276-3.524,1.939h-2.115c0-2.122,2.688-4.056,5.64-4.056
			c2.991,0,6.169,2.225,6.169,6.348c0,3.391-3.75,5.685-5.287,6.481V143.012z"/>
	</g>
	<path fill="#5FC9EA" d="M988.775,148.89l0.234-8.229c0,0,3.057,1.881,8.932,1.881c5.877,0,10.342-1.881,10.342-1.881l0.705,8.229
		c0,0,21.856,9.169,23.973,10.345c2.114,1.176,1.645,7.523,1.88,11.521s1.175,20.927,1.41,23.982c0.235,3.057,6.58,39.5,6.58,39.5
		h-10.105c0,0-7.756-35.503-8.461-39.03c-0.705-3.526-2.115-21.16-2.115-21.16s-1.646,19.044-1.88,23.276
		c-0.236,4.232,4.7,32.446,4.7,32.446l-54.761-1.411c0,0,7.285-27.508,7.521-32.445c0.235-4.938,0.471-21.631,0.471-21.631
		s-4.701,21.396-4.936,23.747c-0.236,2.352-9.871,35.738-9.871,35.738h-12.221c0,0,10.341-35.738,11.046-38.795
		c0.704-3.057,5.405-29.625,6.345-32.681c0.94-3.056,3.291-5.172,7.756-7.524c4.466-2.352,4.466-2.351,4.466-2.351L988.775,148.89z"
		/>
	<path fill="#6BD0ED" d="M971.384,148.419l0.235-8.229c0,0,3.055,1.881,8.931,1.881s10.341-1.881,10.341-1.881l0.705,8.229
		c0,0,21.857,9.169,23.973,10.345c2.115,1.176,1.645,7.523,1.881,11.521c0.235,3.997,1.175,20.926,1.41,23.982
		c0.234,3.057,6.58,39.499,6.58,39.499h-10.105c0,0-7.756-35.502-8.461-39.028c-0.705-3.527-2.115-21.161-2.115-21.161
		s-1.645,19.045-1.881,23.276c-0.235,4.232,4.701,32.446,4.701,32.446l-54.761-1.41c0,0,7.286-27.509,7.521-32.446
		c0.236-4.938,0.471-21.631,0.471-21.631s-4.699,21.396-4.936,23.748c-0.235,2.351-9.871,35.737-9.871,35.737h-12.221
		c0,0,10.342-35.738,11.047-38.795c0.705-3.056,5.405-29.625,6.346-32.681c0.939-3.057,3.29-5.172,7.756-7.524
		c4.465-2.352,4.465-2.351,4.465-2.351L971.384,148.419z"/>
	<g>
		<path fill="#78D7EF" d="M983.605,59.781c0,1.169-0.947,2.116-2.115,2.116h-54.525c-1.168,0-2.114-0.947-2.114-2.116v-1.881
			c0-1.168,0.946-2.116,2.114-2.116h54.525c1.168,0,2.115,0.947,2.115,2.116V59.781z"/>
		<path fill="#95E1F4" d="M983.605,66.274c0,1.349-0.947,2.441-2.115,2.441h-54.525c-1.168,0-2.114-1.093-2.114-2.441v-2.17
			c0-1.349,0.946-2.441,2.114-2.441h54.525c1.168,0,2.115,1.094,2.115,2.441V66.274z"/>
		<path fill="#5BC7E9" d="M983.605,72.857c0,1.349-0.947,2.441-2.115,2.441h-54.525c-1.168,0-2.114-1.093-2.114-2.441v-2.17
			c0-1.349,0.946-2.441,2.114-2.441h54.525c1.168,0,2.115,1.094,2.115,2.441V72.857z"/>
		<path fill="#74D5EF" d="M983.605,80.146c0,1.349-0.947,2.441-2.115,2.441h-54.525c-1.168,0-2.114-1.093-2.114-2.441v-2.17
			c0-1.348,0.946-2.441,2.114-2.441h54.525c1.168,0,2.115,1.093,2.115,2.441V80.146z"/>
		<path fill="#5CC8E9" d="M983.605,86.729c0,1.349-0.947,2.441-2.115,2.441h-54.525c-1.168,0-2.114-1.093-2.114-2.441v-2.171
			c0-1.348,0.946-2.441,2.114-2.441h54.525c1.168,0,2.115,1.093,2.115,2.441V86.729z"/>
	</g>
	<g>
		<path fill="#90E0F3" d="M1050.587,65.071c0,2.143-1.735,3.879-3.878,3.879h-44.89c-2.142,0-3.878-1.736-3.878-3.879l0,0
			c0-2.143,1.736-3.879,3.878-3.879h44.89C1048.849,61.191,1050.587,62.929,1050.587,65.071L1050.587,65.071z"/>
		<path fill="#68CEEC" d="M1050.587,72.125c0,2.143-1.735,3.879-3.878,3.879h-44.89c-2.142,0-3.878-1.736-3.878-3.879l0,0
			c0-2.143,1.736-3.879,3.878-3.879h44.89C1048.849,68.245,1050.587,69.982,1050.587,72.125L1050.587,72.125z"/>
		<path fill="#4CBFE5" d="M1054.112,79.178c0,1.883-1.69,3.409-3.774,3.409h-51.913c-2.084,0-3.774-1.526-3.774-3.409l0,0
			c0-1.882,1.689-3.409,3.774-3.409h51.913C1052.422,75.769,1054.112,77.295,1054.112,79.178L1054.112,79.178z"/>
		<path fill="#7DD8F0" d="M1056.945,85.291c0,1.883-1.688,3.409-3.774,3.409h-56.626c-2.084,0-3.775-1.526-3.775-3.409l0,0
			c0-1.882,1.689-3.409,3.775-3.409h56.626C1055.256,81.882,1056.945,83.408,1056.945,85.291L1056.945,85.291z"/>
	</g>
	<g>
		<rect x="1063.709" y="56.049" fill="#7DD8F0" width="40.59" height="33.046"/>
		<rect x="1059.929" y="50.788" fill="#75D5EF" width="46.836" height="6.083"/>
		<rect x="1076.527" y="60.159" fill="#95E1F4" width="13.968" height="4.932"/>
	</g>
	<g>
		<rect x="1114.748" y="83.293" fill="#69CFED" width="77.792" height="6.113"/>
		<rect x="1121.799" y="62.132" fill="#74D5EF" width="57.58" height="19.515"/>
		<rect x="1118.978" y="55.549" fill="#8CDEF2" width="63.221" height="8.699"/>
		<rect x="1118.978" y="67.54" fill="#8CDEF2" width="63.221" height="8.699"/>
		<rect x="1111.927" y="78.12" fill="#78D6F0" width="82.963" height="8.699"/>
	</g>
	<path fill="#71D3EE" d="M958.693,147.95l0.234-8.229c0,0,3.055,1.881,8.931,1.881s10.341-1.881,10.341-1.881l0.705,8.229
		c0,0,21.857,9.169,23.973,10.345s1.645,7.523,1.881,11.521c0.235,3.998,1.176,20.927,1.41,23.982
		c0.234,3.057,6.58,39.499,6.58,39.499h-10.105c0,0-7.756-35.502-8.461-39.029c-0.705-3.526-2.115-21.16-2.115-21.16
		s-1.645,19.045-1.881,23.276c-0.235,4.232,4.701,32.446,4.701,32.446l-54.76-1.41c0,0,7.285-27.509,7.52-32.446
		c0.236-4.938,0.471-21.631,0.471-21.631s-4.699,21.396-4.936,23.748c-0.235,2.351-9.871,35.737-9.871,35.737H921.09
		c0,0,10.342-35.738,11.047-38.795c0.705-3.056,5.405-29.625,6.346-32.681c0.939-3.057,3.29-5.172,7.756-7.524
		c4.465-2.352,4.465-2.351,4.465-2.351L958.693,147.95z"/>
	<path fill="#5DC8EA" d="M1114.279,140.426c3.054,0,4.465,4.938,4.465,14.812s0.705,39.263,0.705,53.841
		c0,14.577-1.176,49.376-1.176,49.376s-6.111,3.292-10.342,0.235c0,0,0.235-34.799,0.471-52.903
		c0.235-18.104,0.94-44.438,1.176-54.547C1109.812,141.131,1112.398,140.426,1114.279,140.426z"/>
	<path fill="#79D7EF" d="M1126.969,140.896c2.312-0.42,3.525,6.583,3.525,10.815s-0.234,23.042,0.235,29.39
		s0.94,14.107,0.706,26.803c-0.236,12.696,1.175,23.512,1.41,27.038c0.234,3.528-0.705,7.76-0.235,14.344
		s-1.646,17.398-4.466,17.634s-4.467-7.758-4.936-20.925c-0.47-13.168,1.645-28.451,1.41-47.025
		c-0.234-18.574-0.234-40.206-0.47-46.318C1123.914,146.539,1124.384,141.366,1126.969,140.896z"/>
	<path fill="#79D7EF" d="M1136.84,141.836c2.111,0.132,3.525,6.113,3.761,9.64s-1.175,30.801-0.94,36.208
		c0.236,5.407,0.471,18.338,0.705,22.101c0.235,3.763,1.41,12.932,0.471,15.753s-5.641,6.113-6.816,0.235
		c-1.174-5.878,0.471-28.684,0.235-31.271s-1.645-12.697-1.409-24.923C1133.08,157.354,1133.08,141.602,1136.84,141.836z"/>
	<path fill="#95E1F4" d="M1151.412,140.661c3.055,0,4.936,11.051,5.17,17.164c0.235,6.112,1.175,20.22,0.471,27.744
		c-0.706,7.523,0,13.871,0,22.806s1.175,34.564,0.469,38.326c-0.704,3.762-0.469,10.933,0,15.753
		c0.412,4.218-0.234,15.518-1.645,15.988c-1.41,0.47-8.461,0.705-9.4-0.706c-0.941-1.41,0.469-24.451,0-32.681
		c-0.471-8.23,0.704-16.459,0.704-27.51s-1.41-17.635-1.41-31.271c0-13.636,0.471-25.862,0.706-32.446
		C1146.711,147.244,1149.296,140.661,1151.412,140.661z"/>
	<path fill="#5BC7E9" d="M1165.278,142.072c2.585,0,4.229,11.049,4.229,20.219c0,9.17,0.941,40.675,0.705,50.786
		c-0.234,10.11,0.471,41.617,0.235,47.024c-0.235,5.408-2.585,11.757-2.585,11.757l-5.406,0.234c0,0-0.704-8.463,0-19.279
		c0.705-10.815,1.177-39.972,0.941-51.962c-0.236-11.991-2.352-25.629-2.116-34.328c0.235-8.699,0.47-20.926,1.646-23.042
		C1164.103,141.366,1165.278,142.072,1165.278,142.072z"/>
	<path fill="#54C3E7" d="M1177.969,142.072c2.816,0.148,4.701,7.288,4.701,21.395c0,14.107,0.704,49.375,0.704,55.018
		c0,5.643-1.41,42.792-1.41,42.792s-4.466,2.587-7.051-1.41c0,0,0-29.626,0-43.028c0-13.401,0.235-33.855-0.235-46.788
		C1174.209,157.119,1173.504,141.836,1177.969,142.072z"/>
	<path fill="#8FE0F3" d="M923.91,304.539c2.104-0.211,7.52,3.997,14.806,8.229s11.281,6.348,13.632,6.348c2.35,0,8.226,0,9.636,0
		c1.409,0,1.645-2.586,4.23-1.176c2.585,1.411,5.641,4.702,5.405,5.878c-0.234,1.176-0.705,3.997-4.465,3.997s-20.212,0-22.328,0
		c-2.114,0-5.17-6.583-7.52-8.699c-2.352-2.115-5.171-2.115-5.171,0.94c0,3.057,0,5.408-1.646,5.408
		c-1.645,0-2.82,0.705-3.055-2.587s-0.705-4.466-3.761-8.229C920.62,310.888,919.209,305.01,923.91,304.539z"/>
	<path fill="#6ACFED" d="M999.588,313.003c2.35,0,8.93,4.702,17.861,5.878c8.931,1.176,12.455,0.235,16.217-3.526
		c0,0,10.575,3.997,15.746,6.113c5.17,2.116,4.23,5.408,0.939,5.408s-44.185,0-48.18,0c-3.994,0-7.521-3.293-7.756-7.29
		C994.181,315.59,997.002,313.003,999.588,313.003z"/>
	<path fill="#6ACFED" d="M1148.356,305.95c0,0,14.571,1.175,19.741,0.47c0.941,3.526,4.936,7.289,7.051,8.229
		c2.115,0.939,16.451,3.996,16.922,6.583c0.471,2.586-0.939,5.643-6.11,5.643s-27.026,0-31.493,0c-4.465,0-7.756-2.586-8.461-8.935
		C1145.302,311.593,1148.356,305.95,1148.356,305.95z"/>
	<path fill="#6BD0ED" d="M1072.914,304.774h12.926v2.821h-6.58c0,0,4.23,3.292,7.285,6.113s5.641,6.348,11.281,6.348
		s8.227-1.88,9.4-2.821c1.175-0.94,4.936,2.115,7.051,3.997c2.115,1.881,1.881,6.113-2.586,6.113c-4.465,0-12.926,0-16.215,0
		c-3.291,0-4.466-1.882-8.227-6.349c-3.762-4.467-7.521-5.173-7.521-1.881s-0.939,6.818-0.939,6.818h-2.35c0,0,0-4.232-0.705-6.113
		s-4.231-3.996-4.467-7.523C1071.033,308.771,1072.914,304.774,1072.914,304.774z"/>
	<rect x="897.585" y="20.049" fill="#6BD0ED" width="326.21" height="15.047"/>
</g>
<g id="Layer_2">
	<rect x="0" y="335.998" fill="#4AB7DB" width="1261.721" height="26.013"/>
</g>
<g>
	<path fill="#EEBA94" d="M999.743,342.659l-11.07-21.456c0,0-36.322-10.729-54.657-53.295c0,0-8.648-3.807-12.453-13.843
		c0,0-23.178-12.112-29.75-20.766c1.038-8.998,12.453-23.879,12.453-23.879s-14.528-8.306-20.756-19.034
		c3.114-11.42,11.07-22.494,11.07-22.494l-14.184-16.612l124.189,3.115c0,0,15.567,10.729,24.907,20.072
		s38.052,66.447,38.052,66.447l17.989,43.604l-2.769,50.872L999.743,342.659z"/>
	<path fill="#F5D4A9" d="M910.839,92.968c0,0-21.102-11.766-27.675-15.573c-6.572-3.807-15.221-4.845-20.409,2.076
		c-5.189,6.921-4.325,16.785,6.572,24.052c10.896,7.268,41.338,25.609,41.338,25.609L910.839,92.968z"/>
	<g>
		<path fill="#EEC39C" d="M889.218,108.195c-0.189,0-0.378-0.078-0.515-0.229c-0.257-0.284-0.232-0.722,0.051-0.977
			c6.654-5.991,7.724-13.179,7.735-13.251c0.053-0.379,0.401-0.645,0.78-0.59c0.379,0.053,0.642,0.403,0.59,0.781
			c-0.044,0.314-1.155,7.763-8.179,14.088C889.548,108.136,889.383,108.195,889.218,108.195z"/>
	</g>
	<path fill="#286D8A" d="M1007.352,219.111c0,4.969-4.025,8.997-8.993,8.997H913.26c-4.969,0-8.995-4.028-8.995-8.997V50.575
		c0-4.969,4.026-8.998,8.995-8.998h85.099c4.968,0,8.993,4.029,8.993,8.998V219.111z"/>
	<path fill="#FFFFFF" d="M1003.548,197.654c0,1.912-1.548,3.461-3.459,3.461h-88.904c-1.911,0-3.459-1.549-3.459-3.461V66.84
		c0-1.911,1.548-3.461,3.459-3.461h88.904c1.911,0,3.459,1.55,3.459,3.461V197.654z"/>
	<path fill="#F5D4A9" d="M1013.926,282.789c0,0-22.14-26.647-16.259-54.334c5.881-27.686,26.637-44.989,26.637-44.989
		s0-7.268,2.076-11.074c-5.881-5.883-11.762-29.07-12.108-39.106c0,0-14.528-7.613-15.912-28.724s8.302-28.032,12.107-28.724
		c2.768,6.576,13.491,22.495,13.491,22.495s2.768,3.115,4.151,4.153s10.724,5.191,13.837,11.074s25.253,51.219,28.021,60.217
		c2.768,8.998,6.572,34.607-0.692,65.062c-7.264,30.455-36.668,56.756-36.668,56.756s21.447-17.995,30.441-21.803
		c8.994-3.807,14.875-0.691,19.372,3.115l11.416,26.993l-73.337,31.146c0,0,0-16.957,3.459-28.031c0,0-12.107,7.613-28.367,3.46
		c-16.258-4.152-37.014-15.573-45.662-35.299c-8.648-19.727-2.422-30.801-2.422-30.801s-4.843,3.808-5.535,5.884
		c-0.691,2.076-8.302-6.575-9.686-12.806c-1.384-6.229-3.113-8.998-3.113-8.998h57.771c0,0,0.691,17.65,10.724,33.916
		S1013.926,282.789,1013.926,282.789z"/>
	<path fill="#F5D4A9" d="M906.169,209.94c6.572,2.076,21.102,7.44,24.906,10.728c3.806,3.288,5.709,9.171,3.113,15.92
		c-2.594,6.749-8.648,10.556-14.875,8.652s-17.47-6.229-23.177-8.999c-5.708-2.769-12.107-7.959-8.303-17.649
		C891.639,208.902,897.805,207.299,906.169,209.94z"/>
	<path fill="#F5D4A9" d="M897.347,167.72c3.812,1.192,14.874,7.959,18.68,11.593c3.806,3.633,9.34,11.074,3.46,19.726
		c-5.882,8.651-11.416,7.959-20.583,3.634c-9.167-4.326-17.815-10.556-20.41-15.055c-2.595-4.498-2.075-11.593,3.113-16.438
		C886.796,166.335,891.812,165.989,897.347,167.72z"/>
	<path fill="#F5D4A9" d="M895.791,129.651c4.978,2.682,13.317,7.44,15.739,11.248c2.422,3.807,3.46,10.555-0.173,16.265
		c-3.632,5.71-10.551,8.998-17.988,5.883c-7.438-3.114-16.432-10.209-18.161-15.747c-1.73-5.537,1.557-12.978,6.399-16.784
		C886.451,126.71,893.542,128.44,895.791,129.651z"/>
	<path fill="#E05D02" d="M993.977,105.484c0-11.626-9.444-21.086-21.06-21.109c-3.687-6.333-10.508-10.384-18.03-10.384
		c-7.588,0-14.381,3.997-18.068,10.409c-0.281-0.011-0.562-0.026-0.843-0.026c-11.635,0-21.102,9.47-21.102,21.11
		c0,11.641,9.467,21.11,21.102,21.11l37.358-0.012C984.758,126.337,993.977,116.972,993.977,105.484z M972.876,120.365h-36.899
		c-8.201,0-14.875-6.676-14.875-14.881c0-8.205,6.674-14.881,14.875-14.881c2.485,0,4.943,0.624,7.108,1.805l2.98-5.469
		c-0.851-0.464-1.737-0.862-2.644-1.203c2.724-3.441,6.888-5.515,11.467-5.515c4.424,0,8.505,2,11.233,5.263
		c-1.257,0.424-2.477,0.964-3.635,1.621l3.07,5.42c2.219-1.257,4.75-1.921,7.318-1.921c8.201,0,14.875,6.676,14.875,14.881
		C987.751,113.689,981.076,120.365,972.876,120.365z"/>
	<g>
		<path fill="#292929" d="M963.765,120.365h-27.79c-8.202,0-14.875-6.676-14.875-14.881c0-8.205,6.673-14.881,14.875-14.881
			c2.485,0,4.943,0.624,7.107,1.805l2.981-5.469c-0.851-0.464-1.737-0.862-2.644-1.203c2.724-3.441,6.888-5.515,11.467-5.515
			c3.288,0,6.385,1.106,8.878,3.012v-7.24c-2.721-1.285-5.735-2.001-8.878-2.001c-7.587,0-14.381,3.997-18.068,10.409
			c-0.281-0.011-0.562-0.026-0.843-0.026c-11.635,0-21.102,9.47-21.102,21.11s9.467,21.11,21.102,21.11l27.79-0.008L963.765,120.365
			L963.765,120.365z"/>
		<path fill="#292929" d="M963.765,89.362v-2.917c-0.432,0.206-0.86,0.423-1.278,0.66L963.765,89.362z"/>
	</g>
	<g>
		<g>
			<path fill="#47B72D" d="M937.416,171.953v3.445h-1.651v-3.317c-2.252,0-4.081-0.455-5.489-1.365v-2.762
				c0.613,0.54,1.452,0.992,2.515,1.357c1.063,0.364,2.055,0.547,2.975,0.547v-8.126c-2.325-1.122-3.834-2.155-4.521-3.103
				c-0.688-0.947-1.031-2.066-1.031-3.357c0-1.534,0.523-2.859,1.571-3.976c1.049-1.116,2.375-1.786,3.981-2.008v-2.856h1.651v2.793
				c2.074,0.063,3.506,0.36,4.301,0.889v2.698c-1.08-0.847-2.513-1.302-4.301-1.365v8.381c2.201,1.048,3.704,2.062,4.514,3.039
				c0.809,0.979,1.214,2.093,1.214,3.342c0,1.502-0.505,2.765-1.515,3.786C940.617,171.013,939.214,171.667,937.416,171.953z
				 M935.764,158.938v-7.397c-0.888,0.18-1.592,0.574-2.109,1.182c-0.519,0.608-0.778,1.347-0.778,2.214
				c0,0.91,0.212,1.656,0.636,2.237C933.935,157.757,934.686,158.345,935.764,158.938z M937.416,162.556v7.173
				c2.041-0.443,3.062-1.544,3.062-3.301C940.477,164.969,939.457,163.679,937.416,162.556z"/>
		</g>
		<g>
			<path fill="#47B72D" d="M956.442,171.953v3.445h-1.651v-3.317c-2.253,0-4.082-0.455-5.489-1.365v-2.762
				c0.613,0.54,1.451,0.992,2.515,1.357c1.063,0.364,2.055,0.547,2.975,0.547v-8.126c-2.326-1.122-3.834-2.155-4.522-3.103
				c-0.687-0.947-1.03-2.066-1.03-3.357c0-1.534,0.523-2.859,1.57-3.976c1.05-1.116,2.376-1.786,3.983-2.008v-2.856h1.65v2.793
				c2.074,0.063,3.506,0.36,4.3,0.889v2.698c-1.079-0.847-2.512-1.302-4.3-1.365v8.381c2.2,1.048,3.704,2.062,4.514,3.039
				c0.809,0.979,1.213,2.093,1.213,3.342c0,1.502-0.504,2.765-1.515,3.786C959.643,171.013,958.24,171.667,956.442,171.953z
				 M954.791,158.938v-7.397c-0.889,0.18-1.592,0.574-2.109,1.182c-0.52,0.608-0.779,1.347-0.779,2.214
				c0,0.91,0.213,1.656,0.636,2.237C952.962,157.757,953.713,158.345,954.791,158.938z M956.442,162.556v7.173
				c2.041-0.443,3.062-1.544,3.062-3.301C959.504,164.969,958.483,163.679,956.442,162.556z"/>
		</g>
		<g>
			<path fill="#47B72D" d="M975.468,171.953v3.445h-1.651v-3.317c-2.252,0-4.081-0.455-5.488-1.365v-2.762
				c0.613,0.54,1.451,0.992,2.515,1.357c1.063,0.364,2.055,0.547,2.974,0.547v-8.126c-2.325-1.122-3.833-2.155-4.521-3.103
				c-0.688-0.947-1.031-2.066-1.031-3.357c0-1.534,0.523-2.859,1.571-3.976c1.048-1.116,2.375-1.786,3.981-2.008v-2.856h1.651v2.793
				c2.073,0.063,3.505,0.36,4.3,0.889v2.698c-1.08-0.847-2.512-1.302-4.3-1.365v8.381c2.2,1.048,3.704,2.062,4.514,3.039
				c0.808,0.979,1.213,2.093,1.213,3.342c0,1.502-0.505,2.765-1.515,3.786C978.671,171.013,977.265,171.667,975.468,171.953z
				 M973.816,158.938v-7.397c-0.888,0.18-1.592,0.574-2.108,1.182c-0.52,0.608-0.779,1.347-0.779,2.214
				c0,0.91,0.213,1.656,0.636,2.237C971.988,157.757,972.739,158.345,973.816,158.938z M975.468,162.556v7.173
				c2.041-0.443,3.062-1.544,3.062-3.301C978.53,164.969,977.509,163.679,975.468,162.556z"/>
		</g>
	</g>
	<path fill="#EEC39C" d="M925.597,222.226c0,0,3.229,10.382-7.149,20.535c-10.839-4.846-15.912-11.076-14.99-14.998
		c0.923-3.922,3.229-6.92,4.382-7.844c1.153-0.923,3.921-1.615,7.841-0.692C919.601,220.149,925.597,222.226,925.597,222.226z"/>
	<path fill="#EEC39C" d="M911.991,180.697c0,0-2.305,2.076-6.227,9.92c-3.921,7.845-4.381,11.767-4.381,11.767
		s-6.228-4.846-9.456-8.537c-3.229-3.69-5.534-8.306-4.381-10.844c1.152-2.538,2.306-4.382,3.92-5.767s3.92-1.846,7.148-1.154
		C901.844,176.775,911.991,180.697,911.991,180.697z"/>
	<path fill="#EEC39C" d="M903.228,138.707c0,0-3.921,4.383-6.688,10.382c-2.768,5.999-4.151,11.305-4.151,11.305
		s-3.689-3-6.457-6.23c-2.768-3.23-2.768-3.229-2.768-3.229s-3.459-6.229-2.075-8.998s2.536-4.153,3.229-5.537
		c0.691-1.384,4.151-2.999,8.764-1.615C897.694,136.169,903.228,138.707,903.228,138.707z"/>
	<path fill="#EEC39C" d="M1025.687,99.947c0,0-13.145-24.456-13.605-25.147c-0.462-0.692-3.23,0.922-3.69,1.846
		c-0.461,0.923,0.691,6.46,4.15,12.689c3.459,6.229,5.996,9.46,8.303,10.152C1023.151,100.178,1025.687,99.947,1025.687,99.947z"/>
	<polygon fill="#DE4944" points="1138.461,361.999 998.012,361.999 990.402,343.352 1104.559,296.632 	"/>
	<path fill="#4D819A" d="M967.571,218.072c0,1.146-0.93,2.077-2.076,2.077h-19.718c-1.146,0-2.075-0.931-2.075-2.077v-6.921
		c0-1.147,0.929-2.076,2.075-2.076h19.718c1.146,0,2.076,0.929,2.076,2.076V218.072z"/>
</g>
</svg>
