<?xml version="1.0" encoding="utf-8"?>
<!-- Generator: Adobe Illustrator 16.0.0, SVG Export Plug-In . SVG Version: 6.00 Build 0)  -->
<!DOCTYPE svg PUBLIC "-//W3C//DTD SVG 1.1//EN" "http://www.w3.org/Graphics/SVG/1.1/DTD/svg11.dtd">
<svg version="1.1" id="Layer_1" xmlns="http://www.w3.org/2000/svg" xmlns:xlink="http://www.w3.org/1999/xlink" x="0px" y="0px"
	 width="1261.842px" height="587.926px" viewBox="0 0 1261.842 587.926" enable-background="new 0 0 1261.842 587.926"
	 xml:space="preserve">
<rect y="-0.007" fill="#A4E6F6" width="1262.232" height="566.548"/>
<g>
	<rect x="335.088" y="120.463" fill="#6FD2EE" width="439.999" height="436.666"/>
	<rect x="335.088" y="126.464" fill="#63CCEB" width="439.999" height="7.333"/>
	<rect x="352.421" y="214.464" fill="#5EC9EA" width="405.333" height="272.666"/>
	<rect x="352.421" y="126.464" fill="#5EC9EA" width="405.333" height="74.666"/>
	<rect x="352.421" y="126.464" fill="#56C4E8" width="405.333" height="7.333"/>
	<rect x="352.421" y="213.734" fill="#56C4E8" width="405.333" height="4.125"/>
	<rect x="352.421" y="497.797" fill="#5EC9EA" width="405.333" height="42.666"/>
	<rect x="352.421" y="497.942" fill="#56C4E8" width="405.333" height="5.041"/>
	<path fill="#8BDDF2" d="M738.921,252.588c-2.117,0-3.96,1.16-4.938,2.875H373.616c-0.979-1.716-2.823-2.875-4.94-2.875
		c-3.141,0-5.688,2.547-5.688,5.688c0,3.142,2.547,5.688,5.688,5.688c2.169,0,4.054-1.215,5.014-3.001h360.219
		c0.96,1.786,2.844,3.001,5.013,3.001c3.143,0,5.688-2.547,5.688-5.688C744.609,255.135,742.062,252.588,738.921,252.588z"/>
	<path fill="#9FE4F5" d="M634.171,277.838c0,1.174-0.951,2.125-2.125,2.125l0,0c-1.174,0-2.125-0.951-2.125-2.125v-25.5
		c0-1.174,0.951-2.125,2.125-2.125l0,0c1.174,0,2.125,0.951,2.125,2.125V277.838z"/>
	<path fill="#9FE4F5" d="M651.171,277.838c0,1.174-0.728,2.125-1.625,2.125l0,0c-0.896,0-1.625-0.951-1.625-2.125v-25.5
		c0-1.174,0.729-2.125,1.625-2.125l0,0c0.897,0,1.625,0.951,1.625,2.125V277.838z"/>
	<path fill="#9FE4F5" d="M664.671,277.838c0,1.174-0.728,2.125-1.625,2.125l0,0c-0.896,0-1.625-0.951-1.625-2.125v-25.5
		c0-1.174,0.729-2.125,1.625-2.125l0,0c0.897,0,1.625,0.951,1.625,2.125V277.838z"/>
	<path fill="#9FE4F5" d="M686.421,277.838c0,1.174-0.728,2.125-1.625,2.125l0,0c-0.896,0-1.625-0.951-1.625-2.125v-25.5
		c0-1.174,0.729-2.125,1.625-2.125l0,0c0.897,0,1.625,0.951,1.625,2.125V277.838z"/>
	<path fill="#9FE4F5" d="M705.421,277.838c0,1.174-0.728,2.125-1.625,2.125l0,0c-0.896,0-1.625-0.951-1.625-2.125v-25.5
		c0-1.174,0.729-2.125,1.625-2.125l0,0c0.897,0,1.625,0.951,1.625,2.125V277.838z"/>
	<path fill="#9FE4F5" d="M723.171,277.838c0,1.174-0.728,2.125-1.625,2.125l0,0c-0.896,0-1.625-0.951-1.625-2.125v-25.5
		c0-1.174,0.729-2.125,1.625-2.125l0,0c0.897,0,1.625,0.951,1.625,2.125V277.838z"/>
	<g>
		<path fill="#A7E7F6" d="M556.254,274.463h-3v-8.482l0.902-0.394c1.835-0.801,6.598-3.597,6.598-6.875c0-4.123-2.979-6-5.75-6
			c-2.889,0-5,1.809-5,2.75h-3c0-3.009,3.813-5.75,8-5.75c4.242,0,8.75,3.154,8.75,9c0,4.807-5.32,8.059-7.5,9.189V274.463z"/>
	</g>
	<g>
		<path fill="#A7E7F6" d="M520.378,280.495l-1.251-2.727c0.441-0.203,11.095-4.971,36.794-4.971c25.698,0,33.953,3.647,34.292,3.803
			l-1.25,2.728c-0.072-0.032-8.203-3.53-33.042-3.53C530.998,275.797,520.481,280.447,520.378,280.495z"/>
	</g>
	<path fill="#68CEEC" d="M521.921,275.963c0,0,27,15.5,32.25,15.5s36.75-16.75,36.75-16.75s5.25,1.25,7,9s19.5,97.25,19.5,97.25
		l-14.25-0.75l-17.75-74.75c0,0-3.75,32.5-3.5,41.5s9.5,19.5,8.5,41.75s-8.75,72.75-8.75,72.75s-7.25,3.5-21.5,3.5
		s-19.5-4.75-19.5-4.75s-13-55-15.5-71.5s1.5-31,0.5-42.25s-2.5-34.75-2.5-34.75l-4.75,66.75l-13.5-3.5c0,0,5.5-79.5,7.5-88
		S521.921,275.963,521.921,275.963z"/>
	<g>
		<path fill="#A7E7F6" d="M537.087,274.463h-3v-8.482l0.902-0.394c1.835-0.801,6.598-3.597,6.598-6.875c0-4.123-2.979-6-5.75-6
			c-2.889,0-5,1.809-5,2.75h-3c0-3.009,3.813-5.75,8-5.75c4.242,0,8.75,3.154,8.75,9c0,4.807-5.32,8.059-7.5,9.189V274.463z"/>
	</g>
	<g>
		<path fill="#A7E7F6" d="M501.211,280.495l-1.251-2.727c0.441-0.203,11.095-4.971,36.794-4.971c25.698,0,33.953,3.647,34.292,3.803
			l-1.25,2.728c-0.072-0.032-8.203-3.53-33.042-3.53C511.831,275.797,501.315,280.447,501.211,280.495z"/>
	</g>
	<path fill="#74D5EF" d="M501.421,276.713c0,0,27,15.5,32.25,15.5s36.75-16.75,36.75-16.75s5.25,1.25,7,9s19.5,97.25,19.5,97.25
		l-14.25-0.75l-17.75-74.75c0,0-3.75,32.5-3.5,41.5s9.5,19.5,8.5,41.75s-8.75,72.75-8.75,72.75s-7.25,3.5-21.5,3.5
		s-19.5-4.75-19.5-4.75s-13-55-15.5-71.5s1.5-31,0.5-42.25s-2.5-34.75-2.5-34.75l-4.75,66.75l-13.5-3.5c0,0,5.5-79.5,7.5-88
		S501.421,276.713,501.421,276.713z"/>
	<g>
		<path fill="#A7E7F6" d="M425.921,277.463h-3v-11.482l0.902-0.394c1.835-0.801,6.598-3.597,6.598-6.875c0-4.123-2.979-6-5.75-6
			c-2.889,0-5,1.809-5,2.75h-3c0-3.009,3.813-5.75,8-5.75c4.242,0,8.75,3.154,8.75,9c0,4.807-5.32,8.059-7.5,9.189V277.463z"/>
	</g>
	<g>
		<path fill="#A7E7F6" d="M447.171,277.463h-3v-11.482l0.902-0.394c1.835-0.801,6.598-3.597,6.598-6.875c0-4.123-2.979-6-5.75-6
			c-2.889,0-5,1.809-5,2.75h-3c0-3.009,3.813-5.75,8-5.75c4.242,0,8.75,3.154,8.75,9c0,4.807-5.32,8.059-7.5,9.189V277.463z"/>
	</g>
	<g>
		<path fill="#A7E7F6" d="M467.421,277.463h-3v-11.482l0.902-0.394c1.835-0.801,6.598-3.597,6.598-6.875c0-4.123-2.979-6-5.75-6
			c-2.889,0-5,1.809-5,2.75h-3c0-3.009,3.813-5.75,8-5.75c4.242,0,8.75,3.154,8.75,9c0,4.807-5.32,8.059-7.5,9.189V277.463z"/>
	</g>
	<path fill="#5FC9EA" d="M453.754,285.796l0.333-11.667c0,0,4.333,2.667,12.667,2.667s14.667-2.667,14.667-2.667l1,11.667
		c0,0,31,13,34,14.667s2.333,10.666,2.667,16.333s1.667,29.668,2,34.001s9.333,55.999,9.333,55.999h-14.333c0,0-11-50.333-12-55.333
		s-3-30-3-30s-2.333,27-2.667,33s6.667,46,6.667,46l-77.667-2c0,0,10.333-39,10.667-46s0.667-30.667,0.667-30.667
		s-6.666,30.334-7,33.667s-14,50.667-14,50.667h-17.333c0,0,14.667-50.668,15.667-55.001s7.667-42,9-46.333s4.667-7.333,11-10.667
		s6.333-3.333,6.333-3.333L453.754,285.796z"/>
	<path fill="#6BD0ED" d="M429.087,285.129l0.333-11.667c0,0,4.333,2.667,12.667,2.667s14.667-2.667,14.667-2.667l1,11.667
		c0,0,31,13,34,14.667s2.333,10.666,2.667,16.333s1.667,29.668,2,34.001s9.333,55.999,9.333,55.999h-14.333c0,0-11-50.333-12-55.333
		s-3-30-3-30s-2.333,27-2.667,33s6.667,46,6.667,46l-77.667-2c0,0,10.333-39,10.667-46s0.667-30.667,0.667-30.667
		s-6.666,30.334-7,33.667s-14,50.667-14,50.667h-17.333c0,0,14.667-50.668,15.667-55.001s7.667-42,9-46.333s4.667-7.333,11-10.667
		s6.333-3.333,6.333-3.333L429.087,285.129z"/>
	<g>
		<path fill="#78D7EF" d="M446.421,159.463c0,1.657-1.343,3-3,3h-77.333c-1.657,0-3-1.343-3-3v-2.667c0-1.657,1.343-3,3-3h77.333
			c1.657,0,3,1.343,3,3V159.463z"/>
		<path fill="#95E1F4" d="M446.421,168.669c0,1.912-1.343,3.461-3,3.461h-77.333c-1.657,0-3-1.55-3-3.461v-3.077
			c0-1.912,1.343-3.461,3-3.461h77.333c1.657,0,3,1.55,3,3.461V168.669z"/>
		<path fill="#5BC7E9" d="M446.421,178.002c0,1.912-1.343,3.461-3,3.461h-77.333c-1.657,0-3-1.55-3-3.461v-3.077
			c0-1.912,1.343-3.461,3-3.461h77.333c1.657,0,3,1.55,3,3.461V178.002z"/>
		<path fill="#74D5EF" d="M446.421,188.335c0,1.912-1.343,3.461-3,3.461h-77.333c-1.657,0-3-1.55-3-3.461v-3.077
			c0-1.912,1.343-3.461,3-3.461h77.333c1.657,0,3,1.55,3,3.461V188.335z"/>
		<path fill="#5CC8E9" d="M446.421,197.668c0,1.912-1.343,3.461-3,3.461h-77.333c-1.657,0-3-1.55-3-3.461v-3.077
			c0-1.912,1.343-3.461,3-3.461h77.333c1.657,0,3,1.55,3,3.461V197.668z"/>
	</g>
	<g>
		<path fill="#90E0F3" d="M541.421,166.963c0,3.038-2.462,5.5-5.5,5.5h-63.667c-3.038,0-5.5-2.462-5.5-5.5l0,0
			c0-3.038,2.462-5.5,5.5-5.5h63.667C538.958,161.463,541.421,163.926,541.421,166.963L541.421,166.963z"/>
		<path fill="#68CEEC" d="M541.421,176.963c0,3.038-2.462,5.5-5.5,5.5h-63.667c-3.038,0-5.5-2.462-5.5-5.5l0,0
			c0-3.038,2.462-5.5,5.5-5.5h63.667C538.958,171.463,541.421,173.926,541.421,176.963L541.421,176.963z"/>
		<path fill="#4CBFE5" d="M546.421,186.963c0,2.669-2.396,4.833-5.353,4.833H467.44c-2.956,0-5.354-2.164-5.354-4.833l0,0
			c0-2.669,2.396-4.833,5.354-4.833h73.628C544.024,182.13,546.421,184.294,546.421,186.963L546.421,186.963z"/>
		<path fill="#7DD8F0" d="M550.44,195.63c0,2.669-2.396,4.833-5.354,4.833h-80.313c-2.956,0-5.354-2.164-5.354-4.833l0,0
			c0-2.669,2.396-4.833,5.354-4.833h80.313C548.043,190.796,550.44,192.96,550.44,195.63L550.44,195.63z"/>
	</g>
	<g>
		<rect x="560.032" y="154.172" fill="#7DD8F0" width="57.57" height="46.85"/>
		<rect x="554.671" y="146.713" fill="#75D5EF" width="66.428" height="8.624"/>
		<rect x="578.212" y="159.999" fill="#95E1F4" width="19.812" height="6.992"/>
	</g>
	<g>
		<rect x="632.421" y="192.797" fill="#69CFED" width="110.333" height="8.667"/>
		<rect x="642.421" y="162.797" fill="#74D5EF" width="81.667" height="27.667"/>
		<rect x="638.421" y="153.463" fill="#8CDEF2" width="89.667" height="12.333"/>
		<rect x="638.421" y="170.463" fill="#8CDEF2" width="89.667" height="12.333"/>
		<rect x="628.421" y="185.463" fill="#78D6F0" width="117.667" height="12.333"/>
	</g>
	<path fill="#71D3EE" d="M411.087,284.463l0.333-11.667c0,0,4.333,2.667,12.667,2.667s14.667-2.667,14.667-2.667l1,11.667
		c0,0,31,13,34,14.667s2.333,10.666,2.667,16.333s1.667,29.668,2,34.001s9.333,55.999,9.333,55.999h-14.333c0,0-11-50.333-12-55.333
		s-3-30-3-30s-2.333,27-2.667,33s6.667,46,6.667,46l-77.667-2c0,0,10.333-39,10.667-46s0.667-30.667,0.667-30.667
		s-6.666,30.334-7,33.667s-14,50.667-14,50.667h-17.333c0,0,14.667-50.668,15.667-55.001s7.667-42,9-46.333s4.667-7.333,11-10.667
		s6.333-3.333,6.333-3.333L411.087,284.463z"/>
	<path fill="#5DC8EA" d="M631.755,273.797c4.332,0,6.333,7,6.333,21s1,55.665,1,76.332s-1.667,70-1.667,70
		s-8.667,4.668-14.667,0.334c0,0,0.333-49.333,0.667-75s1.334-63.001,1.667-77.334S629.088,273.797,631.755,273.797z"/>
	<path fill="#79D7EF" d="M649.754,274.463c3.28-0.596,5,9.333,5,15.333s-0.332,32.667,0.334,41.667s1.334,20,1,38
		s1.667,33.333,2,38.333s-0.999,10.999-0.333,20.333s-2.334,24.666-6.334,25s-6.334-10.999-7-29.666s2.333-40.334,2-66.667
		s-0.332-57.001-0.666-65.667S646.087,275.129,649.754,274.463z"/>
	<path fill="#79D7EF" d="M663.755,275.796c2.994,0.187,5,8.667,5.333,13.667s-1.666,43.667-1.333,51.333s0.667,25.999,1,31.333
		s1.999,18.334,0.666,22.334s-7.999,8.666-9.666,0.333s0.666-40.666,0.333-44.333s-2.333-18.001-2-35.334
		S658.422,275.463,663.755,275.796z"/>
	<path fill="#95E1F4" d="M684.421,274.13c4.333,0,7.001,15.667,7.334,24.333s1.666,28.666,0.666,39.333s0,19.666,0,32.333
		s1.667,49.001,0.667,54.334s-0.667,15.5,0,22.333c0.584,5.979-0.333,22-2.333,22.667s-12.001,1-13.334-1s0.666-34.666,0-46.333
		s1-23.333,1-39s-2-25.001-2-44.334s0.667-36.666,1-46S681.421,274.13,684.421,274.13z"/>
	<path fill="#5BC7E9" d="M704.088,276.13c3.666,0,5.998,15.665,5.999,28.666s1.335,57.666,1.001,72s0.666,59,0.333,66.667
		s-3.667,16.667-3.667,16.667l-7.666,0.333c0,0-1-11.999,0-27.333s1.668-56.667,1.334-73.667s-3.334-36.334-3.001-48.667
		s0.666-29.667,2.333-32.667S704.088,276.13,704.088,276.13z"/>
	<path fill="#54C3E7" d="M722.088,276.13c3.994,0.21,6.667,10.333,6.667,30.333s0.999,70,0.999,78s-2,60.667-2,60.667
		s-6.334,3.667-10-2c0,0,0-42,0-61s0.334-47.999-0.333-66.333S715.755,275.796,722.088,276.13z"/>
	<path fill="#8FE0F3" d="M361.754,506.463c2.985-0.299,10.666,5.667,21,11.667s16,9,19.333,9s11.667,0,13.667,0s2.333-3.667,6-1.667
		s8,6.666,7.667,8.333s-1,5.667-6.333,5.667s-28.667,0-31.667,0s-7.333-9.333-10.667-12.333s-7.333-3-7.333,1.333
		s0,7.667-2.333,7.667s-4,1-4.333-3.667s-1.001-6.332-5.334-11.666S355.088,507.13,361.754,506.463z"/>
	<path fill="#6ACFED" d="M469.088,518.463c3.333,0,12.666,6.666,25.333,8.333s17.667,0.333,23-5c0,0,15,5.667,22.333,8.667
		s6,7.667,1.333,7.667s-62.667,0-68.333,0s-10.667-4.668-11-10.334S465.421,518.463,469.088,518.463z"/>
	<path fill="#6ACFED" d="M680.088,508.463c0,0,20.667,1.666,28,0.666c1.333,5,7,10.334,10,11.667s23.333,5.666,24,9.333
		s-1.334,8-8.667,8s-38.332,0-44.666,0s-11-3.666-12-12.666S680.088,508.463,680.088,508.463z"/>
	<path fill="#6BD0ED" d="M573.088,506.796h18.333v4h-9.333c0,0,6,4.667,10.333,8.667s8,9,16,9s11.667-2.666,13.333-4
		s7,2.999,10,5.666s2.666,8.667-3.667,8.667s-18.333,0-23,0s-6.333-2.667-11.667-9s-10.667-7.334-10.667-2.667
		s-1.333,9.667-1.333,9.667h-3.333c0,0,0-6.001-1-8.667s-6.001-5.666-6.334-10.666S573.088,506.796,573.088,506.796z"/>
	<rect x="324.417" y="103.133" fill="#6BD0ED" width="462.667" height="21.333"/>
</g>
<g>
	<rect x="1144.141" y="119.796" fill="#6FD2EE" width="118.093" height="438.666"/>
	<rect x="1144.141" y="126.464" fill="#63CCEB" width="118.093" height="7.333"/>
	<rect x="1161.474" y="214.464" fill="#5EC9EA" width="100.76" height="272.666"/>
	<rect x="1161.474" y="126.464" fill="#5EC9EA" width="100.76" height="74.666"/>
	<rect x="1161.474" y="126.464" fill="#56C4E8" width="100.76" height="7.333"/>
	<rect x="1161.474" y="213.734" fill="#56C4E8" width="100.76" height="4.125"/>
	<rect x="1161.474" y="497.797" fill="#5EC9EA" width="100.76" height="42.666"/>
	<rect x="1161.474" y="497.942" fill="#56C4E8" width="100.76" height="5.041"/>
	<path fill="#8BDDF2" d="M1262.232,255.463h-79.563c-0.979-1.716-2.823-2.875-4.939-2.875c-3.143,0-5.688,2.547-5.688,5.688
		c0,3.142,2.547,5.688,5.688,5.688c2.169,0,4.054-1.215,5.014-3.001h79.49L1262.232,255.463L1262.232,255.463z"/>
	<g>
		<path fill="#A7E7F6" d="M1234.974,277.463h-3v-11.482l0.902-0.394c1.835-0.801,6.598-3.597,6.598-6.875c0-4.123-2.979-6-5.75-6
			c-2.889,0-5,1.809-5,2.75h-3c0-3.009,3.812-5.75,8-5.75c4.242,0,8.75,3.154,8.75,9c0,4.807-5.319,8.059-7.5,9.189V277.463z"/>
	</g>
	<path fill="#A7E7F6" d="M1262.232,253.544c-1.677-2.507-4.52-3.831-7.26-3.831c-4.188,0-8,2.741-8,5.75h3
		c0-0.941,2.111-2.75,5-2.75c2.771,0,5.75,1.877,5.75,6c0,3.278-4.763,6.074-6.598,6.875l-0.902,0.394v11.482h3v-9.561
		c1.446-0.75,4.27-2.439,6.01-4.892V253.544z"/>
	<path fill="#6BD0ED" d="M1211.808,397.796l50.426,1.299V274.627c-2.652,0.718-6.573,1.502-11.094,1.502
		c-8.333,0-12.666-2.667-12.666-2.667l-0.334,11.667l-11.332,5c0,0,0,0-6.334,3.333s-9.666,6.333-11,10.667s-8,42-9,46.333
		s-15.666,55.001-15.666,55.001h17.332c0,0,13.668-47.334,14.001-50.667s6.999-33.667,6.999-33.667s-0.332,23.667-0.666,30.667
		S1211.808,397.796,1211.808,397.796z"/>
	<g>
		<path fill="#78D7EF" d="M1255.474,159.463c0,1.657-1.344,3-3,3h-77.334c-1.655,0-3-1.343-3-3v-2.667c0-1.657,1.345-3,3-3h77.334
			c1.656,0,3,1.343,3,3V159.463z"/>
		<path fill="#95E1F4" d="M1255.474,168.669c0,1.912-1.344,3.461-3,3.461h-77.334c-1.655,0-3-1.55-3-3.461v-3.077
			c0-1.912,1.345-3.461,3-3.461h77.334c1.656,0,3,1.55,3,3.461V168.669z"/>
		<path fill="#5BC7E9" d="M1255.474,178.002c0,1.912-1.344,3.461-3,3.461h-77.334c-1.655,0-3-1.55-3-3.461v-3.077
			c0-1.912,1.345-3.461,3-3.461h77.334c1.656,0,3,1.55,3,3.461V178.002z"/>
		<path fill="#74D5EF" d="M1255.474,188.335c0,1.912-1.344,3.461-3,3.461h-77.334c-1.655,0-3-1.55-3-3.461v-3.077
			c0-1.912,1.345-3.461,3-3.461h77.334c1.656,0,3,1.55,3,3.461V188.335z"/>
		<path fill="#5CC8E9" d="M1255.474,197.668c0,1.912-1.344,3.461-3,3.461h-77.334c-1.655,0-3-1.55-3-3.461v-3.077
			c0-1.912,1.345-3.461,3-3.461h77.334c1.656,0,3,1.55,3,3.461V197.668z"/>
	</g>
	<path fill="#71D3EE" d="M1247.808,272.797c0,0-6.334,2.667-14.668,2.667c-8.333,0-12.666-2.667-12.666-2.667l-0.334,11.667
		l-11.332,5c0,0,0,0-6.334,3.333s-9.666,6.333-11,10.667s-8,42-9,46.333s-15.666,55.001-15.666,55.001h17.332
		c0,0,13.668-47.334,14.001-50.667s6.999-33.667,6.999-33.667s-0.332,23.667-0.666,30.667s-10.666,46-10.666,46l68.426,1.762V290.13
		c-7.164-3.042-13.426-5.667-13.426-5.667L1247.808,272.797z"/>
	<path fill="#8FE0F3" d="M1170.808,506.463c2.984-0.299,10.666,5.667,20.999,11.667s16,9,19.333,9c3.334,0,11.668,0,13.668,0
		s2.332-3.667,5.999-1.667s8.001,6.666,7.667,8.333s-1,5.667-6.334,5.667c-5.332,0-28.666,0-31.666,0s-7.333-9.333-10.666-12.333
		c-3.334-3-7.334-3-7.334,1.333s0,7.667-2.334,7.667c-2.332,0-4,1-4.332-3.667c-0.334-4.667-1.002-6.332-5.334-11.666
		C1166.14,515.463,1164.141,507.13,1170.808,506.463z"/>
	<rect x="1133.47" y="103.133" fill="#6BD0ED" width="128.763" height="21.333"/>
</g>
<g id="Layer_2">
	<g>
		<rect x="37.42" y="122.463" fill="#6FD2EE" width="222.667" height="270.667"/>
		<rect x="54.921" y="307.463" fill="#5EC9EA" width="186.5" height="79.5"/>
		<rect x="54.921" y="225.463" fill="#5EC9EA" width="186.5" height="70.5"/>
		<rect x="54.921" y="126.463" fill="#5EC9EA" width="186.5" height="86.5"/>
		<g>
			<rect x="64.754" y="344.462" fill="#51C1E7" width="44" height="39.334"/>
			<rect x="62.754" y="341.796" fill="#5BC7E9" width="44" height="39.334"/>
			<g>
				<path fill="#75D5EF" d="M94.087,345.63c-0.829,0-1.5-0.672-1.5-1.5v-11.5c0-4.779-3.888-8.667-8.667-8.667
					c-4.779,0-8.667,3.888-8.667,8.667v11.5c0,0.828-0.671,1.5-1.5,1.5s-1.5-0.672-1.5-1.5v-11.5
					c0-6.434,5.234-11.667,11.667-11.667s11.667,5.233,11.667,11.667v11.5C95.587,344.958,94.916,345.63,94.087,345.63z"/>
			</g>
		</g>
		<g>
			<polygon fill="#51C1E7" points="237.421,362.13 220.421,329.796 161.088,329.796 145.088,362.13 145.088,384.463 
				237.421,384.463 			"/>
			<g>
				<rect x="199.781" y="319.571" fill="#96E1F4" width="12.91" height="12.242"/>
				<polygon fill="#6ACFED" points="236.088,359.13 219.088,326.796 159.754,326.796 143.754,359.13 143.754,381.463 
					236.088,381.463 				"/>
			</g>
		</g>
		<g>
			<rect x="168.421" y="245.713" fill="#7DD8F0" width="61.75" height="50.25"/>
			<rect x="162.671" y="237.713" fill="#75D5EF" width="71.25" height="9.25"/>
			<rect x="187.921" y="251.963" fill="#95E1F4" width="21.25" height="7.5"/>
		</g>
		<g>
			<rect x="64.754" y="275.797" fill="#56C4E8" width="85" height="20"/>
			<rect x="63.421" y="255.464" fill="#4FC0E6" width="87.666" height="22"/>
			<rect x="64.754" y="256.13" fill="#7AD7EF" width="85" height="15.333"/>
			<rect x="62.754" y="249.463" fill="#69CFEC" width="89" height="8"/>
			<rect x="62.754" y="238.713" fill="#5FC9EA" width="89" height="11.5"/>
		</g>
		<g>
			<g>
				<path fill="#4FC1E6" d="M166.512,192.069c-1.695-5.502-2.591-11.719-2.591-17.98c0-21.436,10.374-38.875,23.125-38.875
					s23.125,17.439,23.125,38.875c0,5.981-0.777,11.713-2.311,17.039l-2.883-0.83c1.456-5.056,2.193-10.509,2.193-16.209
					c0-19.782-9.028-35.875-20.125-35.875s-20.125,16.093-20.125,35.875c0,5.966,0.85,11.878,2.458,17.097L166.512,192.069z"/>
			</g>
			<path fill="#58C5E8" d="M214.671,210.213c0,1.657-1.343,3-3,3h-49.5c-1.657,0-3-1.343-3-3v-31.25c0-1.657,1.343-3,3-3h49.5
				c1.657,0,3,1.343,3,3V210.213z"/>
			<path fill="#7CD8F0" d="M211.671,175.963h-49.5c-1.657,0-3,1.343-3,3v4l25.254,16.629c1.171,1.171,3.071,1.171,4.242,0
				l25.633-16.879c0.076-0.076,0.203-0.187,0.371-0.327v-3.423C214.671,177.307,213.328,175.963,211.671,175.963z"/>
			<path fill="#57C5E8" d="M192.671,191.963c0,0.552-0.448,1-1,1h-9.75c-0.552,0-1-0.448-1-1v-3.5c0-0.552,0.448-1,1-1h9.75
				c0.552,0,1,0.448,1,1V191.963z"/>
		</g>
		<g>
			<g>
				<path fill="#4FC1E6" d="M130.671,209.713h-30.5c-2.481,0-4.5-2.019-4.5-4.5v-36.25c0-2.481,2.019-4.5,4.5-4.5h30.5
					c2.481,0,4.5,2.019,4.5,4.5v36.25C135.171,207.695,133.152,209.713,130.671,209.713z M100.171,167.463
					c-0.827,0-1.5,0.673-1.5,1.5v36.25c0,0.827,0.673,1.5,1.5,1.5h30.5c0.827,0,1.5-0.673,1.5-1.5v-36.25c0-0.827-0.673-1.5-1.5-1.5
					H100.171z"/>
			</g>
			<path fill="#8CDEF2" d="M147.171,208.463c0,2.761-2.239,5-5,5h-53c-2.761,0-5-2.239-5-5v-27.75c0-2.761,2.239-5,5-5h53
				c2.761,0,5,2.239,5,5V208.463z"/>
			<path fill="#68CFEC" d="M97.171,175.713v29.5c0,1.657,1.343,3,3,3h30.5c1.657,0,3-1.343,3-3v-29.5H97.171z"/>
			<path fill="#59C6E8" d="M118.171,210.963c0,1.104-0.896,2-2,2h-2.25c-1.104,0-2-0.896-2-2v-7.5c0-1.104,0.896-2,2-2h2.25
				c1.104,0,2,0.896,2,2V210.963z"/>
		</g>
		<rect x="37.42" y="122.463" fill="#63CCEB" width="222.667" height="11"/>
		<rect x="54.921" y="126.463" fill="#56C4E8" width="186.5" height="7"/>
		<rect x="54.921" y="225.276" fill="#56C4E8" width="186.5" height="4.375"/>
		<rect x="54.921" y="307.776" fill="#56C4E8" width="186.5" height="4.375"/>
		<rect x="23.421" y="102.963" fill="#6BD0ED" width="248" height="21.5"/>
	</g>
	<rect x="17.5" y="400" fill="#60CAEA" width="262" height="156.5"/>
	<rect x="17.5" y="400" fill="#56C4E8" width="262" height="15.463"/>
	<g>
		<rect x="37" y="480.5" fill="#56C4E8" width="106.5" height="65"/>
		<rect x="62.999" y="494" fill="#48BDE5" width="55.333" height="8"/>
		<rect x="62.999" y="492" fill="#ABE9F7" width="55.333" height="8"/>
	</g>
	<g>
		<rect x="152" y="480.5" fill="#56C4E8" width="106.5" height="65"/>
		<rect x="177.999" y="494" fill="#48BDE5" width="55.333" height="8"/>
		<rect x="177.999" y="492" fill="#ABE9F7" width="55.333" height="8"/>
	</g>
	<g>
		<rect x="37" y="411" fill="#94E0F4" width="106.5" height="65"/>
		<rect x="62.999" y="424.5" fill="#48BDE5" width="55.333" height="8"/>
		<rect x="62.999" y="422.5" fill="#C1EFF7" width="55.333" height="8"/>
	</g>
	<g>
		<rect x="152" y="411" fill="#94E0F4" width="106.5" height="65"/>
		<rect x="177.999" y="424.5" fill="#48BDE5" width="55.333" height="8"/>
		<rect x="177.999" y="422.5" fill="#C1EFF7" width="55.333" height="8"/>
	</g>
	<rect x="4" y="388" fill="#7DD8F0" width="287" height="13"/>
	<rect x="37" y="411" fill="#5ED0EF" width="106.5" height="4.463"/>
	<rect x="152" y="411" fill="#5ED0EF" width="106.5" height="4.463"/>
	<g>
		<rect x="847.88" y="122.463" fill="#6FD2EE" width="222.666" height="270.667"/>
		<rect x="865.38" y="307.463" fill="#5EC9EA" width="186.5" height="79.5"/>
		<rect x="865.38" y="225.463" fill="#5EC9EA" width="186.5" height="70.5"/>
		<rect x="865.38" y="126.463" fill="#5EC9EA" width="186.5" height="86.5"/>
		<g>
			<rect x="875.214" y="344.462" fill="#51C1E7" width="44" height="39.334"/>
			<rect x="873.214" y="341.796" fill="#5BC7E9" width="44" height="39.334"/>
			<g>
				<path fill="#75D5EF" d="M904.546,345.63c-0.828,0-1.5-0.672-1.5-1.5v-11.5c0-4.779-3.887-8.667-8.666-8.667
					s-8.667,3.888-8.667,8.667v11.5c0,0.828-0.671,1.5-1.5,1.5s-1.5-0.672-1.5-1.5v-11.5c0-6.434,5.233-11.667,11.667-11.667
					c6.435,0,11.666,5.233,11.666,11.667v11.5C906.046,344.958,905.375,345.63,904.546,345.63z"/>
			</g>
		</g>
		<g>
			<polygon fill="#51C1E7" points="1047.88,362.13 1030.88,329.796 971.547,329.796 955.547,362.13 955.547,384.463 
				1047.88,384.463 			"/>
			<g>
				<rect x="1010.239" y="319.571" fill="#96E1F4" width="12.91" height="12.242"/>
				<polygon fill="#6ACFED" points="1046.547,359.13 1029.547,326.796 970.214,326.796 954.214,359.13 954.214,381.463 
					1046.547,381.463 				"/>
			</g>
		</g>
		<g>
			<rect x="978.88" y="245.713" fill="#7DD8F0" width="61.75" height="50.25"/>
			<rect x="973.13" y="237.713" fill="#75D5EF" width="71.25" height="9.25"/>
			<rect x="998.38" y="251.963" fill="#95E1F4" width="21.25" height="7.5"/>
		</g>
		<g>
			<rect x="875.214" y="275.797" fill="#56C4E8" width="85" height="20"/>
			<rect x="873.88" y="255.464" fill="#4FC0E6" width="87.666" height="22"/>
			<rect x="875.214" y="256.13" fill="#7AD7EF" width="85" height="15.333"/>
			<rect x="873.214" y="249.463" fill="#69CFEC" width="89" height="8"/>
			<rect x="873.214" y="238.713" fill="#5FC9EA" width="89" height="11.5"/>
		</g>
		<g>
			<g>
				<path fill="#4FC1E6" d="M976.971,192.069c-1.693-5.502-2.591-11.719-2.591-17.98c0-21.436,10.374-38.875,23.125-38.875
					s23.125,17.439,23.125,38.875c0,5.981-0.776,11.713-2.311,17.039l-2.884-0.83c1.455-5.056,2.193-10.509,2.193-16.209
					c0-19.782-9.027-35.875-20.125-35.875s-20.125,16.093-20.125,35.875c0,5.966,0.85,11.878,2.458,17.097L976.971,192.069z"/>
			</g>
			<path fill="#58C5E8" d="M1025.13,210.213c0,1.657-1.344,3-3,3h-49.5c-1.656,0-3-1.343-3-3v-31.25c0-1.657,1.344-3,3-3h49.5
				c1.656,0,3,1.343,3,3V210.213z"/>
			<path fill="#7CD8F0" d="M1022.13,175.963h-49.5c-1.656,0-3,1.343-3,3v4l25.254,16.629c1.172,1.171,3.07,1.171,4.242,0
				l25.633-16.879c0.076-0.076,0.203-0.187,0.371-0.327v-3.423C1025.13,177.307,1023.786,175.963,1022.13,175.963z"/>
			<path fill="#57C5E8" d="M1003.13,191.963c0,0.552-0.447,1-1,1h-9.75c-0.553,0-1-0.448-1-1v-3.5c0-0.552,0.447-1,1-1h9.75
				c0.553,0,1,0.448,1,1V191.963z"/>
		</g>
		<g>
			<g>
				<path fill="#4FC1E6" d="M941.13,209.713h-30.5c-2.48,0-4.5-2.019-4.5-4.5v-36.25c0-2.481,2.02-4.5,4.5-4.5h30.5
					c2.481,0,4.5,2.019,4.5,4.5v36.25C945.63,207.695,943.611,209.713,941.13,209.713z M910.63,167.463c-0.827,0-1.5,0.673-1.5,1.5
					v36.25c0,0.827,0.673,1.5,1.5,1.5h30.5c0.827,0,1.5-0.673,1.5-1.5v-36.25c0-0.827-0.673-1.5-1.5-1.5H910.63z"/>
			</g>
			<path fill="#8CDEF2" d="M957.63,208.463c0,2.761-2.238,5-5,5h-53c-2.762,0-5-2.239-5-5v-27.75c0-2.761,2.238-5,5-5h53
				c2.762,0,5,2.239,5,5V208.463z"/>
			<path fill="#68CFEC" d="M907.63,175.713v29.5c0,1.657,1.344,3,3,3h30.5c1.656,0,3-1.343,3-3v-29.5H907.63z"/>
			<path fill="#59C6E8" d="M928.63,210.963c0,1.104-0.896,2-2,2h-2.25c-1.104,0-2-0.896-2-2v-7.5c0-1.104,0.896-2,2-2h2.25
				c1.104,0,2,0.896,2,2V210.963z"/>
		</g>
		<rect x="847.88" y="122.463" fill="#63CCEB" width="222.666" height="11"/>
		<rect x="865.38" y="126.463" fill="#56C4E8" width="186.5" height="7"/>
		<rect x="865.38" y="224.276" fill="#56C4E8" width="186.5" height="4.375"/>
		<rect x="865.38" y="307.276" fill="#56C4E8" width="186.5" height="4.375"/>
		<rect x="833.88" y="102.963" fill="#6BD0ED" width="248" height="21.5"/>
	</g>
	<rect x="827.959" y="400" fill="#60CAEA" width="262" height="156.5"/>
	<rect x="827.959" y="400" fill="#56C4E8" width="262" height="15.463"/>
	<g>
		<rect x="847.459" y="480.5" fill="#56C4E8" width="106.5" height="65"/>
		<rect x="873.458" y="494" fill="#48BDE5" width="55.333" height="8"/>
		<rect x="873.458" y="492" fill="#ABE9F7" width="55.333" height="8"/>
	</g>
	<g>
		<rect x="962.459" y="480.5" fill="#56C4E8" width="106.5" height="65"/>
		<rect x="988.458" y="494" fill="#48BDE5" width="55.333" height="8"/>
		<rect x="988.458" y="492" fill="#ABE9F7" width="55.333" height="8"/>
	</g>
	<g>
		<rect x="847.459" y="411" fill="#94E0F4" width="106.5" height="65"/>
		<rect x="873.458" y="424.5" fill="#48BDE5" width="55.333" height="8"/>
		<rect x="873.458" y="422.5" fill="#C1EFF7" width="55.333" height="8"/>
	</g>
	<g>
		<rect x="962.459" y="411" fill="#94E0F4" width="106.5" height="65"/>
		<rect x="988.458" y="424.5" fill="#48BDE5" width="55.333" height="8"/>
		<rect x="988.458" y="422.5" fill="#C1EFF7" width="55.333" height="8"/>
	</g>
	<rect x="814.459" y="388" fill="#7DD8F0" width="287" height="13"/>
	<rect x="847.459" y="411" fill="#5ED0EF" width="106.5" height="4.463"/>
	<rect x="962.459" y="411" fill="#5ED0EF" width="106.5" height="4.463"/>
	<rect y="551.079" fill="#4AB7DB" width="1262.232" height="36.848"/>
</g>
<g>
	<path fill="#EEBA94" d="M938.421,559.984l-16-31c0,0-52.5-15.5-79-77c0,0-12.5-5.5-18-20c0,0-33.5-17.5-43-30
		c1.5-13,18-34.5,18-34.5s-21-12-30-27.5c4.5-16.5,16-32.5,16-32.5l-20.5-24l179.5,4.5c0,0,22.5,15.5,36,29s55,96,55,96l26,63
		l-4,73.5L938.421,559.984z"/>
	<path fill="#F5D4A9" d="M809.921,199.234c0,0-30.5-17-40-22.5s-22-7-29.5,3s-6.25,24.25,9.5,34.75s59.75,37,59.75,37
		L809.921,199.234z"/>
	<g>
		<path fill="#EEC39C" d="M778.671,221.234c-0.274,0-0.546-0.112-0.744-0.331c-0.37-0.411-0.336-1.043,0.074-1.412
			c9.618-8.656,11.164-19.041,11.179-19.145c0.076-0.548,0.582-0.931,1.129-0.852c0.547,0.076,0.928,0.582,0.852,1.128
			c-0.063,0.454-1.668,11.216-11.821,20.355C779.148,221.149,778.91,221.234,778.671,221.234z"/>
	</g>
	<path fill="#286D8A" d="M949.421,381.484c0,7.18-5.819,13-13,13h-123c-7.181,0-13-5.82-13-13v-243.5c0-7.18,5.819-13,13-13h123
		c7.181,0,13,5.82,13,13V381.484z"/>
	<path fill="#FFFFFF" d="M943.921,350.484c0,2.762-2.237,5-5,5h-128.5c-2.761,0-5-2.238-5-5v-189c0-2.761,2.239-5,5-5h128.5
		c2.763,0,5,2.239,5,5V350.484z"/>
	<path fill="#F5D4A9" d="M958.921,473.484c0,0-32-38.5-23.5-78.5s38.5-65,38.5-65s0-10.5,3-16c-8.5-8.5-17-42-17.5-56.5
		c0,0-21-11-23-41.5s12-40.5,17.5-41.5c4,9.5,19.5,32.5,19.5,32.5s4,4.5,6,6s15.5,7.5,20,16s36.5,74,40.5,87s9.5,50-1,94
		s-53,82-53,82s31-26,44-31.5s21.5-1,28,4.5l16.5,39l-106,45c0,0,0-24.5,5-40.5c0,0-17.5,11-41,5s-53.5-22.5-66-51
		s-3.5-44.5-3.5-44.5s-7,5.5-8,8.5s-12-9.5-14-18.5s-4.5-13-4.5-13h83.5c0,0,1,25.5,15.5,49S958.921,473.484,958.921,473.484z"/>
	<path fill="#F5D4A9" d="M803.171,368.234c9.5,3,30.5,10.75,36,15.5s8.25,13.25,4.5,23s-12.5,15.25-21.5,12.5s-25.25-9-33.5-13
		s-17.5-11.5-12-25.5S791.084,364.418,803.171,368.234z"/>
	<path fill="#F5D4A9" d="M790.421,307.234c5.509,1.723,21.5,11.5,27,16.75s13.5,16,5,28.5s-16.5,11.5-29.75,5.25
		s-25.75-15.25-29.5-21.75s-3-16.75,4.5-23.75S782.421,304.734,790.421,307.234z"/>
	<path fill="#F5D4A9" d="M788.171,252.234c7.196,3.875,19.25,10.75,22.75,16.25s5,15.25-0.25,23.5s-15.25,13-26,8.5
		s-23.75-14.75-26.25-22.75s2.25-18.75,9.25-24.25S784.921,250.484,788.171,252.234z"/>
	<path fill="#E05D02" d="M930.088,217.317c0-16.798-13.65-30.466-30.439-30.499c-5.328-9.149-15.188-15.002-26.061-15.002
		c-10.966,0-20.785,5.775-26.115,15.039c-0.406-0.016-0.812-0.038-1.218-0.038c-16.817,0-30.5,13.682-30.5,30.5
		s13.683,30.5,30.5,30.5l53.996-0.017C916.762,247.446,930.088,233.914,930.088,217.317z M899.588,238.817h-53.333
		c-11.854,0-21.5-9.645-21.5-21.5s9.646-21.5,21.5-21.5c3.592,0,7.146,0.902,10.274,2.608l4.308-7.902
		c-1.229-0.671-2.51-1.245-3.821-1.738c3.937-4.972,9.956-7.968,16.573-7.968c6.396,0,12.293,2.89,16.238,7.604
		c-1.817,0.613-3.579,1.393-5.253,2.341l4.437,7.831c3.207-1.816,6.865-2.776,10.578-2.776c11.854,0,21.5,9.645,21.5,21.5
		S911.441,238.817,899.588,238.817z"/>
	<g>
		<path fill="#292929" d="M886.421,238.817h-40.167c-11.855,0-21.5-9.645-21.5-21.5s9.645-21.5,21.5-21.5
			c3.592,0,7.145,0.902,10.273,2.608l4.309-7.902c-1.23-0.671-2.51-1.245-3.821-1.738c3.937-4.972,9.956-7.968,16.573-7.968
			c4.753,0,9.229,1.598,12.833,4.352v-10.461c-3.933-1.857-8.291-2.891-12.833-2.891c-10.966,0-20.785,5.775-26.115,15.039
			c-0.406-0.016-0.812-0.038-1.218-0.038c-16.817,0-30.5,13.682-30.5,30.5s13.683,30.5,30.5,30.5l40.167-0.012L886.421,238.817
			L886.421,238.817z"/>
		<path fill="#292929" d="M886.421,194.024v-4.214c-0.625,0.298-1.244,0.611-1.847,0.953L886.421,194.024z"/>
	</g>
	<g>
		<g>
			<path fill="#47B72D" d="M848.335,313.351v4.977h-2.386v-4.793c-3.256,0-5.9-0.657-7.934-1.972v-3.99
				c0.887,0.78,2.098,1.434,3.635,1.961s2.97,0.791,4.299,0.791v-11.74c-3.362-1.621-5.541-3.115-6.535-4.483
				s-1.491-2.985-1.491-4.85c0-2.216,0.757-4.131,2.271-5.745c1.515-1.613,3.433-2.58,5.756-2.901v-4.127h2.386v4.036
				c2.997,0.092,5.067,0.52,6.215,1.284v3.898c-1.56-1.223-3.631-1.88-6.215-1.972v12.109c3.181,1.514,5.354,2.978,6.524,4.391
				c1.168,1.414,1.754,3.023,1.754,4.828c0,2.17-0.73,3.994-2.19,5.469C852.963,311.993,850.934,312.938,848.335,313.351z
				 M845.949,294.547v-10.688c-1.283,0.26-2.301,0.83-3.049,1.708c-0.75,0.879-1.125,1.946-1.125,3.199
				c0,1.315,0.307,2.393,0.918,3.233C843.305,292.841,844.391,293.69,845.949,294.547z M848.335,299.774v10.364
				c2.951-0.641,4.426-2.231,4.426-4.77C852.761,303.26,851.286,301.396,848.335,299.774z"/>
		</g>
		<g>
			<path fill="#47B72D" d="M875.835,313.351v4.977h-2.386v-4.793c-3.256,0-5.9-0.657-7.934-1.972v-3.99
				c0.887,0.78,2.098,1.434,3.635,1.961s2.97,0.791,4.299,0.791v-11.74c-3.362-1.621-5.541-3.115-6.535-4.483
				s-1.491-2.985-1.491-4.85c0-2.216,0.757-4.131,2.271-5.745c1.515-1.613,3.433-2.58,5.756-2.901v-4.127h2.386v4.036
				c2.997,0.092,5.067,0.52,6.215,1.284v3.898c-1.56-1.223-3.631-1.88-6.215-1.972v12.109c3.18,1.514,5.354,2.978,6.524,4.391
				c1.168,1.414,1.754,3.023,1.754,4.828c0,2.17-0.73,3.994-2.19,5.469C880.463,311.993,878.434,312.938,875.835,313.351z
				 M873.449,294.547v-10.688c-1.283,0.26-2.301,0.83-3.049,1.708c-0.75,0.879-1.125,1.946-1.125,3.199
				c0,1.315,0.307,2.393,0.918,3.233C870.805,292.841,871.891,293.69,873.449,294.547z M875.835,299.774v10.364
				c2.951-0.641,4.426-2.231,4.426-4.77C880.261,303.26,878.786,301.396,875.835,299.774z"/>
		</g>
		<g>
			<path fill="#47B72D" d="M903.335,313.351v4.977h-2.386v-4.793c-3.256,0-5.9-0.657-7.934-1.972v-3.99
				c0.887,0.78,2.098,1.434,3.635,1.961s2.97,0.791,4.299,0.791v-11.74c-3.362-1.621-5.541-3.115-6.535-4.483
				s-1.491-2.985-1.491-4.85c0-2.216,0.757-4.131,2.271-5.745c1.515-1.613,3.433-2.58,5.756-2.901v-4.127h2.386v4.036
				c2.997,0.092,5.067,0.52,6.215,1.284v3.898c-1.56-1.223-3.631-1.88-6.215-1.972v12.109c3.18,1.514,5.354,2.978,6.524,4.391
				c1.168,1.414,1.754,3.023,1.754,4.828c0,2.17-0.73,3.994-2.19,5.469C907.963,311.993,905.934,312.938,903.335,313.351z
				 M900.949,294.547v-10.688c-1.283,0.26-2.301,0.83-3.049,1.708c-0.75,0.879-1.125,1.946-1.125,3.199
				c0,1.315,0.307,2.393,0.918,3.233C898.305,292.841,899.391,293.69,900.949,294.547z M903.335,299.774v10.364
				c2.951-0.641,4.426-2.231,4.426-4.77C907.761,303.26,906.286,301.396,903.335,299.774z"/>
		</g>
	</g>
	<path fill="#EEC39C" d="M831.254,385.984c0,0,4.667,15-10.333,29.667c-15.667-7-23-16.001-21.667-21.667s4.666-9.998,6.333-11.332
		s5.667-2.334,11.333-1.001S831.254,385.984,831.254,385.984z"/>
	<path fill="#EEC39C" d="M811.588,325.984c0,0-3.333,3-9,14.333s-6.333,17-6.333,17s-9-7.001-13.667-12.334s-8-12-6.333-15.667
		s3.333-6.332,5.666-8.332s5.667-2.667,10.333-1.667S811.588,325.984,811.588,325.984z"/>
	<path fill="#EEC39C" d="M798.921,265.317c0,0-5.667,6.333-9.667,15s-6,16.333-6,16.333s-5.333-4.333-9.333-9s-4-4.666-4-4.666
		s-5-9-3-13s3.667-6,4.667-8s6-4.333,12.667-2.333S798.921,265.317,798.921,265.317z"/>
	<path fill="#EEC39C" d="M975.921,209.317c0,0-18.999-35.333-19.666-36.333s-4.668,1.333-5.334,2.667s1,9.333,6,18.333
		s8.666,13.667,12,14.667S975.921,209.317,975.921,209.317z"/>
	<polygon fill="#DE4944" points="1138.921,587.926 935.921,587.926 924.921,560.984 1089.921,493.484 	"/>
	<path fill="#4D819A" d="M891.921,379.984c0,1.657-1.343,3-3,3h-28.5c-1.657,0-3-1.343-3-3v-10c0-1.657,1.343-3,3-3h28.5
		c1.657,0,3,1.343,3,3V379.984z"/>
</g>
</svg>
