<?xml version="1.0" encoding="utf-8"?>
<!-- Generator: Adobe Illustrator 16.0.0, SVG Export Plug-In . SVG Version: 6.00 Build 0)  -->
<!DOCTYPE svg PUBLIC "-//W3C//DTD SVG 1.1//EN" "http://www.w3.org/Graphics/SVG/1.1/DTD/svg11.dtd">
<svg version="1.1" xmlns="http://www.w3.org/2000/svg" xmlns:xlink="http://www.w3.org/1999/xlink" x="0px" y="0px"
	 width="1261.842px" height="587.927px" viewBox="0 0 1261.842 587.927" enable-background="new 0 0 1261.842 587.927"
	 xml:space="preserve">
<g id="Layer_1">
	<image overflow="visible" width="1262" height="588" xlink:href="banner.png"  transform="matrix(0.9999 0 0 0.9999 0 0)">
	</image>
</g>
<g id="Layer_2">
	<rect x="13.5" y="400" fill="#60CAEA" width="262" height="156.5"/>
	<rect x="-4.378" y="551.078" fill="#4AB7DB" width="1276.437" height="47.997"/>
	<g>
		<rect x="33" y="480.5" fill="#56C4E8" width="106.5" height="65"/>
		<rect x="58.999" y="494" fill="#48BDE5" width="55.333" height="8"/>
		<rect x="58.999" y="492" fill="#ABE9F7" width="55.333" height="8"/>
	</g>
	<g>
		<rect x="148" y="480.5" fill="#56C4E8" width="106.5" height="65"/>
		<rect x="173.999" y="494" fill="#48BDE5" width="55.333" height="8"/>
		<rect x="173.999" y="492" fill="#ABE9F7" width="55.333" height="8"/>
	</g>
	<g>
		<rect x="33" y="411" fill="#94E0F4" width="106.5" height="65"/>
		<rect x="58.999" y="424.5" fill="#48BDE5" width="55.333" height="8"/>
		<rect x="58.999" y="422.5" fill="#C1EFF7" width="55.333" height="8"/>
	</g>
	<g>
		<rect x="148" y="411" fill="#94E0F4" width="106.5" height="65"/>
		<rect x="173.999" y="424.5" fill="#48BDE5" width="55.333" height="8"/>
		<rect x="173.999" y="422.5" fill="#C1EFF7" width="55.333" height="8"/>
	</g>
	<rect y="388" fill="#7DD8F0" width="287" height="13"/>
</g>
</svg>
