<?xml version="1.0" encoding="utf-8"?>
<!-- Generator: Adobe Illustrator 16.0.0, SVG Export Plug-In . SVG Version: 6.00 Build 0)  -->
<!DOCTYPE svg PUBLIC "-//W3C//DTD SVG 1.1//EN" "http://www.w3.org/Graphics/SVG/1.1/DTD/svg11.dtd">
<svg version="1.1" id="Layer_1" xmlns="http://www.w3.org/2000/svg" xmlns:xlink="http://www.w3.org/1999/xlink" x="0px" y="0px"
	 width="1261.721px" height="362px" viewBox="0 0 1261.721 362" enable-background="new 0 0 1261.721 362" xml:space="preserve">
<rect x="0" y="0.105" fill="#A4E6F6" width="1261.721" height="340.509"/>
<g>
	<g>
		<rect x="102.672" y="108.075" fill="#6FD2EE" width="118.902" height="144.592"/>
		<rect x="112.017" y="206.902" fill="#5EC9EA" width="99.589" height="42.47"/>
		<rect x="112.017" y="163.098" fill="#5EC9EA" width="99.589" height="37.661"/>
		<rect x="112.017" y="110.211" fill="#5EC9EA" width="99.589" height="46.209"/>
		<g>
			<rect x="117.268" y="226.669" fill="#51C1E7" width="23.496" height="21.012"/>
			<rect x="116.199" y="225.244" fill="#5BC7E9" width="23.495" height="21.012"/>
			<g>
				<path fill="#75D5EF" d="M132.931,227.291c-0.442,0-0.802-0.358-0.802-0.801v-6.143c0-2.554-2.075-4.631-4.627-4.631
					c-2.551,0-4.628,2.077-4.628,4.631v6.143c0,0.442-0.358,0.801-0.801,0.801s-0.802-0.358-0.802-0.801v-6.143
					c0-3.438,2.795-6.233,6.231-6.233c3.435,0,6.23,2.795,6.23,6.233v6.143C133.732,226.933,133.374,227.291,132.931,227.291z"/>
			</g>
		</g>
		<g>
			<polygon fill="#51C1E7" points="209.469,236.106 200.392,218.833 168.709,218.833 160.166,236.106 160.166,248.036 
				209.469,248.036 			"/>
			<g>
				<rect x="189.37" y="213.37" fill="#96E1F4" width="6.895" height="6.54"/>
				<polygon fill="#6ACFED" points="208.759,234.503 199.68,217.23 167.997,217.23 159.453,234.503 159.453,246.434 
					208.759,246.434 				"/>
			</g>
		</g>
		<g>
			<rect x="172.625" y="173.916" fill="#7DD8F0" width="32.974" height="26.843"/>
			<rect x="169.554" y="169.642" fill="#75D5EF" width="38.047" height="4.941"/>
			<rect x="183.038" y="177.254" fill="#95E1F4" width="11.346" height="4.006"/>
		</g>
		<g>
			<rect x="117.268" y="189.986" fill="#56C4E8" width="45.39" height="10.684"/>
			<rect x="116.556" y="179.125" fill="#4FC0E6" width="46.812" height="11.752"/>
			<rect x="117.268" y="179.48" fill="#7AD7EF" width="45.39" height="8.191"/>
			<rect x="116.199" y="175.918" fill="#69CFEC" width="47.525" height="4.273"/>
			<rect x="116.199" y="170.176" fill="#5FC9EA" width="47.525" height="6.144"/>
		</g>
		<g>
			<g>
				<path fill="#4FC1E6" d="M171.605,145.258c-0.904-2.939-1.383-6.26-1.383-9.604c0-11.451,5.539-20.767,12.348-20.767
					s12.349,9.316,12.349,20.767c0,3.195-0.415,6.257-1.234,9.103l-1.54-0.443c0.778-2.701,1.172-5.614,1.172-8.659
					c0-10.567-4.821-19.165-10.747-19.165c-5.927,0-10.747,8.597-10.747,19.165c0,3.187,0.454,6.345,1.313,9.134L171.605,145.258z"
					/>
			</g>
			<path fill="#58C5E8" d="M197.322,154.951c0,0.885-0.716,1.602-1.602,1.602h-26.433c-0.885,0-1.602-0.717-1.602-1.602v-16.694
				c0-0.885,0.717-1.603,1.602-1.603h26.433c0.885,0,1.602,0.718,1.602,1.603V154.951z"/>
			<path fill="#7CD8F0" d="M195.72,136.655h-26.433c-0.885,0-1.602,0.718-1.602,1.603v2.136l13.485,8.883
				c0.625,0.625,1.641,0.625,2.266,0l13.688-9.017c0.041-0.041,0.108-0.1,0.197-0.174v-1.829
				C197.322,137.373,196.605,136.655,195.72,136.655z"/>
			<path fill="#57C5E8" d="M185.573,145.202c0,0.295-0.24,0.535-0.534,0.535h-5.206c-0.294,0-0.535-0.239-0.535-0.535v-1.87
				c0-0.294,0.24-0.534,0.535-0.534h5.206c0.294,0,0.534,0.239,0.534,0.534V145.202z"/>
		</g>
		<g>
			<g>
				<path fill="#4FC1E6" d="M152.467,154.685H136.18c-1.326,0-2.402-1.079-2.402-2.404v-19.366c0-1.325,1.078-2.404,2.402-2.404
					h16.287c1.325,0,2.402,1.079,2.402,2.404v19.365C154.869,153.605,153.792,154.685,152.467,154.685z M136.18,132.114
					c-0.442,0-0.802,0.36-0.802,0.801v19.365c0,0.441,0.36,0.801,0.802,0.801h16.287c0.441,0,0.801-0.359,0.801-0.801v-19.366
					c0-0.441-0.36-0.801-0.801-0.801L136.18,132.114L136.18,132.114z"/>
			</g>
			<path fill="#8CDEF2" d="M161.278,154.016c0,1.476-1.196,2.671-2.67,2.671h-28.301c-1.474,0-2.67-1.196-2.67-2.671v-14.824
				c0-1.474,1.197-2.671,2.67-2.671h28.301c1.475,0,2.67,1.197,2.67,2.671V154.016z"/>
			<path fill="#68CFEC" d="M134.578,136.521v15.759c0,0.886,0.716,1.603,1.602,1.603h16.287c0.885,0,1.602-0.717,1.602-1.603
				v-15.759H134.578z"/>
			<path fill="#59C6E8" d="M145.791,155.352c0,0.59-0.479,1.069-1.067,1.069h-1.202c-0.589,0-1.067-0.479-1.067-1.069v-4.006
				c0-0.59,0.478-1.069,1.067-1.069h1.202c0.588,0,1.067,0.479,1.067,1.069V155.352z"/>
		</g>
		<rect x="102.672" y="108.075" fill="#63CCEB" width="118.902" height="5.875"/>
		<rect x="112.017" y="110.211" fill="#56C4E8" width="99.589" height="3.739"/>
		<rect x="112.017" y="162.998" fill="#56C4E8" width="99.589" height="2.337"/>
		<rect x="112.017" y="207.07" fill="#56C4E8" width="99.589" height="2.337"/>
		<rect x="95.196" y="97.658" fill="#6BD0ED" width="132.43" height="11.485"/>
	</g>
	<rect x="92.035" y="256.336" fill="#60CAEA" width="139.905" height="83.604"/>
	<rect x="92.035" y="256.336" fill="#56C4E8" width="139.905" height="8.262"/>
	<g>
		<rect x="102.448" y="299.341" fill="#56C4E8" width="56.869" height="34.725"/>
		<rect x="116.33" y="306.553" fill="#48BDE5" width="29.548" height="4.274"/>
		<rect x="116.33" y="305.484" fill="#ABE9F7" width="29.548" height="4.273"/>
	</g>
	<g>
		<rect x="163.856" y="299.341" fill="#56C4E8" width="56.87" height="34.725"/>
		<rect x="177.74" y="306.553" fill="#48BDE5" width="29.547" height="4.274"/>
		<rect x="177.74" y="305.484" fill="#ABE9F7" width="29.547" height="4.273"/>
	</g>
	<g>
		<rect x="102.448" y="262.214" fill="#94E0F4" width="56.869" height="34.723"/>
		<rect x="116.33" y="269.426" fill="#48BDE5" width="29.548" height="4.273"/>
		<rect x="116.33" y="268.356" fill="#C1EFF7" width="29.548" height="4.274"/>
	</g>
	<g>
		<rect x="163.856" y="262.214" fill="#94E0F4" width="56.87" height="34.723"/>
		<rect x="177.74" y="269.426" fill="#48BDE5" width="29.547" height="4.273"/>
		<rect x="177.74" y="268.356" fill="#C1EFF7" width="29.547" height="4.274"/>
	</g>
	<rect x="84.825" y="249.925" fill="#7DD8F0" width="153.255" height="6.945"/>
	<rect x="102.448" y="262.214" fill="#5ED0EF" width="56.869" height="2.384"/>
	<rect x="163.856" y="262.214" fill="#5ED0EF" width="56.87" height="2.384"/>
</g>
<g>
	<g>
		<rect x="572.949" y="108.075" fill="#6FD2EE" width="118.903" height="144.592"/>
		<rect x="582.294" y="206.902" fill="#5EC9EA" width="99.591" height="42.47"/>
		<rect x="582.294" y="163.098" fill="#5EC9EA" width="99.591" height="37.661"/>
		<rect x="582.294" y="110.211" fill="#5EC9EA" width="99.591" height="46.209"/>
		<g>
			<rect x="587.545" y="226.669" fill="#51C1E7" width="23.495" height="21.012"/>
			<rect x="586.477" y="225.244" fill="#5BC7E9" width="23.496" height="21.012"/>
			<g>
				<path fill="#75D5EF" d="M603.208,227.291c-0.442,0-0.8-0.358-0.8-0.801v-6.143c0-2.554-2.077-4.631-4.627-4.631
					c-2.552,0-4.628,2.077-4.628,4.631v6.143c0,0.442-0.358,0.801-0.802,0.801c-0.442,0-0.801-0.358-0.801-0.801v-6.143
					c0-3.438,2.793-6.233,6.23-6.233c3.436,0,6.229,2.795,6.229,6.233v6.143C604.01,226.933,603.651,227.291,603.208,227.291z"/>
			</g>
		</g>
		<g>
			<polygon fill="#51C1E7" points="679.751,236.106 670.672,218.833 638.985,218.833 630.443,236.106 630.443,248.036 
				679.751,248.036 			"/>
			<g>
				<rect x="659.65" y="213.37" fill="#96E1F4" width="6.894" height="6.54"/>
				<polygon fill="#6ACFED" points="679.038,234.503 669.96,217.23 638.274,217.23 629.731,234.503 629.731,246.434 
					679.038,246.434 				"/>
			</g>
		</g>
		<g>
			<rect x="642.902" y="173.916" fill="#7DD8F0" width="32.977" height="26.843"/>
			<rect x="639.832" y="169.642" fill="#75D5EF" width="38.048" height="4.941"/>
			<rect x="653.317" y="177.254" fill="#95E1F4" width="11.348" height="4.006"/>
		</g>
		<g>
			<rect x="587.545" y="189.986" fill="#56C4E8" width="45.389" height="10.684"/>
			<rect x="586.833" y="179.125" fill="#4FC0E6" width="46.813" height="11.752"/>
			<rect x="587.545" y="179.48" fill="#7AD7EF" width="45.389" height="8.191"/>
			<rect x="586.477" y="175.918" fill="#69CFEC" width="47.524" height="4.273"/>
			<rect x="586.477" y="170.176" fill="#5FC9EA" width="47.524" height="6.144"/>
		</g>
		<g>
			<g>
				<path fill="#4FC1E6" d="M641.883,145.258c-0.903-2.939-1.383-6.26-1.383-9.604c0-11.451,5.541-20.767,12.351-20.767
					c6.811,0,12.35,9.316,12.35,20.767c0,3.195-0.416,6.257-1.235,9.103l-1.539-0.443c0.776-2.701,1.171-5.614,1.171-8.659
					c0-10.567-4.82-19.165-10.746-19.165c-5.927,0-10.749,8.597-10.749,19.165c0,3.187,0.454,6.345,1.313,9.134L641.883,145.258z"/>
			</g>
			<path fill="#58C5E8" d="M667.602,154.951c0,0.885-0.719,1.602-1.603,1.602h-26.436c-0.884,0-1.601-0.717-1.601-1.602v-16.694
				c0-0.885,0.717-1.603,1.601-1.603H666c0.884,0,1.603,0.718,1.603,1.603V154.951z"/>
			<path fill="#7CD8F0" d="M665.999,136.655h-26.435c-0.885,0-1.603,0.718-1.603,1.603v2.136l13.488,8.883
				c0.627,0.625,1.64,0.625,2.266,0l13.688-9.017c0.041-0.041,0.109-0.1,0.199-0.174v-1.829
				C667.602,137.373,666.884,136.655,665.999,136.655z"/>
			<path fill="#57C5E8" d="M655.854,145.202c0,0.295-0.238,0.535-0.534,0.535h-5.206c-0.297,0-0.533-0.239-0.533-0.535v-1.87
				c0-0.294,0.236-0.534,0.533-0.534h5.206c0.296,0,0.534,0.239,0.534,0.534V145.202z"/>
		</g>
		<g>
			<g>
				<path fill="#4FC1E6" d="M622.744,154.685h-16.287c-1.325,0-2.403-1.079-2.403-2.404v-19.366c0-1.325,1.079-2.404,2.403-2.404
					h16.287c1.325,0,2.403,1.079,2.403,2.404v19.365C625.147,153.605,624.069,154.685,622.744,154.685z M606.457,132.114
					c-0.442,0-0.801,0.36-0.801,0.801v19.365c0,0.441,0.359,0.801,0.801,0.801h16.287c0.441,0,0.802-0.359,0.802-0.801v-19.366
					c0-0.441-0.361-0.801-0.802-0.801L606.457,132.114L606.457,132.114z"/>
			</g>
			<path fill="#8CDEF2" d="M631.553,154.016c0,1.476-1.193,2.671-2.668,2.671h-28.301c-1.476,0-2.67-1.196-2.67-2.671v-14.824
				c0-1.474,1.194-2.671,2.67-2.671h28.301c1.476,0,2.668,1.197,2.668,2.671V154.016z"/>
			<path fill="#68CFEC" d="M604.855,136.521v15.759c0,0.886,0.717,1.603,1.602,1.603h16.287c0.884,0,1.602-0.717,1.602-1.603
				v-15.759H604.855z"/>
			<path fill="#59C6E8" d="M616.069,155.352c0,0.59-0.479,1.069-1.068,1.069H613.8c-0.59,0-1.068-0.479-1.068-1.069v-4.006
				c0-0.59,0.478-1.069,1.068-1.069h1.201c0.588,0,1.068,0.479,1.068,1.069V155.352z"/>
		</g>
		<rect x="572.949" y="108.075" fill="#63CCEB" width="118.903" height="5.875"/>
		<rect x="582.294" y="110.211" fill="#56C4E8" width="99.591" height="3.739"/>
		<rect x="582.294" y="162.464" fill="#56C4E8" width="99.591" height="2.337"/>
		<rect x="582.294" y="206.803" fill="#56C4E8" width="99.591" height="2.337"/>
		<rect x="565.474" y="97.658" fill="#6BD0ED" width="132.431" height="11.485"/>
	</g>
	<rect x="562.311" y="256.336" fill="#60CAEA" width="139.908" height="83.604"/>
	<rect x="562.311" y="256.336" fill="#56C4E8" width="139.908" height="8.262"/>
	<g>
		<rect x="572.724" y="299.341" fill="#56C4E8" width="56.869" height="34.725"/>
		<rect x="586.607" y="306.553" fill="#48BDE5" width="29.548" height="4.274"/>
		<rect x="586.607" y="305.484" fill="#ABE9F7" width="29.548" height="4.273"/>
	</g>
	<g>
		<rect x="634.133" y="299.341" fill="#56C4E8" width="56.872" height="34.725"/>
		<rect x="648.018" y="306.553" fill="#48BDE5" width="29.547" height="4.274"/>
		<rect x="648.018" y="305.484" fill="#ABE9F7" width="29.547" height="4.273"/>
	</g>
	<g>
		<rect x="572.724" y="262.214" fill="#94E0F4" width="56.869" height="34.723"/>
		<rect x="586.607" y="269.426" fill="#48BDE5" width="29.548" height="4.273"/>
		<rect x="586.607" y="268.356" fill="#C1EFF7" width="29.548" height="4.274"/>
	</g>
	<g>
		<rect x="634.133" y="262.214" fill="#94E0F4" width="56.872" height="34.723"/>
		<rect x="648.018" y="269.426" fill="#48BDE5" width="29.547" height="4.273"/>
		<rect x="648.018" y="268.356" fill="#C1EFF7" width="29.547" height="4.274"/>
	</g>
	<rect x="555.103" y="249.925" fill="#7DD8F0" width="153.256" height="6.945"/>
	<rect x="572.724" y="262.214" fill="#5ED0EF" width="56.869" height="2.384"/>
	<rect x="634.133" y="262.214" fill="#5ED0EF" width="56.872" height="2.384"/>
</g>
<g>
	<g>
		<rect x="1043.955" y="108.075" fill="#6FD2EE" width="118.901" height="144.592"/>
		<rect x="1053.3" y="206.902" fill="#5EC9EA" width="99.59" height="42.47"/>
		<rect x="1053.3" y="163.098" fill="#5EC9EA" width="99.59" height="37.661"/>
		<rect x="1053.3" y="110.211" fill="#5EC9EA" width="99.59" height="46.209"/>
		<g>
			<rect x="1058.552" y="226.669" fill="#51C1E7" width="23.494" height="21.012"/>
			<rect x="1057.483" y="225.244" fill="#5BC7E9" width="23.496" height="21.012"/>
			<g>
				<path fill="#75D5EF" d="M1074.214,227.291c-0.441,0-0.801-0.358-0.801-0.801v-6.143c0-2.554-2.076-4.631-4.627-4.631
					c-2.553,0-4.628,2.077-4.628,4.631v6.143c0,0.442-0.358,0.801-0.802,0.801c-0.442,0-0.801-0.358-0.801-0.801v-6.143
					c0-3.438,2.793-6.233,6.23-6.233c3.436,0,6.229,2.795,6.229,6.233v6.143C1075.015,226.933,1074.657,227.291,1074.214,227.291z"
					/>
			</g>
		</g>
		<g>
			<polygon fill="#51C1E7" points="1150.754,236.106 1141.675,218.833 1109.991,218.833 1101.448,236.106 1101.448,248.036 
				1150.754,248.036 			"/>
			<g>
				<rect x="1130.653" y="213.37" fill="#96E1F4" width="6.895" height="6.54"/>
				<polygon fill="#6ACFED" points="1150.041,234.503 1140.964,217.23 1109.28,217.23 1100.737,234.503 1100.737,246.434 
					1150.041,246.434 				"/>
			</g>
		</g>
		<g>
			<rect x="1113.908" y="173.916" fill="#7DD8F0" width="32.974" height="26.843"/>
			<rect x="1110.838" y="169.642" fill="#75D5EF" width="38.046" height="4.941"/>
			<rect x="1124.32" y="177.254" fill="#95E1F4" width="11.348" height="4.006"/>
		</g>
		<g>
			<rect x="1058.552" y="189.986" fill="#56C4E8" width="45.389" height="10.684"/>
			<rect x="1057.839" y="179.125" fill="#4FC0E6" width="46.814" height="11.752"/>
			<rect x="1058.552" y="179.48" fill="#7AD7EF" width="45.389" height="8.191"/>
			<rect x="1057.483" y="175.918" fill="#69CFEC" width="47.525" height="4.273"/>
			<rect x="1057.483" y="170.176" fill="#5FC9EA" width="47.525" height="6.144"/>
		</g>
		<g>
			<g>
				<path fill="#4FC1E6" d="M1112.889,145.258c-0.904-2.939-1.384-6.26-1.384-9.604c0-11.451,5.539-20.767,12.349-20.767
					s12.35,9.316,12.35,20.767c0,3.195-0.416,6.257-1.236,9.103l-1.539-0.443c0.777-2.701,1.172-5.614,1.172-8.659
					c0-10.567-4.82-19.165-10.746-19.165c-5.928,0-10.746,8.597-10.746,19.165c0,3.187,0.453,6.345,1.312,9.134L1112.889,145.258z"
					/>
			</g>
			<path fill="#58C5E8" d="M1138.606,154.951c0,0.885-0.719,1.602-1.604,1.602h-26.432c-0.885,0-1.602-0.717-1.602-1.602v-16.694
				c0-0.885,0.717-1.603,1.602-1.603h26.432c0.885,0,1.604,0.718,1.604,1.603V154.951z"/>
			<path fill="#7CD8F0" d="M1137.003,136.655h-26.433c-0.885,0-1.603,0.718-1.603,1.603v2.136l13.486,8.883
				c0.626,0.625,1.639,0.625,2.266,0l13.688-9.017c0.041-0.041,0.108-0.1,0.199-0.174v-1.829
				C1138.606,137.373,1137.887,136.655,1137.003,136.655z"/>
			<path fill="#57C5E8" d="M1126.857,145.202c0,0.295-0.238,0.535-0.534,0.535h-5.206c-0.296,0-0.533-0.239-0.533-0.535v-1.87
				c0-0.294,0.237-0.534,0.533-0.534h5.206c0.296,0,0.534,0.239,0.534,0.534V145.202z"/>
		</g>
		<g>
			<g>
				<path fill="#4FC1E6" d="M1093.75,154.685h-16.286c-1.325,0-2.404-1.079-2.404-2.404v-19.366c0-1.325,1.079-2.404,2.404-2.404
					h16.286c1.325,0,2.403,1.079,2.403,2.404v19.365C1096.153,153.605,1095.075,154.685,1093.75,154.685z M1077.464,132.114
					c-0.442,0-0.802,0.36-0.802,0.801v19.365c0,0.441,0.359,0.801,0.802,0.801h16.286c0.44,0,0.802-0.359,0.802-0.801v-19.366
					c0-0.441-0.361-0.801-0.802-0.801L1077.464,132.114L1077.464,132.114z"/>
			</g>
			<path fill="#8CDEF2" d="M1102.559,154.016c0,1.476-1.193,2.671-2.668,2.671h-28.302c-1.476,0-2.67-1.196-2.67-2.671v-14.824
				c0-1.474,1.194-2.671,2.67-2.671h28.302c1.475,0,2.668,1.197,2.668,2.671V154.016z"/>
			<path fill="#68CFEC" d="M1075.861,136.521v15.759c0,0.886,0.718,1.603,1.603,1.603h16.286c0.884,0,1.603-0.717,1.603-1.603
				v-15.759H1075.861z"/>
			<path fill="#59C6E8" d="M1087.075,155.352c0,0.59-0.479,1.069-1.068,1.069h-1.201c-0.59,0-1.068-0.479-1.068-1.069v-4.006
				c0-0.59,0.479-1.069,1.068-1.069h1.201c0.589,0,1.068,0.479,1.068,1.069V155.352z"/>
		</g>
		<rect x="1043.955" y="108.075" fill="#63CCEB" width="118.901" height="5.875"/>
		<rect x="1053.3" y="110.211" fill="#56C4E8" width="99.59" height="3.739"/>
		<rect x="1053.3" y="162.464" fill="#56C4E8" width="99.59" height="2.337"/>
		<rect x="1053.3" y="206.803" fill="#56C4E8" width="99.59" height="2.337"/>
		<rect x="1036.479" y="97.658" fill="#6BD0ED" width="132.43" height="11.485"/>
	</g>
	<rect x="1033.317" y="256.336" fill="#60CAEA" width="139.906" height="83.604"/>
	<rect x="1033.317" y="256.336" fill="#56C4E8" width="139.906" height="8.262"/>
	<g>
		<rect x="1043.73" y="299.341" fill="#56C4E8" width="56.869" height="34.725"/>
		<rect x="1057.613" y="306.553" fill="#48BDE5" width="29.548" height="4.274"/>
		<rect x="1057.613" y="305.484" fill="#ABE9F7" width="29.548" height="4.273"/>
	</g>
	<g>
		<rect x="1105.138" y="299.341" fill="#56C4E8" width="56.87" height="34.725"/>
		<rect x="1119.022" y="306.553" fill="#48BDE5" width="29.547" height="4.274"/>
		<rect x="1119.022" y="305.484" fill="#ABE9F7" width="29.547" height="4.273"/>
	</g>
	<g>
		<rect x="1043.73" y="262.214" fill="#94E0F4" width="56.869" height="34.723"/>
		<rect x="1057.613" y="269.426" fill="#48BDE5" width="29.548" height="4.273"/>
		<rect x="1057.613" y="268.356" fill="#C1EFF7" width="29.548" height="4.274"/>
	</g>
	<g>
		<rect x="1105.138" y="262.214" fill="#94E0F4" width="56.87" height="34.723"/>
		<rect x="1119.022" y="269.426" fill="#48BDE5" width="29.547" height="4.273"/>
		<rect x="1119.022" y="268.356" fill="#C1EFF7" width="29.547" height="4.274"/>
	</g>
	<rect x="1026.108" y="249.925" fill="#7DD8F0" width="153.254" height="6.945"/>
	<rect x="1043.73" y="262.214" fill="#5ED0EF" width="56.869" height="2.384"/>
	<rect x="1105.138" y="262.214" fill="#5ED0EF" width="56.87" height="2.384"/>
</g>
<g>
	<rect x="276.022" y="107.006" fill="#6FD2EE" width="234.956" height="233.27"/>
	<rect x="276.022" y="110.212" fill="#63CCEB" width="234.956" height="3.917"/>
	<rect x="285.277" y="157.222" fill="#5EC9EA" width="216.444" height="145.661"/>
	<rect x="285.277" y="110.212" fill="#5EC9EA" width="216.444" height="39.887"/>
	<rect x="285.277" y="110.212" fill="#56C4E8" width="216.444" height="3.917"/>
	<rect x="285.277" y="156.832" fill="#56C4E8" width="216.444" height="2.204"/>
	<rect x="285.277" y="308.581" fill="#5EC9EA" width="216.444" height="22.793"/>
	<rect x="285.277" y="308.659" fill="#56C4E8" width="216.444" height="2.692"/>
	<path fill="#8BDDF2" d="M491.664,177.588c-1.131,0-2.115,0.62-2.637,1.536H296.595c-0.522-0.917-1.508-1.536-2.637-1.536
		c-1.678,0-3.039,1.36-3.039,3.039c0,1.678,1.36,3.039,3.039,3.039c1.157,0,2.164-0.649,2.676-1.604h192.354
		c0.512,0.954,1.519,1.604,2.676,1.604c1.679,0,3.038-1.361,3.038-3.039C494.701,178.949,493.341,177.588,491.664,177.588z"/>
	<path fill="#9FE4F5" d="M435.729,191.077c0,0.627-0.508,1.135-1.135,1.135l0,0c-0.628,0-1.135-0.507-1.135-1.135v-13.622
		c0-0.627,0.507-1.135,1.135-1.135l0,0c0.626,0,1.135,0.508,1.135,1.135V191.077z"/>
	<path fill="#9FE4F5" d="M444.807,191.077c0,0.627-0.39,1.135-0.868,1.135l0,0c-0.478,0-0.868-0.507-0.868-1.135v-13.622
		c0-0.627,0.389-1.135,0.868-1.135l0,0c0.479,0,0.868,0.508,0.868,1.135V191.077z"/>
	<path fill="#9FE4F5" d="M452.015,191.077c0,0.627-0.389,1.135-0.867,1.135l0,0c-0.479,0-0.869-0.507-0.869-1.135v-13.622
		c0-0.627,0.389-1.135,0.869-1.135l0,0c0.479,0,0.867,0.508,0.867,1.135V191.077z"/>
	<path fill="#9FE4F5" d="M463.63,191.077c0,0.627-0.389,1.135-0.868,1.135l0,0c-0.479,0-0.868-0.507-0.868-1.135v-13.622
		c0-0.627,0.389-1.135,0.868-1.135l0,0c0.479,0,0.868,0.508,0.868,1.135V191.077z"/>
	<path fill="#9FE4F5" d="M473.776,191.077c0,0.627-0.389,1.135-0.868,1.135l0,0c-0.479,0-0.868-0.507-0.868-1.135v-13.622
		c0-0.627,0.388-1.135,0.868-1.135l0,0c0.479,0,0.868,0.508,0.868,1.135V191.077z"/>
	<path fill="#9FE4F5" d="M483.254,191.077c0,0.627-0.389,1.135-0.868,1.135l0,0c-0.479,0-0.868-0.507-0.868-1.135v-13.622
		c0-0.627,0.389-1.135,0.868-1.135l0,0c0.479,0,0.868,0.508,0.868,1.135V191.077z"/>
	<g>
		<path fill="#A7E7F6" d="M394.122,189.273h-1.602v-4.53l0.481-0.211c0.98-0.428,3.523-1.921,3.523-3.673
			c0-2.203-1.591-3.205-3.071-3.205c-1.543,0-2.669,0.966-2.669,1.469h-1.602c0-1.607,2.035-3.072,4.272-3.072
			c2.265,0,4.672,1.686,4.672,4.808c0,2.568-2.841,4.305-4.005,4.909V189.273L394.122,189.273z"/>
	</g>
	<g>
		<path fill="#A7E7F6" d="M374.965,192.496l-0.668-1.456c0.236-0.108,5.924-2.655,19.648-2.655c13.723,0,18.13,1.947,18.312,2.031
			l-0.667,1.458c-0.038-0.018-4.38-1.887-17.644-1.887C380.635,189.986,375.019,192.471,374.965,192.496z"/>
	</g>
	<path fill="#68CEEC" d="M375.788,190.075c0,0,14.418,8.28,17.222,8.28c2.803,0,19.624-8.947,19.624-8.947s2.804,0.667,3.738,4.808
		c0.935,4.14,10.413,51.952,10.413,51.952l-7.61-0.401l-9.478-39.932c0,0-2.002,17.36-1.869,22.17
		c0.133,4.808,5.073,10.416,4.539,22.302c-0.534,11.887-4.672,38.864-4.672,38.864s-3.872,1.87-11.481,1.87
		c-7.609,0-10.413-2.537-10.413-2.537s-6.942-29.383-8.277-38.197s0.801-16.56,0.267-22.57c-0.534-6.011-1.335-18.563-1.335-18.563
		l-2.537,35.658l-7.208-1.869c0,0,2.937-42.47,4.005-47.011C371.783,191.411,375.788,190.075,375.788,190.075z"/>
	<g>
		<path fill="#A7E7F6" d="M383.887,189.273h-1.602v-4.53l0.481-0.211c0.98-0.428,3.523-1.921,3.523-3.673
			c0-2.203-1.591-3.205-3.07-3.205c-1.543,0-2.67,0.966-2.67,1.469h-1.601c0-1.607,2.035-3.072,4.272-3.072
			c2.265,0,4.672,1.686,4.672,4.808c0,2.568-2.841,4.305-4.005,4.909L383.887,189.273L383.887,189.273z"/>
	</g>
	<g>
		<path fill="#A7E7F6" d="M364.729,192.496l-0.668-1.456c0.236-0.108,5.925-2.655,19.647-2.655c13.722,0,18.13,1.947,18.312,2.031
			l-0.667,1.458c-0.04-0.018-4.381-1.887-17.645-1.887C370.401,189.986,364.784,192.471,364.729,192.496z"/>
	</g>
	<path fill="#74D5EF" d="M364.842,190.476c0,0,14.417,8.28,17.221,8.28c2.803,0,19.624-8.947,19.624-8.947s2.804,0.668,3.739,4.808
		c0.934,4.14,10.413,51.951,10.413,51.951l-7.609-0.399l-9.479-39.934c0,0-2.002,17.362-1.869,22.17
		c0.133,4.808,5.073,10.416,4.539,22.303c-0.535,11.887-4.672,38.864-4.672,38.864s-3.872,1.869-11.481,1.869
		c-7.609,0-10.413-2.538-10.413-2.538s-6.943-29.382-8.277-38.196c-1.336-8.814,0.801-16.56,0.267-22.57
		c-0.534-6.01-1.335-18.563-1.335-18.563l-2.536,35.659l-7.21-1.87c0,0,2.937-42.47,4.005-47.01
		C360.837,191.811,364.842,190.476,364.842,190.476z"/>
	<g>
		<path fill="#A7E7F6" d="M324.526,190.876h-1.602v-6.134l0.481-0.211c0.98-0.428,3.523-1.921,3.523-3.672
			c0-2.203-1.591-3.206-3.07-3.206c-1.543,0-2.669,0.967-2.669,1.469h-1.602c0-1.607,2.035-3.072,4.272-3.072
			c2.265,0,4.672,1.685,4.672,4.808c0,2.568-2.841,4.305-4.005,4.909L324.526,190.876L324.526,190.876z"/>
	</g>
	<g>
		<path fill="#A7E7F6" d="M335.873,190.876h-1.602v-6.134l0.481-0.211c0.979-0.428,3.523-1.921,3.523-3.672
			c0-2.203-1.591-3.206-3.07-3.206c-1.543,0-2.67,0.967-2.67,1.469h-1.602c0-1.607,2.036-3.072,4.272-3.072
			c2.266,0,4.672,1.685,4.672,4.808c0,2.568-2.841,4.305-4.005,4.909L335.873,190.876L335.873,190.876z"/>
	</g>
	<g>
		<path fill="#A7E7F6" d="M346.686,190.876h-1.602v-6.134l0.481-0.211c0.98-0.428,3.524-1.921,3.524-3.672
			c0-2.203-1.591-3.206-3.071-3.206c-1.543,0-2.669,0.967-2.669,1.469h-1.602c0-1.607,2.036-3.072,4.271-3.072
			c2.265,0,4.672,1.685,4.672,4.808c0,2.568-2.841,4.305-4.004,4.909V190.876L346.686,190.876z"/>
	</g>
	<path fill="#5FC9EA" d="M339.388,195.328l0.177-6.232c0,0,2.314,1.425,6.765,1.425s7.832-1.425,7.832-1.425l0.534,6.232
		c0,0,16.554,6.944,18.156,7.835s1.247,5.697,1.425,8.726c0.177,3.027,0.89,15.85,1.067,18.163
		c0.178,2.314,4.984,29.916,4.984,29.916h-7.653c0,0-5.874-26.89-6.408-29.561c-0.534-2.671-1.602-16.025-1.602-16.025
		s-1.245,14.423-1.423,17.628c-0.179,3.206,3.56,24.573,3.56,24.573l-41.474-1.068c0,0,5.518-20.833,5.696-24.572
		s0.356-16.383,0.356-16.383s-3.559,16.205-3.738,17.984c-0.179,1.782-7.476,27.067-7.476,27.067h-9.255
		c0,0,7.832-27.067,8.365-29.382c0.534-2.315,4.095-22.437,4.806-24.751c0.712-2.315,2.492-3.917,5.874-5.698
		c3.381-1.782,3.381-1.781,3.381-1.781L339.388,195.328z"/>
	<path fill="#6BD0ED" d="M326.216,194.972l0.178-6.232c0,0,2.314,1.424,6.764,1.424s7.832-1.424,7.832-1.424l0.534,6.232
		c0,0,16.553,6.943,18.155,7.835c1.602,0.891,1.246,5.697,1.424,8.726c0.179,3.026,0.891,15.848,1.068,18.163
		c0.178,2.314,4.984,29.914,4.984,29.914h-7.653c0,0-5.874-26.888-6.408-29.558c-0.534-2.672-1.602-16.026-1.602-16.026
		s-1.246,14.424-1.424,17.628c-0.178,3.205,3.56,24.573,3.56,24.573l-41.474-1.068c0,0,5.519-20.834,5.697-24.572
		c0.177-3.739,0.355-16.383,0.355-16.383s-3.56,16.204-3.739,17.986c-0.177,1.78-7.475,27.064-7.475,27.064h-9.256
		c0,0,7.832-27.066,8.366-29.381c0.534-2.315,4.095-22.438,4.807-24.752s2.493-3.917,5.874-5.698c3.382-1.781,3.382-1.78,3.382-1.78
		L326.216,194.972z"/>
	<g>
		<path fill="#78D7EF" d="M335.472,127.841c0,0.885-0.717,1.602-1.602,1.602h-41.294c-0.885,0-1.602-0.717-1.602-1.602v-1.425
			c0-0.885,0.717-1.603,1.602-1.603h41.294c0.885,0,1.602,0.717,1.602,1.603V127.841z"/>
		<path fill="#95E1F4" d="M335.472,132.758c0,1.022-0.717,1.849-1.602,1.849h-41.294c-0.885,0-1.602-0.828-1.602-1.849v-1.644
			c0-1.021,0.717-1.849,1.602-1.849h41.294c0.885,0,1.602,0.829,1.602,1.849V132.758z"/>
		<path fill="#5BC7E9" d="M335.472,137.744c0,1.022-0.717,1.849-1.602,1.849h-41.294c-0.885,0-1.602-0.828-1.602-1.849V136.1
			c0-1.021,0.717-1.849,1.602-1.849h41.294c0.885,0,1.602,0.829,1.602,1.849V137.744z"/>
		<path fill="#74D5EF" d="M335.472,143.264c0,1.021-0.717,1.849-1.602,1.849h-41.294c-0.885,0-1.602-0.828-1.602-1.849v-1.644
			c0-1.021,0.717-1.849,1.602-1.849h41.294c0.885,0,1.602,0.828,1.602,1.849V143.264z"/>
		<path fill="#5CC8E9" d="M335.472,148.25c0,1.021-0.717,1.849-1.602,1.849h-41.294c-0.885,0-1.602-0.828-1.602-1.849v-1.645
			c0-1.021,0.717-1.849,1.602-1.849h41.294c0.885,0,1.602,0.828,1.602,1.849V148.25z"/>
	</g>
	<g>
		<path fill="#90E0F3" d="M386.2,131.847c0,1.623-1.314,2.938-2.937,2.938h-33.998c-1.622,0-2.936-1.315-2.936-2.938l0,0
			c0-1.623,1.315-2.938,2.936-2.938h33.998C384.885,128.908,386.2,130.225,386.2,131.847L386.2,131.847z"/>
		<path fill="#68CEEC" d="M386.2,137.189c0,1.623-1.314,2.938-2.937,2.938h-33.998c-1.622,0-2.936-1.314-2.936-2.938l0,0
			c0-1.623,1.315-2.938,2.936-2.938h33.998C384.885,134.251,386.2,135.566,386.2,137.189L386.2,137.189z"/>
		<path fill="#4CBFE5" d="M388.871,142.531c0,1.426-1.28,2.582-2.859,2.582h-39.316c-1.579,0-2.859-1.156-2.859-2.582l0,0
			c0-1.426,1.28-2.582,2.859-2.582h39.316C387.591,139.949,388.871,141.105,388.871,142.531L388.871,142.531z"/>
		<path fill="#7DD8F0" d="M391.017,147.161c0,1.426-1.279,2.582-2.859,2.582h-42.885c-1.579,0-2.859-1.156-2.859-2.582l0,0
			c0-1.425,1.28-2.582,2.859-2.582h42.885C389.738,144.579,391.017,145.735,391.017,147.161L391.017,147.161z"/>
	</g>
	<g>
		<rect x="396.139" y="125.014" fill="#7DD8F0" width="30.743" height="25.028"/>
		<rect x="393.277" y="121.03" fill="#75D5EF" width="35.472" height="4.607"/>
		<rect x="405.848" y="128.127" fill="#95E1F4" width="10.579" height="3.735"/>
	</g>
	<g>
		<rect x="434.794" y="145.647" fill="#69CFED" width="58.917" height="4.63"/>
		<rect x="440.135" y="129.621" fill="#74D5EF" width="43.609" height="14.78"/>
		<rect x="437.998" y="124.635" fill="#8CDEF2" width="47.881" height="6.588"/>
		<rect x="437.998" y="133.717" fill="#8CDEF2" width="47.881" height="6.588"/>
		<rect x="432.658" y="141.73" fill="#78D6F0" width="62.833" height="6.588"/>
	</g>
	<path fill="#71D3EE" d="M316.604,194.616l0.178-6.232c0,0,2.313,1.425,6.764,1.425s7.832-1.425,7.832-1.425l0.534,6.232
		c0,0,16.554,6.944,18.156,7.835c1.602,0.891,1.246,5.697,1.425,8.726c0.177,3.027,0.89,15.85,1.068,18.163
		c0.177,2.315,4.984,29.914,4.984,29.914h-7.654c0,0-5.874-26.888-6.407-29.559c-0.534-2.67-1.602-16.025-1.602-16.025
		s-1.246,14.423-1.424,17.628c-0.179,3.205,3.561,24.573,3.561,24.573l-41.473-1.067c0,0,5.517-20.834,5.695-24.573
		c0.179-3.74,0.356-16.383,0.356-16.383s-3.559,16.204-3.737,17.985c-0.179,1.78-7.476,27.066-7.476,27.066h-9.255
		c0,0,7.832-27.066,8.366-29.382c0.534-2.314,4.095-22.437,4.806-24.751c0.712-2.315,2.492-3.917,5.874-5.698
		c3.382-1.782,3.382-1.781,3.382-1.781L316.604,194.616z"/>
	<path fill="#5DC8EA" d="M434.439,188.918c2.313,0,3.381,3.74,3.381,11.218s0.534,29.736,0.534,40.777
		c0,11.04-0.891,37.396-0.891,37.396s-4.627,2.493-7.832,0.177c0,0,0.177-26.354,0.355-40.065s0.712-33.656,0.89-41.312
		C431.056,189.451,433.014,188.918,434.439,188.918z"/>
	<path fill="#79D7EF" d="M444.05,189.273c1.75-0.317,2.669,4.986,2.669,8.191s-0.177,17.451,0.178,22.259
		c0.355,4.808,0.712,10.684,0.535,20.3c-0.179,9.614,0.89,17.807,1.068,20.477c0.177,2.673-0.534,5.878-0.178,10.864
		c0.355,4.986-1.247,13.176-3.382,13.354c-2.137,0.178-3.382-5.875-3.739-15.848c-0.355-9.973,1.247-21.547,1.069-35.614
		c-0.178-14.067-0.177-30.45-0.356-35.08C441.736,193.548,442.092,189.63,444.05,189.273z"/>
	<path fill="#79D7EF" d="M451.527,189.985c1.598,0.1,2.669,4.63,2.848,7.301c0.177,2.672-0.89,23.328-0.712,27.423
		c0.178,4.095,0.357,13.888,0.534,16.738c0.178,2.85,1.068,9.794,0.355,11.931c-0.71,2.137-4.271,4.63-5.161,0.179
		c-0.89-4.453,0.355-21.725,0.178-23.684c-0.178-1.96-1.247-9.617-1.068-18.876C448.677,201.738,448.678,189.809,451.527,189.985z"
		/>
	<path fill="#95E1F4" d="M462.562,189.096c2.314,0,3.739,8.369,3.916,12.999c0.178,4.629,0.89,15.314,0.356,21.012
		c-0.535,5.698,0,10.506,0,17.273s0.89,26.178,0.356,29.026c-0.534,2.849-0.356,8.28,0,11.931
		c0.312,3.194-0.178,11.753-1.246,12.108c-1.067,0.356-6.408,0.534-7.12-0.534c-0.712-1.068,0.355-18.519,0-24.752
		c-0.356-6.232,0.534-12.465,0.534-20.835c0-8.369-1.068-13.355-1.068-23.684c0-10.327,0.356-19.586,0.535-24.572
		C459.001,194.081,460.959,189.096,462.562,189.096z"/>
	<path fill="#5BC7E9" d="M473.064,190.164c1.957,0,3.203,8.368,3.203,15.313c0.001,6.944,0.713,30.806,0.534,38.463
		c-0.178,7.657,0.356,31.519,0.178,35.615c-0.178,4.095-1.958,8.903-1.958,8.903l-4.094,0.177c0,0-0.534-6.409,0-14.601
		c0.534-8.19,0.891-30.273,0.713-39.354c-0.179-9.082-1.781-19.411-1.603-25.999s0.356-15.849,1.246-17.451
		C472.174,189.63,473.064,190.164,473.064,190.164z"/>
	<path fill="#54C3E7" d="M482.676,190.164c2.132,0.112,3.56,5.52,3.56,16.204s0.533,37.395,0.533,41.668
		c0,4.274-1.068,32.409-1.068,32.409s-3.382,1.96-5.34-1.067c0,0,0-22.438,0-32.588s0.179-25.641-0.177-35.436
		C479.827,201.561,479.293,189.985,482.676,190.164z"/>
	<path fill="#8FE0F3" d="M290.261,313.21c1.594-0.159,5.696,3.027,11.214,6.232c5.519,3.205,8.544,4.809,10.323,4.809
		c1.78,0,6.23,0,7.298,0s1.246-1.959,3.204-0.891c1.958,1.067,4.272,3.561,4.094,4.451c-0.178,0.891-0.533,3.027-3.382,3.027
		c-2.847,0-15.308,0-16.91,0c-1.602,0-3.916-4.985-5.696-6.588s-3.916-1.603-3.916,0.711c0,2.315,0,4.096-1.246,4.096
		c-1.246,0-2.135,0.534-2.313-1.959s-0.535-3.382-2.848-6.231C287.769,318.019,286.702,313.566,290.261,313.21z"/>
	<path fill="#6ACFED" d="M347.577,319.62c1.779,0,6.764,3.562,13.527,4.452c6.764,0.891,9.434,0.179,12.282-2.67
		c0,0,8.01,3.026,11.925,4.629s3.204,4.097,0.711,4.097c-2.492,0-33.463,0-36.488,0c-3.026,0-5.697-2.494-5.874-5.521
		C343.482,321.58,345.618,319.62,347.577,319.62z"/>
	<path fill="#6ACFED" d="M460.248,314.279c0,0,11.036,0.89,14.952,0.355c0.711,2.671,3.738,5.521,5.34,6.232
		c1.602,0.711,12.459,3.026,12.815,4.986c0.356,1.958-0.711,4.273-4.627,4.273c-3.916,0-20.469,0-23.852,0
		c-3.382,0-5.874-1.959-6.408-6.767C457.935,318.553,460.248,314.279,460.248,314.279z"/>
	<path fill="#6BD0ED" d="M403.111,313.388h9.79v2.137h-4.984c0,0,3.203,2.493,5.518,4.63s4.272,4.808,8.544,4.808
		s6.23-1.424,7.12-2.136c0.889-0.712,3.738,1.602,5.34,3.027c1.602,1.424,1.424,4.629-1.958,4.629c-3.381,0-9.79,0-12.281,0
		c-2.493,0-3.381-1.425-6.231-4.809c-2.849-3.383-5.696-3.917-5.696-1.424s-0.711,5.163-0.711,5.163h-1.78c0,0,0-3.205-0.534-4.629
		c-0.534-1.425-3.205-3.027-3.382-5.698C401.687,316.416,403.111,313.388,403.111,313.388z"/>
	<rect x="270.324" y="97.749" fill="#6BD0ED" width="247.058" height="11.396"/>
</g>
<g>
	<rect x="750.009" y="107.006" fill="#6FD2EE" width="234.955" height="233.27"/>
	<rect x="750.009" y="110.212" fill="#63CCEB" width="234.955" height="3.917"/>
	<rect x="759.264" y="157.222" fill="#5EC9EA" width="216.443" height="145.661"/>
	<rect x="759.264" y="110.212" fill="#5EC9EA" width="216.443" height="39.887"/>
	<rect x="759.264" y="110.212" fill="#56C4E8" width="216.443" height="3.917"/>
	<rect x="759.264" y="156.832" fill="#56C4E8" width="216.443" height="2.204"/>
	<rect x="759.264" y="308.581" fill="#5EC9EA" width="216.443" height="22.793"/>
	<rect x="759.264" y="308.659" fill="#56C4E8" width="216.443" height="2.692"/>
	<path fill="#8BDDF2" d="M965.652,177.588c-1.131,0-2.115,0.62-2.638,1.536H770.583c-0.522-0.917-1.508-1.536-2.638-1.536
		c-1.678,0-3.038,1.36-3.038,3.039c0,1.678,1.36,3.039,3.038,3.039c1.157,0,2.164-0.649,2.677-1.604h192.353
		c0.514,0.954,1.52,1.604,2.678,1.604c1.679,0,3.037-1.361,3.037-3.039C968.688,178.949,967.329,177.588,965.652,177.588z"/>
	<path fill="#9FE4F5" d="M909.717,191.077c0,0.627-0.509,1.135-1.135,1.135l0,0c-0.628,0-1.136-0.507-1.136-1.135v-13.622
		c0-0.627,0.508-1.135,1.136-1.135l0,0c0.626,0,1.135,0.508,1.135,1.135V191.077z"/>
	<path fill="#9FE4F5" d="M918.795,191.077c0,0.627-0.391,1.135-0.868,1.135l0,0c-0.479,0-0.867-0.507-0.867-1.135v-13.622
		c0-0.627,0.39-1.135,0.867-1.135l0,0c0.479,0,0.868,0.508,0.868,1.135V191.077z"/>
	<path fill="#9FE4F5" d="M926.003,191.077c0,0.627-0.39,1.135-0.868,1.135l0,0c-0.479,0-0.868-0.507-0.868-1.135v-13.622
		c0-0.627,0.39-1.135,0.868-1.135l0,0c0.479,0,0.868,0.508,0.868,1.135V191.077z"/>
	<path fill="#9FE4F5" d="M937.617,191.077c0,0.627-0.39,1.135-0.868,1.135l0,0c-0.479,0-0.868-0.507-0.868-1.135v-13.622
		c0-0.627,0.39-1.135,0.868-1.135l0,0c0.479,0,0.868,0.508,0.868,1.135V191.077z"/>
	<path fill="#9FE4F5" d="M947.763,191.077c0,0.627-0.39,1.135-0.868,1.135l0,0c-0.479,0-0.868-0.507-0.868-1.135v-13.622
		c0-0.627,0.389-1.135,0.868-1.135l0,0c0.479,0,0.868,0.508,0.868,1.135V191.077z"/>
	<path fill="#9FE4F5" d="M957.241,191.077c0,0.627-0.39,1.135-0.867,1.135l0,0c-0.48,0-0.868-0.507-0.868-1.135v-13.622
		c0-0.627,0.389-1.135,0.868-1.135l0,0c0.478,0,0.867,0.508,0.867,1.135V191.077z"/>
	<g>
		<path fill="#A7E7F6" d="M868.109,189.273h-1.602v-4.53l0.481-0.211c0.98-0.428,3.523-1.921,3.523-3.673
			c0-2.203-1.592-3.205-3.07-3.205c-1.543,0-2.67,0.966-2.67,1.469h-1.602c0-1.607,2.036-3.072,4.272-3.072
			c2.264,0,4.673,1.686,4.673,4.808c0,2.568-2.842,4.305-4.006,4.909L868.109,189.273L868.109,189.273z"/>
	</g>
	<g>
		<path fill="#A7E7F6" d="M848.952,192.496l-0.668-1.456c0.235-0.108,5.924-2.655,19.647-2.655c13.722,0,18.131,1.947,18.312,2.031
			l-0.668,1.458c-0.038-0.018-4.38-1.887-17.644-1.887C854.622,189.986,849.007,192.471,848.952,192.496z"/>
	</g>
	<path fill="#68CEEC" d="M849.776,190.075c0,0,14.417,8.28,17.221,8.28c2.803,0,19.624-8.947,19.624-8.947s2.804,0.667,3.738,4.808
		c0.935,4.14,10.413,51.952,10.413,51.952l-7.609-0.401l-9.479-39.932c0,0-2.002,17.36-1.868,22.17
		c0.133,4.808,5.072,10.416,4.538,22.302c-0.534,11.887-4.672,38.864-4.672,38.864s-3.872,1.87-11.481,1.87
		c-7.608,0-10.412-2.537-10.412-2.537s-6.941-29.383-8.276-38.197c-1.336-8.814,0.801-16.56,0.267-22.57s-1.336-18.563-1.336-18.563
		l-2.536,35.658l-7.209-1.869c0,0,2.938-42.47,4.006-47.011C845.771,191.411,849.776,190.075,849.776,190.075z"/>
	<g>
		<path fill="#A7E7F6" d="M857.874,189.273h-1.602v-4.53l0.481-0.211c0.98-0.428,3.523-1.921,3.523-3.673
			c0-2.203-1.591-3.205-3.07-3.205c-1.543,0-2.67,0.966-2.67,1.469h-1.602c0-1.607,2.036-3.072,4.272-3.072
			c2.265,0,4.672,1.686,4.672,4.808c0,2.568-2.841,4.305-4.005,4.909L857.874,189.273L857.874,189.273z"/>
	</g>
	<g>
		<path fill="#A7E7F6" d="M838.717,192.496l-0.668-1.456c0.234-0.108,5.925-2.655,19.648-2.655c13.72,0,18.129,1.947,18.311,2.031
			l-0.667,1.458c-0.038-0.018-4.381-1.887-17.644-1.887C844.387,189.986,838.771,192.471,838.717,192.496z"/>
	</g>
	<path fill="#74D5EF" d="M838.83,190.476c0,0,14.417,8.28,17.221,8.28c2.803,0,19.623-8.947,19.623-8.947s2.804,0.668,3.738,4.808
		s10.413,51.951,10.413,51.951l-7.608-0.399l-9.479-39.934c0,0-2.003,17.362-1.869,22.17s5.073,10.416,4.539,22.303
		c-0.533,11.887-4.673,38.864-4.673,38.864s-3.871,1.869-11.479,1.869c-7.61,0-10.413-2.538-10.413-2.538
		s-6.943-29.382-8.277-38.196c-1.335-8.814,0.801-16.56,0.267-22.57c-0.533-6.01-1.335-18.563-1.335-18.563l-2.536,35.659
		l-7.209-1.87c0,0,2.936-42.47,4.004-47.01C834.823,191.811,838.83,190.476,838.83,190.476z"/>
	<g>
		<path fill="#A7E7F6" d="M798.513,190.876h-1.603v-6.134l0.481-0.211c0.98-0.428,3.523-1.921,3.523-3.672
			c0-2.203-1.592-3.206-3.07-3.206c-1.544,0-2.67,0.967-2.67,1.469h-1.602c0-1.607,2.035-3.072,4.272-3.072
			c2.265,0,4.672,1.685,4.672,4.808c0,2.568-2.841,4.305-4.005,4.909V190.876L798.513,190.876z"/>
	</g>
	<g>
		<path fill="#A7E7F6" d="M809.861,190.876h-1.603v-6.134l0.481-0.211c0.979-0.428,3.523-1.921,3.523-3.672
			c0-2.203-1.591-3.206-3.07-3.206c-1.543,0-2.67,0.967-2.67,1.469h-1.602c0-1.607,2.036-3.072,4.272-3.072
			c2.265,0,4.672,1.685,4.672,4.808c0,2.568-2.841,4.305-4.004,4.909L809.861,190.876L809.861,190.876z"/>
	</g>
	<g>
		<path fill="#A7E7F6" d="M820.674,190.876h-1.602v-6.134l0.48-0.211c0.981-0.428,3.524-1.921,3.524-3.672
			c0-2.203-1.592-3.206-3.071-3.206c-1.543,0-2.669,0.967-2.669,1.469h-1.602c0-1.607,2.035-3.072,4.271-3.072
			c2.265,0,4.672,1.685,4.672,4.808c0,2.568-2.84,4.305-4.004,4.909L820.674,190.876L820.674,190.876z"/>
	</g>
	<path fill="#5FC9EA" d="M813.375,195.328l0.178-6.232c0,0,2.314,1.425,6.765,1.425s7.832-1.425,7.832-1.425l0.534,6.232
		c0,0,16.553,6.944,18.156,7.835c1.601,0.891,1.246,5.697,1.424,8.726c0.178,3.027,0.89,15.85,1.068,18.163
		c0.178,2.314,4.983,29.916,4.983,29.916h-7.653c0,0-5.874-26.89-6.408-29.561s-1.602-16.025-1.602-16.025
		s-1.247,14.423-1.424,17.628c-0.18,3.206,3.56,24.573,3.56,24.573l-41.475-1.068c0,0,5.518-20.833,5.696-24.572
		s0.356-16.383,0.356-16.383s-3.561,16.205-3.737,17.984c-0.18,1.782-7.477,27.067-7.477,27.067h-9.255
		c0,0,7.831-27.067,8.365-29.382c0.533-2.315,4.094-22.437,4.806-24.751c0.712-2.315,2.492-3.917,5.874-5.698
		c3.382-1.782,3.382-1.781,3.382-1.781L813.375,195.328z"/>
	<path fill="#6BD0ED" d="M800.204,194.972l0.178-6.232c0,0,2.314,1.424,6.765,1.424s7.831-1.424,7.831-1.424l0.534,6.232
		c0,0,16.554,6.943,18.156,7.835c1.602,0.891,1.246,5.697,1.424,8.726c0.179,3.026,0.89,15.848,1.068,18.163
		c0.178,2.314,4.983,29.914,4.983,29.914h-7.652c0,0-5.875-26.888-6.409-29.558c-0.533-2.672-1.601-16.026-1.601-16.026
		s-1.247,14.424-1.425,17.628c-0.179,3.205,3.56,24.573,3.56,24.573l-41.474-1.068c0,0,5.519-20.834,5.696-24.572
		c0.179-3.74,0.356-16.383,0.356-16.383s-3.559,16.204-3.737,17.986c-0.179,1.78-7.477,27.064-7.477,27.064h-9.256
		c0,0,7.833-27.066,8.366-29.381c0.534-2.315,4.094-22.438,4.807-24.752c0.711-2.314,2.492-3.917,5.874-5.698s3.382-1.78,3.382-1.78
		L800.204,194.972z"/>
	<g>
		<path fill="#78D7EF" d="M809.46,127.841c0,0.885-0.718,1.602-1.603,1.602h-41.295c-0.884,0-1.601-0.717-1.601-1.602v-1.425
			c0-0.885,0.717-1.603,1.601-1.603h41.295c0.885,0,1.603,0.717,1.603,1.603V127.841z"/>
		<path fill="#95E1F4" d="M809.46,132.758c0,1.022-0.718,1.849-1.603,1.849h-41.295c-0.884,0-1.601-0.828-1.601-1.849v-1.644
			c0-1.021,0.717-1.849,1.601-1.849h41.295c0.885,0,1.603,0.829,1.603,1.849V132.758z"/>
		<path fill="#5BC7E9" d="M809.46,137.744c0,1.022-0.718,1.849-1.603,1.849h-41.295c-0.884,0-1.601-0.828-1.601-1.849V136.1
			c0-1.021,0.717-1.849,1.601-1.849h41.295c0.885,0,1.603,0.829,1.603,1.849V137.744z"/>
		<path fill="#74D5EF" d="M809.46,143.264c0,1.021-0.718,1.849-1.603,1.849h-41.295c-0.884,0-1.601-0.828-1.601-1.849v-1.644
			c0-1.021,0.717-1.849,1.601-1.849h41.295c0.885,0,1.603,0.828,1.603,1.849V143.264z"/>
		<path fill="#5CC8E9" d="M809.46,148.25c0,1.021-0.718,1.849-1.603,1.849h-41.295c-0.884,0-1.601-0.828-1.601-1.849v-1.645
			c0-1.021,0.717-1.849,1.601-1.849h41.295c0.885,0,1.603,0.828,1.603,1.849V148.25z"/>
	</g>
	<g>
		<path fill="#90E0F3" d="M860.189,131.847c0,1.623-1.314,2.938-2.938,2.938h-33.998c-1.622,0-2.937-1.315-2.937-2.938l0,0
			c0-1.623,1.314-2.938,2.937-2.938h33.998C858.873,128.908,860.189,130.225,860.189,131.847L860.189,131.847z"/>
		<path fill="#68CEEC" d="M860.189,137.189c0,1.623-1.314,2.938-2.938,2.938h-33.998c-1.622,0-2.937-1.314-2.937-2.938l0,0
			c0-1.623,1.314-2.938,2.937-2.938h33.998C858.873,134.251,860.189,135.566,860.189,137.189L860.189,137.189z"/>
		<path fill="#4CBFE5" d="M862.858,142.531c0,1.426-1.279,2.582-2.857,2.582h-39.317c-1.578,0-2.858-1.156-2.858-2.582l0,0
			c0-1.426,1.279-2.582,2.858-2.582h39.317C861.579,139.949,862.858,141.105,862.858,142.531L862.858,142.531z"/>
		<path fill="#7DD8F0" d="M865.004,147.161c0,1.426-1.277,2.582-2.857,2.582H819.26c-1.579,0-2.859-1.156-2.859-2.582l0,0
			c0-1.425,1.279-2.582,2.859-2.582h42.887C863.725,144.579,865.004,145.735,865.004,147.161L865.004,147.161z"/>
	</g>
	<g>
		<rect x="870.127" y="125.014" fill="#7DD8F0" width="30.741" height="25.028"/>
		<rect x="867.264" y="121.03" fill="#75D5EF" width="35.472" height="4.607"/>
		<rect x="879.835" y="128.127" fill="#95E1F4" width="10.578" height="3.735"/>
	</g>
	<g>
		<rect x="908.781" y="145.647" fill="#69CFED" width="58.918" height="4.63"/>
		<rect x="914.122" y="129.621" fill="#74D5EF" width="43.608" height="14.78"/>
		<rect x="911.985" y="124.635" fill="#8CDEF2" width="47.881" height="6.588"/>
		<rect x="911.985" y="133.717" fill="#8CDEF2" width="47.881" height="6.588"/>
		<rect x="906.645" y="141.73" fill="#78D6F0" width="62.833" height="6.588"/>
	</g>
	<path fill="#71D3EE" d="M790.592,194.616l0.178-6.232c0,0,2.313,1.425,6.764,1.425s7.832-1.425,7.832-1.425l0.534,6.232
		c0,0,16.554,6.944,18.156,7.835c1.602,0.891,1.245,5.697,1.425,8.726c0.177,3.027,0.891,15.85,1.067,18.163
		c0.177,2.315,4.983,29.914,4.983,29.914h-7.653c0,0-5.874-26.888-6.407-29.559c-0.534-2.67-1.603-16.025-1.603-16.025
		s-1.245,14.423-1.425,17.628c-0.178,3.205,3.561,24.573,3.561,24.573l-41.473-1.067c0,0,5.517-20.834,5.695-24.573
		c0.179-3.74,0.356-16.383,0.356-16.383s-3.559,16.204-3.738,17.985c-0.178,1.78-7.476,27.066-7.476,27.066h-9.256
		c0,0,7.833-27.066,8.366-29.382c0.534-2.314,4.094-22.437,4.807-24.751c0.711-2.315,2.491-3.917,5.874-5.698
		c3.381-1.782,3.381-1.781,3.381-1.781L790.592,194.616z"/>
	<path fill="#5DC8EA" d="M908.427,188.918c2.313,0,3.382,3.74,3.382,11.218s0.533,29.736,0.533,40.777
		c0,11.04-0.89,37.396-0.89,37.396s-4.629,2.493-7.833,0.177c0,0,0.178-26.354,0.356-40.065s0.712-33.656,0.891-41.312
		C905.044,189.451,907.002,188.918,908.427,188.918z"/>
	<path fill="#79D7EF" d="M918.038,189.273c1.75-0.317,2.669,4.986,2.669,8.191s-0.177,17.451,0.179,22.259
		c0.354,4.808,0.712,10.684,0.534,20.3c-0.179,9.614,0.89,17.807,1.068,20.477c0.178,2.673-0.534,5.878-0.179,10.864
		c0.356,4.986-1.246,13.176-3.382,13.354c-2.136,0.18-3.383-5.875-3.738-15.848c-0.356-9.973,1.246-21.547,1.068-35.614
		s-0.178-30.45-0.356-35.08C915.723,193.548,916.08,189.63,918.038,189.273z"/>
	<path fill="#79D7EF" d="M925.513,189.985c1.599,0.1,2.669,4.63,2.849,7.301c0.179,2.672-0.89,23.328-0.713,27.423
		c0.18,4.095,0.357,13.888,0.534,16.738c0.179,2.85,1.068,9.794,0.357,11.931c-0.712,2.137-4.272,4.63-5.162,0.179
		c-0.89-4.453,0.356-21.725,0.177-23.684c-0.178-1.96-1.245-9.617-1.066-18.876C922.666,201.738,922.666,189.809,925.513,189.985z"
		/>
	<path fill="#95E1F4" d="M936.55,189.096c2.314,0,3.738,8.369,3.915,12.999c0.179,4.629,0.891,15.314,0.357,21.012
		c-0.535,5.698,0,10.506,0,17.273s0.89,26.178,0.355,29.026s-0.355,8.28,0,11.931c0.312,3.194-0.178,11.753-1.247,12.108
		c-1.066,0.356-6.407,0.534-7.118-0.534c-0.713-1.068,0.354-18.519,0-24.752c-0.356-6.232,0.533-12.465,0.533-20.835
		c0-8.369-1.068-13.355-1.068-23.684c0-10.327,0.356-19.586,0.535-24.572C932.99,194.081,934.947,189.096,936.55,189.096z"/>
	<path fill="#5BC7E9" d="M947.052,190.164c1.957,0,3.203,8.368,3.203,15.313c0,6.944,0.712,30.806,0.533,38.463
		c-0.177,7.657,0.357,31.519,0.178,35.615c-0.178,4.095-1.957,8.903-1.957,8.903l-4.095,0.177c0,0-0.533-6.409,0-14.601
		c0.534-8.19,0.892-30.273,0.713-39.354c-0.179-9.082-1.782-19.411-1.603-25.999c0.178-6.588,0.356-15.849,1.246-17.451
		C946.161,189.63,947.052,190.164,947.052,190.164z"/>
	<path fill="#54C3E7" d="M956.663,190.164c2.133,0.112,3.561,5.52,3.561,16.204s0.533,37.395,0.533,41.668
		c0,4.274-1.068,32.409-1.068,32.409s-3.383,1.96-5.34-1.067c0,0,0-22.438,0-32.588s0.178-25.641-0.178-35.436
		C953.815,201.561,953.282,189.985,956.663,190.164z"/>
	<path fill="#8FE0F3" d="M764.249,313.21c1.594-0.159,5.695,3.027,11.214,6.232c5.518,3.205,8.543,4.809,10.324,4.809
		c1.779,0,6.229,0,7.298,0c1.066,0,1.246-1.959,3.203-0.891c1.958,1.067,4.272,3.561,4.094,4.451
		c-0.177,0.891-0.534,3.027-3.382,3.027s-15.308,0-16.91,0c-1.601,0-3.916-4.985-5.695-6.588c-1.781-1.603-3.916-1.603-3.916,0.711
		c0,2.315,0,4.096-1.247,4.096c-1.245,0-2.136,0.534-2.313-1.959c-0.179-2.493-0.534-3.382-2.849-6.231
		C761.757,318.019,760.688,313.566,764.249,313.21z"/>
	<path fill="#6ACFED" d="M821.564,319.62c1.78,0,6.764,3.562,13.527,4.452s9.433,0.179,12.281-2.67c0,0,8.01,3.026,11.926,4.629
		c3.915,1.603,3.204,4.097,0.712,4.097c-2.493,0-33.465,0-36.49,0c-3.024,0-5.696-2.494-5.874-5.521
		C817.469,321.58,819.606,319.62,821.564,319.62z"/>
	<path fill="#6ACFED" d="M934.235,314.279c0,0,11.035,0.89,14.951,0.355c0.712,2.671,3.738,5.521,5.34,6.232
		c1.603,0.711,12.46,3.026,12.816,4.986c0.356,1.958-0.711,4.273-4.627,4.273c-3.917,0-20.469,0-23.852,0s-5.875-1.959-6.409-6.767
		C931.923,318.553,934.235,314.279,934.235,314.279z"/>
	<path fill="#6BD0ED" d="M877.098,313.388h9.79v2.137h-4.983c0,0,3.203,2.493,5.518,4.63c2.313,2.137,4.271,4.808,8.543,4.808
		s6.231-1.424,7.119-2.136c0.89-0.712,3.738,1.602,5.34,3.027c1.603,1.424,1.425,4.629-1.958,4.629c-3.382,0-9.79,0-12.28,0
		c-2.493,0-3.383-1.425-6.23-4.809c-2.85-3.383-5.697-3.917-5.697-1.424s-0.711,5.163-0.711,5.163h-1.779c0,0,0-3.205-0.534-4.629
		c-0.534-1.425-3.204-3.027-3.383-5.698C875.674,316.416,877.098,313.388,877.098,313.388z"/>
	<rect x="744.311" y="97.749" fill="#6BD0ED" width="247.059" height="11.396"/>
</g>
<g id="Layer_2">
	<rect x="0" y="335.998" fill="#4AB7DB" width="1261.721" height="26.013"/>
</g>
<g>
	<path fill="#EEBA94" d="M858.95,344.702l-9.9-19.188c0,0-32.484-9.597-48.882-47.665c0,0-7.735-3.403-11.137-12.381
		c0,0-20.729-10.831-26.607-18.571c0.929-8.047,11.138-21.355,11.138-21.355s-12.993-7.428-18.563-17.021
		c2.785-10.215,9.9-20.118,9.9-20.118l-12.686-14.857l111.068,2.786c0,0,13.921,9.596,22.274,17.951
		c8.353,8.356,34.031,59.426,34.031,59.426l16.088,38.997l-2.476,45.497L858.95,344.702z"/>
	<path fill="#F5D4A9" d="M779.439,121.395c0,0-18.872-10.522-24.751-13.927c-5.877-3.405-13.612-4.333-18.251,1.856
		c-4.642,6.19-3.869,15.012,5.877,21.51c9.744,6.5,36.97,22.904,36.97,22.904L779.439,121.395z"/>
	<g>
		<path fill="#EEC39C" d="M760.102,135.012c-0.169,0-0.337-0.069-0.461-0.205c-0.229-0.253-0.206-0.646,0.047-0.873
			c5.95-5.358,6.908-11.787,6.917-11.851c0.048-0.339,0.359-0.578,0.698-0.528c0.339,0.048,0.573,0.36,0.527,0.699
			c-0.039,0.28-1.033,6.942-7.313,12.599C760.398,134.96,760.251,135.012,760.102,135.012z"/>
	</g>
	<path fill="#286D8A" d="M865.755,234.209c0,4.444-3.6,8.045-8.043,8.045h-76.107c-4.444,0-8.044-3.601-8.044-8.045V83.481
		c0-4.444,3.6-8.047,8.044-8.047h76.107c4.443,0,8.043,3.603,8.043,8.047V234.209z"/>
	<path fill="#FFFFFF" d="M862.352,215.02c0,1.71-1.385,3.096-3.093,3.096h-79.511c-1.709,0-3.093-1.386-3.093-3.096V98.027
		c0-1.708,1.384-3.095,3.093-3.095h79.511c1.708,0,3.093,1.387,3.093,3.095V215.02z"/>
	<path fill="#F5D4A9" d="M871.634,291.159c0,0-19.8-23.832-14.54-48.594c5.259-24.76,23.822-40.235,23.822-40.235s0-6.5,1.856-9.903
		c-5.259-5.262-10.52-25.999-10.829-34.974c0,0-12.993-6.81-14.23-25.689c-1.238-18.88,7.425-25.07,10.828-25.689
		c2.476,5.881,12.065,20.118,12.065,20.118s2.475,2.786,3.712,3.714c1.237,0.929,9.591,4.642,12.375,9.904
		c2.784,5.261,22.584,45.807,25.061,53.854c2.475,8.048,5.878,30.95-0.619,58.188c-6.496,27.236-32.793,50.76-32.793,50.76
		s19.181-16.095,27.224-19.5c8.045-3.405,13.304-0.618,17.325,2.786l10.211,24.141l-65.588,27.854c0,0,0-15.164,3.093-25.069
		c0,0-10.828,6.809-25.369,3.094c-14.541-3.712-33.103-13.927-40.838-31.568c-7.734-17.643-2.166-27.546-2.166-27.546
		s-4.331,3.406-4.95,5.263c-0.618,1.855-7.424-5.881-8.662-11.453c-1.238-5.57-2.784-8.048-2.784-8.048h51.666
		c0,0,0.619,15.785,9.591,30.332C866.067,287.444,871.634,291.159,871.634,291.159z"/>
	<path fill="#F5D4A9" d="M775.263,226.007c5.877,1.856,18.872,6.654,22.273,9.595c3.404,2.94,5.106,8.202,2.784,14.238
		c-2.319,6.036-7.734,9.441-13.303,7.737c-5.569-1.703-15.624-5.571-20.729-8.048c-5.104-2.476-10.828-7.118-7.425-15.785
		C762.268,225.079,767.783,223.646,775.263,226.007z"/>
	<path fill="#F5D4A9" d="M767.374,188.249c3.408,1.064,13.302,7.117,16.706,10.366s8.353,9.905,3.094,17.643
		c-5.26,7.736-10.21,7.118-18.407,3.25c-8.199-3.868-15.934-9.44-18.255-13.464c-2.32-4.023-1.854-10.368,2.785-14.701
		C757.937,187.01,762.424,186.699,767.374,188.249z"/>
	<path fill="#F5D4A9" d="M765.981,154.201c4.452,2.399,11.91,6.654,14.076,10.06c2.166,3.404,3.094,9.439-0.154,14.546
		c-3.249,5.107-9.437,8.047-16.089,5.261c-6.651-2.785-14.694-9.13-16.24-14.083c-1.548-4.951,1.392-11.606,5.723-15.009
		C757.628,151.572,763.97,153.119,765.981,154.201z"/>
	<path fill="#E05D02" d="M853.793,132.588c0-10.398-8.446-18.858-18.835-18.879c-3.298-5.664-9.397-9.287-16.125-9.287
		c-6.785,0-12.861,3.575-16.159,9.309c-0.252-0.01-0.502-0.023-0.753-0.023c-10.405,0-18.873,8.469-18.873,18.88
		c0,10.411,8.468,18.879,18.873,18.879l33.41-0.01C845.549,151.237,853.793,142.863,853.793,132.588z M834.922,145.897h-33.001
		c-7.335,0-13.303-5.971-13.303-13.309c0-7.338,5.968-13.309,13.303-13.309c2.224,0,4.422,0.559,6.357,1.615l2.665-4.891
		c-0.761-0.415-1.554-0.771-2.364-1.076c2.437-3.078,6.16-4.932,10.255-4.932c3.957,0,7.606,1.789,10.046,4.707
		c-1.124,0.38-2.215,0.863-3.251,1.45l2.746,4.848c1.984-1.124,4.249-1.718,6.544-1.718c7.335,0,13.304,5.97,13.304,13.309
		C848.224,139.926,842.255,145.897,834.922,145.897z"/>
	<g>
		<path fill="#292929" d="M826.773,145.897H801.92c-7.336,0-13.303-5.971-13.303-13.309c0-7.338,5.967-13.309,13.303-13.309
			c2.223,0,4.42,0.559,6.355,1.615l2.666-4.891c-0.76-0.415-1.553-0.771-2.364-1.076c2.437-3.078,6.161-4.932,10.256-4.932
			c2.939,0,5.71,0.989,7.939,2.694v-6.475c-2.433-1.149-5.129-1.79-7.939-1.79c-6.785,0-12.861,3.575-16.159,9.309
			c-0.252-0.009-0.502-0.023-0.754-0.023c-10.406,0-18.873,8.469-18.873,18.879c0,10.411,8.467,18.88,18.873,18.88l24.854-0.007
			V145.897L826.773,145.897z"/>
		<path fill="#292929" d="M826.773,118.169v-2.609c-0.386,0.184-0.769,0.379-1.144,0.59L826.773,118.169z"/>
	</g>
	<g>
		<g>
			<path fill="#47B72D" d="M803.208,192.034v3.081h-1.476v-2.967c-2.014,0-3.65-0.407-4.91-1.221v-2.47
				c0.549,0.482,1.299,0.887,2.25,1.213c0.95,0.325,1.839,0.489,2.661,0.489v-7.268c-2.08-1.004-3.43-1.927-4.044-2.775
				c-0.615-0.847-0.922-1.848-0.922-3.003c0-1.372,0.468-2.556,1.405-3.555c0.937-0.998,2.123-1.597,3.561-1.796v-2.554h1.477v2.498
				c1.854,0.056,3.135,0.323,3.847,0.795v2.413c-0.966-0.757-2.249-1.165-3.847-1.221v7.495c1.968,0.938,3.312,1.845,4.036,2.719
				c0.724,0.876,1.086,1.871,1.086,2.989c0,1.342-0.451,2.473-1.354,3.386C806.071,191.192,804.817,191.777,803.208,192.034z
				 M801.731,180.395v-6.616c-0.794,0.161-1.424,0.514-1.887,1.057c-0.464,0.543-0.696,1.205-0.696,1.981c0,0.813,0.19,1.48,0.57,2
				C800.094,179.338,800.766,179.863,801.731,180.395z M803.208,183.63v6.415c1.825-0.396,2.738-1.381,2.738-2.952
				C805.946,185.787,805.033,184.634,803.208,183.63z"/>
		</g>
		<g>
			<path fill="#47B72D" d="M820.223,192.034v3.081h-1.477v-2.967c-2.015,0-3.649-0.407-4.908-1.221v-2.47
				c0.548,0.482,1.297,0.887,2.249,1.213c0.951,0.325,1.837,0.489,2.661,0.489v-7.268c-2.081-1.004-3.429-1.927-4.044-2.775
				c-0.614-0.847-0.923-1.848-0.923-3.003c0-1.372,0.469-2.556,1.405-3.555c0.938-0.998,2.125-1.597,3.562-1.796v-2.554h1.476v2.498
				c1.854,0.056,3.136,0.323,3.846,0.795v2.413c-0.966-0.757-2.246-1.165-3.846-1.221v7.495c1.968,0.938,3.312,1.845,4.037,2.719
				c0.725,0.876,1.086,1.871,1.086,2.989c0,1.342-0.452,2.473-1.356,3.386C823.087,191.192,821.832,191.777,820.223,192.034z
				 M818.747,180.395v-6.616c-0.795,0.161-1.423,0.514-1.886,1.057c-0.465,0.543-0.696,1.205-0.696,1.981
				c0,0.813,0.189,1.48,0.568,2C817.112,179.338,817.784,179.863,818.747,180.395z M820.223,183.63v6.415
				c1.826-0.396,2.739-1.381,2.739-2.952C822.963,185.787,822.05,184.634,820.223,183.63z"/>
		</g>
		<g>
			<path fill="#47B72D" d="M837.24,192.034v3.081h-1.478v-2.967c-2.014,0-3.649-0.407-4.908-1.221v-2.47
				c0.549,0.482,1.298,0.887,2.25,1.213c0.95,0.325,1.838,0.489,2.659,0.489v-7.268c-2.079-1.004-3.428-1.927-4.043-2.775
				c-0.615-0.847-0.922-1.848-0.922-3.003c0-1.372,0.467-2.556,1.405-3.555c0.938-0.998,2.124-1.597,3.56-1.796v-2.554h1.478v2.498
				c1.854,0.056,3.134,0.323,3.846,0.795v2.413c-0.967-0.757-2.247-1.165-3.846-1.221v7.495c1.967,0.938,3.312,1.845,4.037,2.719
				c0.722,0.876,1.084,1.871,1.084,2.989c0,1.342-0.451,2.473-1.354,3.386C840.105,191.192,838.846,191.777,837.24,192.034z
				 M835.762,180.395v-6.616c-0.794,0.161-1.425,0.514-1.885,1.057c-0.466,0.543-0.698,1.205-0.698,1.981
				c0,0.813,0.191,1.48,0.569,2C834.128,179.338,834.799,179.863,835.762,180.395z M837.24,183.63v6.415
				c1.825-0.396,2.738-1.381,2.738-2.952C839.978,185.787,839.065,184.634,837.24,183.63z"/>
		</g>
	</g>
	<path fill="#EEC39C" d="M792.638,236.995c0,0,2.887,9.285-6.394,18.365c-9.694-4.334-14.231-9.905-13.406-13.413
		c0.826-3.508,2.888-6.188,3.919-7.017c1.031-0.824,3.507-1.442,7.012-0.619C787.275,235.137,792.638,236.995,792.638,236.995z"/>
	<path fill="#EEC39C" d="M780.469,199.854c0,0-2.061,1.857-5.569,8.873c-3.506,7.016-3.918,10.522-3.918,10.522
		s-5.57-4.333-8.456-7.634c-2.888-3.301-4.95-7.43-3.918-9.699c1.03-2.27,2.062-3.918,3.506-5.157
		c1.442-1.238,3.505-1.651,6.393-1.032C771.395,196.347,780.469,199.854,780.469,199.854z"/>
	<path fill="#EEC39C" d="M772.633,162.301c0,0-3.506,3.919-5.981,9.285c-2.475,5.365-3.712,10.11-3.712,10.11
		s-3.3-2.683-5.775-5.572c-2.476-2.888-2.476-2.887-2.476-2.887s-3.093-5.571-1.855-8.047c1.238-2.476,2.269-3.714,2.888-4.953
		c0.619-1.237,3.713-2.682,7.838-1.444S772.633,162.301,772.633,162.301z"/>
	<path fill="#EEC39C" d="M882.152,127.636c0,0-11.755-21.871-12.168-22.49s-2.889,0.825-3.299,1.651
		c-0.412,0.825,0.617,5.777,3.712,11.348c3.093,5.571,5.36,8.46,7.425,9.079C879.884,127.843,882.152,127.636,882.152,127.636z"/>
	<polygon fill="#DE4944" points="983.01,361.999 857.401,361.999 850.595,345.321 952.691,303.539 	"/>
	<path fill="#4D819A" d="M830.177,233.28c0,1.023-0.832,1.856-1.857,1.856h-17.634c-1.025,0-1.856-0.833-1.856-1.856v-6.19
		c0-1.025,0.831-1.856,1.856-1.856h17.634c1.025,0,1.857,0.831,1.857,1.856V233.28z"/>
</g>
</svg>
