<?xml version="1.0" encoding="utf-8"?>
<!-- Generator: Adobe Illustrator 16.0.0, SVG Export Plug-In . SVG Version: 6.00 Build 0)  -->
<!DOCTYPE svg PUBLIC "-//W3C//DTD SVG 1.1//EN" "http://www.w3.org/Graphics/SVG/1.1/DTD/svg11.dtd">
<svg version="1.1" id="Layer_1" xmlns="http://www.w3.org/2000/svg" xmlns:xlink="http://www.w3.org/1999/xlink" x="0px" y="0px"
	 width="255px" height="58px" viewBox="0 0 255 58" enable-background="new 0 0 255 58" xml:space="preserve">
<g>
	<path fill="#363636" d="M26.71,7.674l-1.557,4.181c-1.487-1.141-3.826-1.711-7.018-1.711c-2.99,0-5.387,1.353-7.191,4.059
		c-1.805,2.706-2.707,6.194-2.707,10.464c0,4.075,0.925,7.38,2.776,9.914c1.851,2.535,4.241,3.802,7.169,3.802
		c3.191,0,5.646-1.189,7.366-3.569l2.556,3.741c-2.695,2.819-6.166,4.229-10.41,4.229c-4.446,0-7.947-1.688-10.503-5.062
		s-3.834-7.823-3.834-13.349c0-5.346,1.363-9.788,4.09-13.325c2.726-3.537,6.25-5.306,10.572-5.306
		C21.722,5.742,24.619,6.386,26.71,7.674z"/>
	<path fill="#363636" d="M37.283,15.986v16.699c0,4.043,1.665,6.063,4.996,6.063c1.456,0,2.788-0.44,3.997-1.32
		s2.006-1.898,2.394-3.057V15.986h4.415v26.186h-4.415v-3.618c-0.496,1.026-1.491,1.968-2.986,2.823
		c-1.495,0.856-2.955,1.284-4.38,1.284c-2.727,0-4.814-0.823-6.262-2.47c-1.449-1.646-2.172-3.985-2.172-7.017V15.986H37.283z"/>
	<path fill="#363636" d="M63.517,40.729V52.44h-4.415V15.986h4.415v2.152c1.673-1.76,3.695-2.641,6.065-2.641
		c3.532,0,6.281,1.158,8.249,3.472c1.967,2.315,2.951,5.705,2.951,10.171c0,3.977-0.991,7.225-2.974,9.743
		c-1.983,2.518-4.849,3.777-8.598,3.777c-1.053,0-2.18-0.196-3.381-0.587C64.628,41.683,63.857,41.234,63.517,40.729z
		 M63.517,21.634v15.256c0.279,0.44,0.868,0.86,1.766,1.26s1.773,0.599,2.625,0.599c5.484,0,8.226-3.26,8.226-9.78
		c0-3.309-0.651-5.729-1.952-7.262c-1.301-1.532-3.385-2.298-6.25-2.298c-0.62,0-1.379,0.229-2.277,0.685
		C64.756,20.55,64.043,21.064,63.517,21.634z"/>
	<path fill="#363636" d="M83.988,29.018c0-4.042,1.034-7.306,3.102-9.792c2.068-2.485,4.791-3.729,8.168-3.729
		c3.562,0,6.328,1.194,8.295,3.582c1.967,2.388,2.951,5.701,2.951,9.938c0,4.223-1.007,7.552-3.021,9.988
		c-2.014,2.437-4.756,3.655-8.226,3.655c-3.548,0-6.313-1.23-8.295-3.692C84.979,36.508,83.988,33.19,83.988,29.018z M88.636,29.018
		c0,6.569,2.208,9.854,6.623,9.854c2.06,0,3.675-0.88,4.845-2.641c1.169-1.76,1.754-4.164,1.754-7.213c0-6.487-2.2-9.73-6.599-9.73
		c-2.014,0-3.622,0.864-4.822,2.592C89.236,23.607,88.636,25.986,88.636,29.018z"/>
	<path fill="#363636" d="M126.465,42.172V26.94c0-2.787-0.399-4.739-1.197-5.856c-0.798-1.116-2.134-1.675-4.008-1.675
		c-1.007,0-2.06,0.318-3.16,0.954s-1.944,1.418-2.533,2.347v19.462h-4.415V15.986h3.021l1.394,3.374
		c1.456-2.575,3.834-3.863,7.134-3.863c5.452,0,8.18,3.488,8.18,10.464v16.21H126.465z"/>
	<path fill="#DF5C00" d="M159.229,7.674l-1.557,4.181c-1.487-1.141-3.827-1.711-7.018-1.711c-2.99,0-5.388,1.353-7.192,4.059
		c-1.805,2.706-2.707,6.194-2.707,10.464c0,4.075,0.926,7.38,2.777,9.914c1.851,2.535,4.24,3.802,7.168,3.802
		c3.191,0,5.646-1.189,7.366-3.569l2.556,3.741c-2.695,2.819-6.165,4.229-10.409,4.229c-4.446,0-7.947-1.688-10.503-5.062
		c-2.557-3.374-3.834-7.823-3.834-13.349c0-5.346,1.362-9.788,4.089-13.325s6.251-5.306,10.573-5.306
		C154.24,5.742,157.137,6.386,159.229,7.674z"/>
	<path fill="#DF5C00" d="M163.111,34.764V5.253h4.415v28.728c0,1.402,0.384,2.506,1.15,3.312s1.77,1.211,3.009,1.211v4.156
		C165.97,42.661,163.111,40.028,163.111,34.764z"/>
	<path fill="#DF5C00" d="M175.172,29.018c0-4.042,1.033-7.306,3.102-9.792c2.068-2.485,4.79-3.729,8.168-3.729
		c3.562,0,6.328,1.194,8.295,3.582c1.968,2.388,2.951,5.701,2.951,9.938c0,4.223-1.007,7.552-3.021,9.988s-4.756,3.655-8.226,3.655
		c-3.548,0-6.312-1.23-8.296-3.692C176.163,36.508,175.172,33.19,175.172,29.018z M179.818,29.018c0,6.569,2.208,9.854,6.623,9.854
		c2.06,0,3.675-0.88,4.845-2.641c1.169-1.76,1.754-4.164,1.754-7.213c0-6.487-2.199-9.73-6.599-9.73
		c-2.014,0-3.621,0.864-4.821,2.592C180.419,23.607,179.818,25.986,179.818,29.018z"/>
	<path fill="#DF5C00" d="M206.518,15.986v16.699c0,4.043,1.665,6.063,4.996,6.063c1.456,0,2.788-0.44,3.997-1.32
		c1.208-0.88,2.006-1.898,2.393-3.057V15.986h4.415v26.186h-4.415v-3.618c-0.496,1.026-1.491,1.968-2.985,2.823
		c-1.495,0.856-2.955,1.284-4.38,1.284c-2.728,0-4.814-0.823-6.263-2.47s-2.173-3.985-2.173-7.017V15.986H206.518z"/>
	<path fill="#DF5C00" d="M244.114,42.147v-1.932c-1.534,1.613-3.765,2.421-6.692,2.421c-3.114,0-5.639-1.174-7.575-3.521
		c-1.937-2.347-2.904-5.477-2.904-9.389c0-3.927,1.115-7.281,3.346-10.061c2.23-2.779,4.888-4.168,7.97-4.168
		c2.571,0,4.523,0.636,5.856,1.907V5.253h4.414v36.894H244.114z M244.114,22.05c-1.116-1.76-2.642-2.641-4.578-2.641
		c-2.37,0-4.287,0.929-5.751,2.788c-1.464,1.858-2.196,4.222-2.196,7.09c0,6.308,2.727,9.462,8.18,9.462
		c0.697,0,1.533-0.232,2.51-0.697c0.976-0.464,1.588-0.957,1.836-1.479V22.05z"/>
</g>
</svg>
