<?xml version="1.0" encoding="utf-8"?>
<!-- Generator: Adobe Illustrator 16.0.0, SVG Export Plug-In . SVG Version: 6.00 Build 0)  -->
<!DOCTYPE svg PUBLIC "-//W3C//DTD SVG 1.1//EN" "http://www.w3.org/Graphics/SVG/1.1/DTD/svg11.dtd">
<svg version="1.1" id="Layer_2" xmlns="http://www.w3.org/2000/svg" xmlns:xlink="http://www.w3.org/1999/xlink" x="0px" y="0px"
	 width="449.943px" height="353.956px" viewBox="0 0 449.943 353.956" enable-background="new 0 0 449.943 353.956"
	 xml:space="preserve">
<ellipse fill="#E6BB3D" cx="22.924" cy="164.154" rx="12.29" ry="13.999"/>
<path fill="#483A35" d="M6.238,62.232c-1.047-9.844,6.156-18.697,16.008-19.671L370.422,8.106
	c9.852-0.975,18.735,6.286,19.741,16.134l25.008,244.853c1.006,9.85-6.229,18.735-16.076,19.748L52.239,324.493
	c-9.848,1.013-18.763-6.214-19.81-16.059L6.238,62.232z"/>
<polygon fill="#FFFFFF" points="46,66 367.5,31.5 392.5,263 70.5,298 "/>
<polygon fill="#E7E8F0" points="65.5,76.5 351.5,47 371.5,245.5 87,276.5 "/>
<g>
	<polygon fill="#3C2C26" points="105.758,222.229 96.012,123.746 100.988,123.254 110.242,216.771 299.26,198.512 299.74,203.488 	
		"/>
</g>
<polygon fill="#DB6339" points="290.667,112.333 289.333,85.667 264.333,99.667 276.421,105.481 256.667,130.333 245.667,128.333 
	229,156.333 197,155 188.667,170.333 165,166.667 148,189.667 121,185 108,219.5 117,217.334 123.667,192 151.667,195 
	168.333,173.333 191.333,176.667 200,160.333 232.667,161 247.667,133.667 259,137 279.222,106.828 "/>
<g>
	<path fill="#38A188" d="M133.75,243l-18.136-1.716c-1.544,2.93-2.106,6.164-1.393,9.35c1.676,7.484,9.819,12.216,19.1,11.639
		L133.75,243z"/>
	<path fill="#E6BA3C" d="M133.75,243l0.187,19.211c1.113-0.097,2.237-0.252,3.371-0.506c8.342-1.868,14.53-7.57,16.073-13.991
		C149.235,244.41,140.514,242.67,133.75,243z"/>
	<path fill="#433A34" d="M151.085,252.826c2.27-3.333,3.229-7.189,2.381-10.979c-0.227-1.015-0.581-1.974-1.032-2.88
		C143.522,240.402,131.75,245,131.75,245L151.085,252.826z"/>
	<path fill="#D86438" d="M153.466,241.847c-1.913-8.542-12.249-13.499-23.085-11.071c-10.368,2.322-17.417,10.561-16.333,18.749
		l39.512-7.087C153.524,242.241,153.51,242.043,153.466,241.847z"/>
</g>
<g>
	
		<rect x="234.5" y="204.447" transform="matrix(0.101 0.9949 -0.9949 0.101 459.1388 -13.4293)" fill="#39A28A" width="5" height="85.772"/>
</g>
<g>
	
		<rect x="318.834" y="110.477" transform="matrix(0.0555 0.9985 -0.9985 0.0555 428.8166 -202.3005)" fill="#39A28A" width="5" height="30.046"/>
</g>
<g>
	
		<rect x="318" y="130.152" transform="matrix(0.043 0.9991 -0.9991 0.043 455.1324 -183.7934)" fill="#39A28A" width="11" height="31.029"/>
</g>
<g>
	
		<rect x="324.667" y="158.121" transform="matrix(0.0775 0.997 -0.997 0.0775 474.9275 -166.9314)" fill="#39A28A" width="6" height="30.091"/>
</g>
<g>
	
		<rect x="324.5" y="178.788" transform="matrix(0.0776 0.997 -0.997 0.0776 497.6436 -150.2116)" fill="#39A28A" width="11" height="30.091"/>
</g>
<polygon fill="#8A7467" points="351.5,47 65.5,76.5 67.999,99.741 353.831,70.139 "/>
<circle fill="#FFFFFF" cx="89.5" cy="86" r="5.5"/>
<circle fill="#FFFFFF" cx="105.5" cy="84" r="5.5"/>
<circle fill="#FFFFFF" cx="121.5" cy="82.5" r="5.5"/>
<g>
	<path fill="#FFFFFF" d="M148.993,85c-2.783,0-5.171-2.105-5.464-4.935c-0.312-3.021,1.883-5.724,4.905-6.037l188.5-19.5
		c3.017-0.315,5.725,1.883,6.037,4.905s-1.884,5.724-4.904,6.037l-188.5,19.5C149.374,84.991,149.183,85,148.993,85z"/>
</g>
<g>
	<path fill="#E6BB3D" d="M395.547,177.873c-2.276,0-4.23-1.722-4.47-4.036l-5.312-51.229c-0.257-2.472,1.539-4.684,4.012-4.94
		c2.462-0.252,4.684,1.54,4.939,4.012l5.312,51.229c0.257,2.472-1.539,4.684-4.012,4.94
		C395.859,177.865,395.702,177.873,395.547,177.873z"/>
</g>
<circle fill="#E6BB3D" cx="38.333" cy="161.667" r="8"/>
<circle fill="#E6BB3D" cx="40.333" cy="186.667" r="8"/>
<circle fill="#E6BB3D" cx="43.333" cy="210.667" r="8"/>
</svg>
