<?xml version="1.0" encoding="utf-8"?>
<!-- Generator: Adobe Illustrator 16.0.0, SVG Export Plug-In . SVG Version: 6.00 Build 0)  -->
<!DOCTYPE svg PUBLIC "-//W3C//DTD SVG 1.1//EN" "http://www.w3.org/Graphics/SVG/1.1/DTD/svg11.dtd">
<svg version="1.1" id="Layer_2" xmlns="http://www.w3.org/2000/svg" xmlns:xlink="http://www.w3.org/1999/xlink" x="0px" y="0px"
	 width="416px" height="353.956px" viewBox="0 0 416 353.956" enable-background="new 0 0 416 353.956" xml:space="preserve">
<path fill="#79CBE7" d="M261.274,284.37c-1.059,6.052-6.924,10.486-13.036,9.853l-23.493-2.428
	c-6.109-0.634-14.337,2.705-18.279,7.415l-15.16,18.114c-3.943,4.711-11.24,5.619-16.216,2.016l-19.128-13.85
	c-4.976-3.603-13.768-4.826-19.538-2.717l-22.184,8.105c-5.771,2.109-12.543-0.754-15.051-6.362l-9.643-21.558
	c-2.508-5.609-9.512-11.062-15.563-12.121l-23.264-4.072c-6.051-1.059-10.486-6.924-9.854-13.034l2.43-23.493
	c0.631-6.109-2.705-14.336-7.416-18.278l-18.114-15.161c-4.711-3.942-5.618-11.238-2.015-16.215l13.849-19.127
	c3.602-4.977,4.826-13.769,2.716-19.539l-8.106-22.184c-2.109-5.771,0.754-12.543,6.362-15.052l21.558-9.642
	c5.608-2.508,11.062-9.512,12.122-15.562l4.071-23.268c1.059-6.051,6.925-10.484,13.036-9.852l23.493,2.43
	c6.111,0.631,14.337-2.705,18.279-7.417l15.159-18.113c3.943-4.711,11.241-5.619,16.216-2.016l19.127,13.849
	c4.976,3.603,13.769,4.825,19.539,2.716l22.184-8.106c5.771-2.108,12.544,0.755,15.052,6.363l9.642,21.559
	c2.509,5.607,9.511,11.062,15.563,12.121l23.264,4.071c6.053,1.059,10.487,6.924,9.856,13.036l-2.432,23.492
	c-0.633,6.111,2.706,14.335,7.416,18.278l18.112,15.16c4.712,3.943,5.62,11.241,2.017,16.215l-13.85,19.129
	c-3.603,4.977-4.824,13.767-2.716,19.538l8.105,22.185c2.109,5.77-0.753,12.541-6.362,15.051l-21.557,9.643
	c-5.608,2.51-11.062,9.511-12.122,15.563L261.274,284.37z"/>
<path fill="#00B9D5" d="M191.307,317.324l15.16-18.114c3.942-4.71,12.169-8.049,18.279-7.415l23.493,2.428
	c6.112,0.634,11.978-3.801,13.036-9.853l4.071-23.265c1.061-6.053,6.514-13.054,12.122-15.563l21.557-9.643
	c5.609-2.51,8.472-9.281,6.362-15.051l-8.105-22.185c-2.108-5.771-0.887-14.562,2.716-19.538l13.85-19.129
	c3.604-4.975,2.695-12.272-2.017-16.215l-9.188-7.69L81,254l66.73,48.194c3.096,0.581,6.036,1.706,8.232,3.296l19.128,13.85
	C180.067,322.943,187.364,322.035,191.307,317.324z"/>
<g>
	<path fill="#F2EDE7" d="M249.207,110.935c-0.568,0.325-1.195,0.561-1.879,0.674c-3.062,0.501-5.953-1.574-6.456-4.636
		c0-0.005,0-0.011-0.001-0.016l-171.168,28.09c-5.535,0.908-9.285,6.131-8.375,11.665l6.181,37.671
		c0.204-0.043,0.403-0.096,0.612-0.133c7.375-1.211,14.333,3.788,15.543,11.162c1.211,7.374-3.785,14.331-11.161,15.545
		c-0.208,0.033-0.414,0.044-0.622,0.07l6.249,38.083c0.909,5.533,6.131,9.28,11.666,8.373l171.206-28.095
		c-0.056-0.199-0.104-0.405-0.139-0.612c-0.502-3.062,1.574-5.95,4.639-6.454c0.679-0.112,1.351-0.09,1.992,0.034L249.207,110.935z"
		/>
	<path fill="#E26139" d="M330.087,104.042c0.051-0.008,0.101-0.011,0.152-0.017l-1.875-11.429l-76.403,12.54
		c0.001,0.004,0.005,0.009,0.005,0.015c0.495,3.022-1.521,5.875-4.521,6.431l18.171,110.726c3.02-0.433,5.844,1.623,6.339,4.646
		c0.034,0.207,0.055,0.419,0.064,0.623l76.438-12.543l-2.023-12.339c-0.052,0.009-0.1,0.023-0.148,0.032
		c-3.021,0.494-5.869-1.55-6.365-4.568c-0.494-3.019,1.551-5.869,4.57-6.362c0.049-0.009,0.101-0.011,0.15-0.019l-1.088-6.635
		c-0.051,0.01-0.099,0.023-0.15,0.032c-3.017,0.496-5.864-1.55-6.362-4.567c-0.494-3.021,1.551-5.867,4.568-6.364
		c0.052-0.007,0.103-0.009,0.152-0.016l-1.088-6.634c-0.052,0.01-0.098,0.023-0.15,0.029c-3.018,0.498-5.868-1.549-6.362-4.569
		c-0.496-3.017,1.552-5.865,4.568-6.361c0.051-0.009,0.102-0.01,0.153-0.017l-1.09-6.634c-0.051,0.01-0.099,0.024-0.148,0.031
		c-3.021,0.496-5.868-1.551-6.365-4.569c-0.494-3.018,1.552-5.867,4.569-6.363c0.052-0.007,0.102-0.009,0.153-0.017l-1.089-6.635
		c-0.051,0.01-0.101,0.024-0.15,0.032c-3.02,0.496-5.867-1.55-6.361-4.568c-0.496-3.019,1.549-5.868,4.567-6.363
		c0.05-0.01,0.101-0.01,0.151-0.018l-1.088-6.635c-0.051,0.011-0.098,0.024-0.151,0.033c-3.016,0.496-5.865-1.55-6.361-4.568
		C325.025,107.388,327.069,104.537,330.087,104.042z"/>
	<g>
		<circle fill="#F87545" cx="249.275" cy="123.462" r="5.62"/>
		<path fill="#F87545" d="M257.676,139.953c0.504,3.062-1.573,5.953-4.635,6.456c-3.063,0.504-5.954-1.573-6.456-4.636
			c-0.503-3.061,1.573-5.953,4.635-6.456C254.286,134.814,257.173,136.89,257.676,139.953z"/>
		<circle fill="#F87545" cx="254.986" cy="158.264" r="5.621"/>
		<circle fill="#F87545" cx="257.842" cy="175.665" r="5.619"/>
		<circle fill="#F87545" cx="260.697" cy="193.065" r="5.62"/>
		<circle fill="#F87545" cx="263.554" cy="210.465" r="5.62"/>
	</g>
	<g>
		<path fill="#FAF4EC" d="M248.481,117.904l1.818,11.08c2.999-0.556,5.018-3.408,4.521-6.432
			C254.325,119.529,251.5,117.472,248.481,117.904z"/>
		<path fill="#FAF4EC" d="M251.336,135.304l1.82,11.081c2.997-0.557,5.016-3.409,4.52-6.432
			C257.182,136.929,254.355,134.873,251.336,135.304z"/>
		<path fill="#FAF4EC" d="M254.192,152.704l1.819,11.081c3-0.556,5.017-3.407,4.521-6.431
			C260.036,154.332,257.211,152.274,254.192,152.704z"/>
		<path fill="#FAF4EC" d="M257.048,170.104l1.817,11.082c3.001-0.558,5.02-3.407,4.521-6.432
			C262.892,171.731,260.067,169.674,257.048,170.104z"/>
		<path fill="#FAF4EC" d="M259.904,187.505l1.82,11.079c2.994-0.556,5.016-3.407,4.519-6.429
			C265.747,189.131,262.923,187.074,259.904,187.505z"/>
		<path fill="#FAF4EC" d="M262.761,204.905l1.815,11.078c3.002-0.553,5.019-3.402,4.523-6.429
			C268.604,206.53,265.78,204.476,262.761,204.905z"/>
	</g>
	<path fill="#F9B7A5" d="M325.751,111.302c0.001,0.306,0.016,0.614,0.067,0.924c0.497,3.019,3.344,5.065,6.363,4.57
		c0.049-0.009,0.097-0.023,0.149-0.034l-0.3-1.822c-0.051,0.011-0.098,0.024-0.151,0.033
		C329.176,115.418,326.609,113.815,325.751,111.302z"/>
	<path fill="#F9B7A5" d="M328.631,128.854c-0.001,0.305,0.018,0.614,0.066,0.925c0.497,3.018,3.345,5.063,6.363,4.568
		c0.053-0.007,0.101-0.022,0.148-0.033l-0.297-1.821c-0.051,0.01-0.101,0.024-0.15,0.032
		C332.055,132.968,329.491,131.365,328.631,128.854z"/>
	<path fill="#F9B7A5" d="M331.512,146.403c-0.002,0.307,0.017,0.615,0.067,0.925c0.496,3.02,3.345,5.065,6.36,4.569
		c0.053-0.008,0.1-0.022,0.152-0.033l-0.3-1.821c-0.051,0.01-0.099,0.024-0.148,0.031
		C334.935,150.52,332.372,148.917,331.512,146.403z"/>
	<path fill="#F9B7A5" d="M334.392,163.955c0,0.305,0.015,0.613,0.067,0.926c0.496,3.016,3.344,5.062,6.363,4.567
		c0.049-0.009,0.099-0.023,0.148-0.032l-0.298-1.82c-0.052,0.01-0.098,0.023-0.15,0.029
		C337.817,168.072,335.251,166.469,334.392,163.955z"/>
	<path fill="#F9B7A5" d="M337.272,181.506c-0.001,0.306,0.017,0.612,0.065,0.925c0.496,3.017,3.347,5.063,6.366,4.567
		c0.048-0.009,0.096-0.022,0.148-0.03l-0.3-1.823c-0.051,0.01-0.099,0.023-0.15,0.032
		C340.697,185.622,338.132,184.018,337.272,181.506z"/>
	<path fill="#F9B7A5" d="M340.153,199.058c-0.002,0.305,0.016,0.613,0.066,0.924c0.496,3.02,3.344,5.064,6.362,4.567
		c0.051-0.007,0.098-0.023,0.149-0.031l-0.298-1.821c-0.052,0.009-0.1,0.023-0.148,0.032
		C343.575,203.174,341.011,201.571,340.153,199.058z"/>
	<polygon fill="#0F1C40" points="312.496,118.467 270.293,125.394 269.692,121.75 311.902,114.824 	"/>
	
		<rect x="270.737" y="125.332" transform="matrix(0.9868 -0.1619 0.1619 0.9868 -16.608 48.9722)" fill="#0F1C40" width="42.773" height="2.077"/>
	
		<rect x="271.708" y="131.254" transform="matrix(0.9868 -0.1619 0.1619 0.9868 -17.5538 49.2065)" fill="#0F1C40" width="42.773" height="2.076"/>
	
		<rect x="272.775" y="137.745" transform="matrix(0.9868 -0.1619 0.1619 0.9868 -18.5911 49.466)" fill="#0F1C40" width="42.773" height="2.076"/>
	
		<rect x="273.727" y="143.552" transform="matrix(0.9868 -0.1619 0.1619 0.9868 -19.52 49.7)" fill="#0F1C40" width="42.77" height="2.077"/>
	
		<rect x="274.772" y="149.119" transform="matrix(0.9868 -0.162 0.162 0.9868 -20.5409 49.9609)" fill="#0F1C40" width="42.773" height="3.694"/>
	
		<rect x="275.783" y="156.076" transform="matrix(0.9868 -0.162 0.162 0.9868 -21.5264 50.2139)" fill="#0F1C40" width="42.769" height="2.079"/>
	
		<rect x="276.753" y="161.998" transform="matrix(0.9868 -0.162 0.162 0.9868 -22.4698 50.4412)" fill="#0F1C40" width="42.773" height="2.077"/>
	
		<rect x="277.82" y="168.488" transform="matrix(0.9868 -0.162 0.162 0.9868 -23.507 50.6997)" fill="#0F1C40" width="42.773" height="2.078"/>
	
		<rect x="278.773" y="174.297" transform="matrix(0.9868 -0.162 0.162 0.9868 -24.4333 50.9256)" fill="#0F1C40" width="42.771" height="2.077"/>
	
		<rect x="280.791" y="186.597" transform="matrix(0.9868 -0.1619 0.1619 0.9868 -26.3913 51.3977)" fill="#0F1C40" width="42.772" height="2.074"/>
	
		<rect x="281.707" y="192.174" transform="matrix(0.9868 -0.1619 0.1619 0.9868 -27.285 51.6258)" fill="#0F1C40" width="42.773" height="2.077"/>
	
		<rect x="282.66" y="197.983" transform="matrix(0.9868 -0.1619 0.1619 0.9868 -28.2101 51.8505)" fill="#0F1C40" width="42.772" height="2.075"/>
	
		<rect x="279.819" y="179.866" transform="matrix(0.9868 -0.1619 0.1619 0.9868 -25.4489 51.1707)" fill="#0F1C40" width="42.771" height="3.693"/>
	<path fill="none" stroke="#776B68" stroke-width="0.9231" stroke-miterlimit="10" d="M237.165,115.713L71.401,142.917
		c-2.012,0.33-3.376,2.23-3.046,4.241l4.872,29.688c8.831,1.668,16.092,8.683,17.632,18.064c1.54,9.38-3.099,18.348-10.934,22.749
		l4.789,29.179c0.331,2.011,2.229,3.376,4.241,3.046l165.766-27.203l3.045-4.244l-16.359-99.678L237.165,115.713z"/>
	
		<rect x="110.553" y="172.383" transform="matrix(0.9868 -0.162 0.162 0.9868 -26.5814 28.6612)" fill="#E3E4E0" width="103.918" height="9.984"/>
	
		<rect x="113.886" y="192.693" transform="matrix(0.9868 -0.1619 0.1619 0.9868 -29.8237 29.4659)" fill="#E3E4E0" width="103.917" height="9.983"/>
	
		<rect x="117.219" y="213" transform="matrix(0.9868 -0.1619 0.1619 0.9868 -33.0646 30.2697)" fill="#E3E4E0" width="103.917" height="9.984"/>
	<g>
		<path fill="#04264D" d="M121.992,159.366l0.589,3.598c0.711,4.332-1.049,7.165-5.227,7.849c-4.178,0.688-6.75-1.435-7.461-5.767
			l-2.311-14.08c-0.711-4.333,1.048-7.165,5.227-7.851c4.179-0.684,6.75,1.436,7.462,5.77l0.433,2.629l-4.023,0.66l-0.477-2.902
			c-0.318-1.934-1.291-2.528-2.644-2.307s-2.083,1.097-1.766,3.03l2.399,14.625c0.318,1.934,1.282,2.491,2.637,2.268
			c1.353-0.222,2.091-1.058,1.773-2.992l-0.635-3.868L121.992,159.366z"/>
		<path fill="#04264D" d="M131.271,140.404l3.428,20.889c0.317,1.933,1.283,2.491,2.638,2.268c1.354-0.222,2.09-1.058,1.773-2.992
			l-3.429-20.889l4.023-0.661l3.384,20.619c0.71,4.333-1.048,7.164-5.227,7.849c-4.178,0.687-6.75-1.435-7.461-5.767l-3.383-20.618
			L131.271,140.404z"/>
		<path fill="#04264D" d="M161.729,142.277l0.578,3.521c0.711,4.333-0.992,7.036-5.247,7.733l-2.012,0.331l1.67,10.173l-4.254,0.698
			l-4.443-27.079l6.266-1.027C158.542,135.929,161.017,137.945,161.729,142.277z M152.909,140.825l1.505,9.168l2.012-0.33
			c1.354-0.222,1.987-0.961,1.669-2.896l-0.666-4.062c-0.318-1.933-1.154-2.432-2.507-2.21L152.909,140.825z"/>
		<path fill="#04264D" d="M168.735,140.931c-0.711-4.333,1.164-7.185,5.342-7.87s6.868,1.417,7.579,5.75l2.312,14.08
			c0.71,4.333-1.167,7.183-5.344,7.87c-4.179,0.685-6.866-1.417-7.577-5.75L168.735,140.931z M177.754,126.896l-3.241,4.941
			l-2.864,0.471l1.926-4.727L177.754,126.896z M175.345,154.583c0.318,1.934,1.29,2.53,2.643,2.308
			c1.354-0.221,2.085-1.097,1.767-3.031l-2.4-14.622c-0.317-1.935-1.29-2.53-2.643-2.308c-1.354,0.222-2.084,1.098-1.766,3.031
			L175.345,154.583z"/>
		<path fill="#04264D" d="M193.843,137.802l-0.078,0.012l3.22,19.613l-3.83,0.628l-4.444-27.078l5.338-0.876l6.954,15.505
			l0.077-0.014l-2.66-16.209l3.792-0.623l4.442,27.079l-4.37,0.717L193.843,137.802z"/>
	</g>
</g>
<g>
	<path fill="#FAF4EC" d="M204.446,70.417c-0.404,0.514-0.898,0.968-1.488,1.329c-2.651,1.614-6.11,0.774-7.724-1.876
		c-0.002-0.005-0.003-0.011-0.007-0.015L47.085,160.089c-4.79,2.918-6.307,9.167-3.39,13.955l19.858,32.604
		c0.173-0.117,0.337-0.242,0.518-0.352c6.382-3.889,14.707-1.865,18.595,4.517c3.888,6.382,1.866,14.707-4.517,18.596
		c-0.18,0.109-0.367,0.197-0.55,0.299l20.075,32.958c2.918,4.79,9.165,6.307,13.955,3.389l148.174-90.252
		c-0.129-0.163-0.248-0.336-0.359-0.516c-1.613-2.651-0.773-6.107,1.878-7.723c0.589-0.359,1.22-0.59,1.861-0.715L204.446,70.417z"
		/>
	<path fill="#F67343" d="M276.837,33.695c0.046-0.026,0.091-0.047,0.136-0.073l-6.024-9.891l-66.124,40.278
		c0.003,0.005,0.006,0.008,0.009,0.013c1.593,2.617,0.793,6.018-1.779,7.657l58.371,95.829c2.636-1.533,6.026-0.687,7.619,1.932
		c0.109,0.18,0.207,0.365,0.293,0.553l66.154-40.295l-6.503-10.679c-0.044,0.029-0.083,0.06-0.126,0.086
		c-2.612,1.592-6.021,0.764-7.612-1.848c-1.591-2.612-0.765-6.022,1.849-7.613c0.043-0.027,0.089-0.047,0.134-0.072l-3.497-5.743
		c-0.044,0.027-0.083,0.06-0.127,0.085c-2.611,1.591-6.02,0.764-7.611-1.849c-1.592-2.613-0.763-6.021,1.85-7.611
		c0.043-0.027,0.09-0.047,0.135-0.073l-3.498-5.742c-0.044,0.028-0.083,0.06-0.127,0.086c-2.611,1.591-6.021,0.763-7.612-1.85
		c-1.59-2.611-0.762-6.02,1.85-7.611c0.043-0.026,0.091-0.047,0.136-0.073l-3.499-5.741c-0.043,0.028-0.082,0.059-0.126,0.086
		c-2.612,1.591-6.021,0.763-7.612-1.85c-1.59-2.611-0.764-6.02,1.849-7.61c0.044-0.028,0.09-0.048,0.136-0.074l-3.498-5.742
		c-0.043,0.028-0.083,0.059-0.127,0.086c-2.612,1.591-6.021,0.762-7.611-1.849c-1.591-2.613-0.764-6.02,1.849-7.611
		c0.043-0.027,0.09-0.047,0.135-0.074l-3.497-5.742c-0.043,0.029-0.082,0.06-0.128,0.087c-2.611,1.591-6.02,0.763-7.611-1.85
		C273.398,38.695,274.226,35.286,276.837,33.695z"/>
	<g>
		<circle fill="#F87545" cx="209.206" cy="82.005" r="5.62"/>
		<circle fill="#F87545" cx="218.38" cy="97.065" r="5.62"/>
		<circle fill="#F87545" cx="227.554" cy="112.125" r="5.621"/>
		<circle fill="#F87545" cx="236.726" cy="127.185" r="5.62"/>
		<circle fill="#F87545" cx="245.899" cy="142.245" r="5.62"/>
		<circle fill="#F87545" cx="255.072" cy="157.302" r="5.62"/>
	</g>
	<g>
		<path fill="#FAF4EC" d="M206.387,77.149l5.84,9.589c2.572-1.641,3.373-5.041,1.778-7.657
			C212.413,76.465,209.022,75.617,206.387,77.149z"/>
		<path fill="#FAF4EC" d="M215.56,92.209l5.842,9.59c2.57-1.64,3.372-5.041,1.778-7.657
			C221.586,91.524,218.197,90.677,215.56,92.209z"/>
		<path fill="#FAF4EC" d="M224.732,107.269l5.841,9.589c2.572-1.641,3.374-5.041,1.781-7.657
			C230.759,106.585,227.37,105.737,224.732,107.269z"/>
		<path fill="#FAF4EC" d="M233.905,122.329l5.841,9.59c2.572-1.641,3.373-5.041,1.779-7.657
			C239.933,121.643,236.542,120.796,233.905,122.329z"/>
		<path fill="#FAF4EC" d="M243.079,137.388l5.842,9.589c2.569-1.64,3.373-5.041,1.778-7.656
			C249.104,136.702,245.717,135.855,243.079,137.388z"/>
		<path fill="#FAF4EC" d="M252.252,152.448l5.84,9.589c2.573-1.64,3.374-5.04,1.78-7.657
			C258.277,151.762,254.889,150.916,252.252,152.448z"/>
	</g>
	<path fill="#F9B7A5" d="M275.539,42.052c0.115,0.283,0.246,0.562,0.411,0.831c1.592,2.613,5,3.441,7.61,1.85
		c0.044-0.027,0.084-0.058,0.127-0.086l-0.96-1.577c-0.043,0.029-0.082,0.06-0.128,0.087
		C280.258,44.583,277.28,44.059,275.539,42.052z"/>
	<path fill="#F9B7A5" d="M284.793,57.242c0.113,0.284,0.246,0.563,0.409,0.832c1.591,2.612,4.998,3.44,7.611,1.849
		c0.045-0.026,0.084-0.058,0.126-0.086l-0.96-1.577c-0.043,0.028-0.083,0.059-0.127,0.086
		C289.51,59.772,286.531,59.248,284.793,57.242z"/>
	<path fill="#F9B7A5" d="M294.045,72.431c0.113,0.284,0.246,0.563,0.409,0.832c1.591,2.612,5,3.441,7.611,1.85
		c0.044-0.027,0.083-0.059,0.127-0.087l-0.961-1.577c-0.043,0.028-0.082,0.059-0.126,0.086
		C298.762,74.962,295.785,74.438,294.045,72.431z"/>
	<path fill="#F9B7A5" d="M303.297,87.621c0.115,0.283,0.245,0.563,0.411,0.833c1.589,2.611,4.997,3.44,7.61,1.849
		c0.043-0.027,0.082-0.058,0.127-0.086l-0.961-1.577c-0.044,0.028-0.083,0.06-0.127,0.086
		C308.016,90.152,305.035,89.628,303.297,87.621z"/>
	<path fill="#F9B7A5" d="M312.55,102.811c0.113,0.283,0.245,0.562,0.408,0.831c1.592,2.613,5,3.441,7.612,1.85
		c0.043-0.027,0.082-0.058,0.127-0.085l-0.961-1.577c-0.044,0.027-0.083,0.06-0.127,0.085
		C317.268,105.34,314.288,104.816,312.55,102.811z"/>
	<path fill="#F9B7A5" d="M321.803,118c0.113,0.283,0.245,0.562,0.408,0.832c1.592,2.613,4.999,3.44,7.611,1.849
		c0.045-0.026,0.082-0.058,0.127-0.086l-0.96-1.577c-0.044,0.029-0.083,0.06-0.126,0.086C326.52,120.532,323.54,120.008,321.803,118
		z"/>
	
		<rect x="225.331" y="61.366" transform="matrix(0.854 -0.5202 0.5202 0.854 3.1282 137.5732)" fill="#0F1C40" width="42.772" height="3.692"/>
	
		<rect x="228.632" y="67.593" transform="matrix(0.854 -0.5202 0.5202 0.854 0.789 140.0763)" fill="#0F1C40" width="42.772" height="2.077"/>
	
		<rect x="231.754" y="72.718" transform="matrix(0.854 -0.5202 0.5202 0.854 -1.4204 142.4509)" fill="#0F1C40" width="42.772" height="2.077"/>
	
		<rect x="235.175" y="78.336" transform="matrix(0.854 -0.5202 0.5202 0.854 -3.844 145.0481)" fill="#0F1C40" width="42.772" height="2.076"/>
	
		<rect x="238.237" y="83.362" transform="matrix(0.854 -0.5202 0.5202 0.854 -6.0096 147.3823)" fill="#0F1C40" width="42.772" height="2.076"/>
	
		<rect x="241.599" y="88.071" transform="matrix(0.854 -0.5202 0.5202 0.854 -8.3903 149.9337)" fill="#0F1C40" width="42.773" height="3.694"/>
	
		<rect x="244.84" y="94.202" transform="matrix(0.854 -0.5202 0.5202 0.854 -10.6858 152.3973)" fill="#0F1C40" width="42.772" height="2.076"/>
	
		<rect x="247.962" y="99.326" transform="matrix(0.854 -0.5202 0.5202 0.854 -12.8941 154.7778)" fill="#0F1C40" width="42.771" height="2.077"/>
	
		<rect x="251.384" y="104.944" transform="matrix(0.854 -0.5202 0.5202 0.854 -15.3189 157.3694)" fill="#0F1C40" width="42.772" height="2.077"/>
	
		<rect x="254.445" y="109.969" transform="matrix(0.854 -0.5202 0.5202 0.854 -17.4861 159.6985)" fill="#0F1C40" width="42.772" height="2.078"/>
	
		<rect x="260.928" y="120.615" transform="matrix(0.854 -0.5202 0.5202 0.854 -22.0779 164.6182)" fill="#0F1C40" width="42.772" height="2.076"/>
	
		<rect x="263.869" y="125.443" transform="matrix(0.854 -0.5202 0.5202 0.854 -24.161 166.8499)" fill="#0F1C40" width="42.772" height="2.077"/>
	
		<rect x="266.93" y="130.468" transform="matrix(0.854 -0.5202 0.5202 0.854 -26.3278 169.1821)" fill="#0F1C40" width="42.773" height="2.077"/>
	
		<rect x="257.806" y="114.681" transform="matrix(0.8541 -0.5202 0.5202 0.8541 -19.8691 162.2369)" fill="#0F1C40" width="42.773" height="3.693"/>
	<path fill="none" stroke="#776B68" stroke-width="0.9231" stroke-miterlimit="10" d="M195.074,79.364L51.612,166.748
		c-1.741,1.06-2.293,3.335-1.232,5.074l15.65,25.695c8.812-1.766,18.174,2.014,23.119,10.133c4.946,8.119,4.008,18.171-1.604,25.19
		l15.382,25.254c1.061,1.739,3.333,2.291,5.074,1.231l143.464-87.387l1.231-5.073l-52.547-86.27L195.074,79.364z"/>
	
		<rect x="97.036" y="159.53" transform="matrix(0.854 -0.5202 0.5202 0.854 -63.8398 101.5267)" fill="#E3E4E0" width="103.919" height="9.985"/>
	
		<rect x="107.743" y="177.108" transform="matrix(0.854 -0.5202 0.5202 0.854 -71.4191 109.6564)" fill="#E3E4E0" width="103.917" height="9.982"/>
	
		<rect x="118.448" y="194.682" transform="matrix(0.854 -0.5202 0.5202 0.854 -78.9996 117.7927)" fill="#E3E4E0" width="103.919" height="9.985"/>
	<g>
		<path fill="#04264D" d="M104.679,163.024l1.896,3.113c2.284,3.75,1.715,7.037-1.902,9.237c-3.616,2.204-6.795,1.201-9.079-2.548
			l-7.423-12.185c-2.284-3.75-1.715-7.035,1.901-9.238c3.616-2.202,6.795-1.201,9.081,2.549l1.386,2.276l-3.482,2.121l-1.53-2.512
			c-1.02-1.673-2.144-1.859-3.315-1.147c-1.172,0.713-1.52,1.799-0.5,3.472l7.708,12.657c1.02,1.674,2.123,1.828,3.294,1.113
			c1.171-0.713,1.542-1.765,0.522-3.438l-2.04-3.349L104.679,163.024z"/>
		<path fill="#04264D" d="M106.17,141.965l11.012,18.08c1.019,1.672,2.124,1.827,3.295,1.113c1.173-0.713,1.541-1.765,0.522-3.439
			l-11.013-18.079l3.482-2.121l10.869,17.845c2.284,3.751,1.714,7.034-1.901,9.236c-3.616,2.204-6.796,1.202-9.08-2.547
			l-10.869-17.845L106.17,141.965z"/>
		<path fill="#04264D" d="M135.107,132.28l1.856,3.046c2.284,3.751,1.719,6.895-1.963,9.137l-1.741,1.062l5.363,8.804l-3.683,2.243
			l-14.274-23.435l5.423-3.303C129.771,127.59,132.822,128.531,135.107,132.28z M126.386,134.242l4.833,7.934l1.741-1.061
			c1.172-0.713,1.481-1.636,0.461-3.311l-2.141-3.515c-1.02-1.674-1.981-1.822-3.153-1.108L126.386,134.242z"/>
		<path fill="#04264D" d="M141.096,128.404c-2.284-3.75-1.615-7.096,2.001-9.299c3.616-2.202,6.897-1.263,9.181,2.487l7.423,12.186
			c2.284,3.75,1.613,7.096-2.002,9.299c-3.616,2.202-6.896,1.262-9.18-2.488L141.096,128.404z M144.193,112.012l-1.151,5.796
			l-2.478,1.51l0.013-5.104L144.193,112.012z M152.344,138.581c1.02,1.674,2.144,1.862,3.315,1.148
			c1.171-0.713,1.521-1.798,0.501-3.473l-7.709-12.655c-1.02-1.674-2.144-1.861-3.315-1.147c-1.172,0.713-1.521,1.797-0.5,3.472
			L152.344,138.581z"/>
		<path fill="#04264D" d="M163.199,116.088l-0.067,0.041l10.339,16.974l-3.314,2.019l-14.274-23.436l4.619-2.814l12.261,11.765
			l0.067-0.041l-8.545-14.028l3.28-1.998l14.275,23.436l-3.783,2.304L163.199,116.088z"/>
	</g>
</g>
</svg>
