<?xml version="1.0" encoding="utf-8"?>
<!-- Generator: Adobe Illustrator 16.0.0, SVG Export Plug-In . SVG Version: 6.00 Build 0)  -->
<!DOCTYPE svg PUBLIC "-//W3C//DTD SVG 1.1//EN" "http://www.w3.org/Graphics/SVG/1.1/DTD/svg11.dtd">
<svg version="1.1" xmlns="http://www.w3.org/2000/svg" xmlns:xlink="http://www.w3.org/1999/xlink" x="0px" y="0px" width="440px"
	 height="350px" viewBox="0 0 440 350" enable-background="new 0 0 440 350" xml:space="preserve">
<g id="Layer_1">
</g>
<g id="Layer_2">
	<polygon fill="#E8E8E7" points="255.735,333.882 168.34,333.882 161.34,338.629 262.735,338.629 	"/>
	<polygon fill="#FFFFFF" points="255.735,333.882 168.34,333.882 175.34,319.13 248.735,319.13 	"/>
	<polygon fill="#E4E4E3" points="241.735,303.531 182.34,303.531 175.34,319.13 248.735,319.13 	"/>
	<g>
		<rect x="83.5" y="129.5" fill="#4C596C" width="259.5" height="180.5"/>
		<rect x="214.5" y="129.5" fill="#2A3950" width="128.5" height="180.5"/>
	</g>
	<rect x="90" y="137.5" fill="#F7F7F7" width="246.5" height="148.5"/>
	<circle fill="#F3CB00" cx="114.766" cy="215.652" r="18.496"/>
	<circle fill="#52BEDB" cx="114.766" cy="262.652" r="18.496"/>
	<circle fill="#4CC7B8" cx="114.766" cy="168.652" r="18.496"/>
	<circle fill="#F9600C" cx="292.203" cy="184.543" r="35.139"/>
	<g>
		<path fill="#30A9C1" d="M186.604,141.924h60.941c0,0,0-9.678,0-15.371c0-5.693-1.476-8.329-4.851-11.703
			c-3.373-3.374-6.748-4.85-13.391-4.85s-17.606,0-23.721,0c-6.115,0-11.703,0.738-14.76,4.112
			c-3.058,3.374-4.323,7.38-4.323,11.386C186.5,129.504,186.604,141.924,186.604,141.924z"/>
		<path fill="#2A98AD" d="M229.305,110c-3.48,0-8.146,0-12.68,0v31.924h30.921c0,0,0-9.678,0-15.371
			c0-5.693-1.476-8.329-4.851-11.703C239.322,111.476,235.947,110,229.305,110z"/>
		<path fill="#E3CEA1" d="M208.375,99.25v10.778h-3.75c0,0,5.875,22.847,12,22.847c2.125,0,11-11.25,11.75-22.375c-1.75,0-3,0-3,0
			V97.75L208.375,99.25z"/>
		<path fill="#CEBC8D" d="M225.375,97.75l-8.5,0.75v34.331c2.49-0.749,10.776-12.026,11.5-22.761c-1.75,0-3,0-3,0V97.75z"/>
		<path fill="#F8E6B8" d="M204.8,80.351c-0.878,1.464-0.644,4.273-0.585,5.268c-0.937-0.117-1.99-1.288-2.049,0.937
			s0.176,4.917,0.995,5.913c0.819,0.994,2.166,1.638,2.166,1.638s-0.116,0.82,0,1.346c0.117,0.527,1.932,4.39,4.625,7.258
			c2.691,2.868,3.395,5.279,7.025,5.279s7.197-5.454,9.07-8.439s3.103-6.146,3.278-6.849s0.059-1.171,0.059-1.171
			s1.756-0.702,1.873-2.517c0.117-1.814,0.293-4.624-1.054-4.331c-0.293-2.049-1.171-5.034-2.049-6.731
			c-0.878-1.698-5.678-5.151-13.346-4.156S204.8,80.351,204.8,80.351z"/>
		<path fill="#DFCFA6" d="M230.204,84.683c-0.293-2.049-1.171-5.034-2.049-6.731c-0.052-0.1-0.119-0.207-0.198-0.318
			c-0.026-0.037-0.061-0.077-0.09-0.115c-0.059-0.075-0.118-0.151-0.188-0.229c-0.044-0.05-0.095-0.101-0.144-0.152
			c-0.066-0.07-0.135-0.14-0.21-0.211c-0.062-0.059-0.127-0.118-0.194-0.178c-0.073-0.065-0.15-0.13-0.23-0.196
			c-0.08-0.065-0.163-0.131-0.25-0.197c-0.078-0.06-0.161-0.119-0.244-0.178c-0.101-0.072-0.202-0.144-0.312-0.215
			c-0.076-0.05-0.158-0.1-0.237-0.15c-0.128-0.079-0.254-0.159-0.391-0.236c-0.055-0.032-0.115-0.062-0.172-0.093
			c-0.577-0.317-1.229-0.619-1.962-0.882c-0.015-0.005-0.028-0.011-0.043-0.016c-0.222-0.079-0.454-0.152-0.689-0.224
			c-0.064-0.02-0.128-0.041-0.194-0.061c-0.225-0.065-0.458-0.125-0.694-0.182c-0.085-0.021-0.169-0.041-0.255-0.061
			c-0.235-0.053-0.477-0.102-0.724-0.146c-0.093-0.017-0.188-0.033-0.283-0.048c-0.251-0.041-0.506-0.078-0.769-0.109
			c-0.094-0.011-0.191-0.02-0.287-0.029c-0.273-0.028-0.549-0.053-0.833-0.069c-0.079-0.004-0.162-0.005-0.242-0.008
			c-0.307-0.014-0.616-0.024-0.936-0.022v34.329c3.488-0.383,6.86-5.529,8.663-8.402c1.873-2.985,3.103-6.146,3.278-6.849
			s0.059-1.171,0.059-1.171s1.756-0.702,1.873-2.517C231.375,87.2,231.551,84.39,230.204,84.683z"/>
		<path fill="#2B3C52" d="M208.071,72.925c0,0-3.469,2.344-4.312,9.187c2.062-2.625,5.25-5.062,5.25-5.062l0.375,2.531l2.906-3.468
			l4.5,5.156l0.469-3.937l4.686,5.53c0,0,1.875-5.624,1.781-7.499c2.344,3.187,5.624,6.093,5.624,6.093s-0.375-3.843-2.155-7.03
			c0.75,0.281,1.405,0.094,1.405,0.094s-3.749-4.875-12.936-4.688c0.375-1.218,0.469-2.062,0.469-2.062l-3.093,2.531h-7.124
			L208.071,72.925z"/>
		<path fill="#FFFFFF" d="M203.257,110.041c0.923,9.437,8.915,23.79,13.618,23.79c2.867,0,6.315-4.342,8.587-8.406
			c2.752-4.922,4.452-10.435,4.799-15.411c-0.313-0.007-0.628-0.014-0.956-0.014c-0.334,0-0.687,0-1.041,0
			c-0.787,11.242-8.511,21.831-11.389,21.831c-2.641,0-10.708-12.436-11.621-21.829
			C204.581,110.005,203.914,110.017,203.257,110.041z"/>
	</g>
	<g>
		<path fill="#30A9C1" d="M127.141,222.061c-1.578-1.579-3.157-2.27-6.264-2.27c-3.108,0-8.236,0-11.097,0s-5.475,0.346-6.905,1.925
			c-1.43,1.578-2.022,3.452-2.022,5.326c0,0.21,0,0.476,0.002,0.771c3.39,3.876,8.359,6.335,13.912,6.335
			c5.957,0,11.24-2.827,14.623-7.199C129.288,224.691,128.596,223.515,127.141,222.061z"/>
		<path fill="#2A98AD" d="M129.389,226.949c-0.101-2.258-0.793-3.435-2.249-4.889c-1.578-1.579-3.157-2.27-6.264-2.27
			c-1.628,0-3.811,0-5.932,0v14.349C120.828,234.083,126.041,231.277,129.389,226.949z"/>
		<path fill="#E3CEA1" d="M111.085,214.763v5.042h-1.754c0,0,2.748,10.688,5.614,10.688c0.994,0,5.146-5.263,5.497-10.468
			c-0.818,0-1.403,0-1.403,0v-5.964L111.085,214.763z"/>
		<path fill="#CEBC8D" d="M119.038,214.062l-3.977,0.351v16.061c1.165-0.352,5.042-5.627,5.38-10.648c-0.818,0-1.403,0-1.403,0
			V214.062z"/>
		<path fill="#F8E6B8" d="M109.413,205.922c-0.411,0.686-0.301,1.998-0.274,2.464c-0.438-0.054-0.931-0.602-0.958,0.439
			c-0.028,1.039,0.082,2.3,0.465,2.766c0.383,0.464,1.013,0.766,1.013,0.766s-0.054,0.384,0,0.629
			c0.055,0.247,0.904,2.055,2.164,3.396c1.259,1.342,1.587,2.47,3.286,2.47s3.367-2.551,4.243-3.949
			c0.876-1.395,1.452-2.874,1.534-3.203c0.082-0.328,0.027-0.548,0.027-0.548s0.821-0.328,0.876-1.177
			c0.055-0.849,0.137-2.163-0.493-2.027c-0.137-0.958-0.548-2.354-0.958-3.147c-0.411-0.795-2.656-2.411-6.244-1.945
			C110.508,203.319,109.413,205.922,109.413,205.922z"/>
		<path fill="#DFCFA6" d="M121.297,207.947c-0.137-0.958-0.548-2.354-0.958-3.147c-0.025-0.048-0.056-0.098-0.093-0.149
			c-0.013-0.018-0.029-0.035-0.042-0.055c-0.027-0.034-0.055-0.07-0.087-0.106c-0.021-0.023-0.044-0.048-0.067-0.071
			c-0.031-0.033-0.063-0.065-0.099-0.099c-0.029-0.028-0.059-0.056-0.091-0.084c-0.035-0.03-0.07-0.061-0.108-0.092
			c-0.038-0.03-0.076-0.061-0.117-0.092c-0.036-0.027-0.075-0.055-0.114-0.084c-0.047-0.033-0.095-0.066-0.146-0.1
			c-0.036-0.024-0.074-0.047-0.111-0.071c-0.06-0.036-0.119-0.073-0.183-0.11c-0.025-0.015-0.054-0.029-0.08-0.043
			c-0.27-0.148-0.575-0.289-0.917-0.413c-0.007-0.003-0.013-0.005-0.021-0.008c-0.104-0.036-0.212-0.071-0.322-0.104
			c-0.03-0.01-0.06-0.02-0.091-0.027c-0.105-0.031-0.214-0.059-0.325-0.086c-0.04-0.01-0.079-0.02-0.119-0.029
			c-0.11-0.023-0.223-0.046-0.338-0.067c-0.044-0.008-0.088-0.015-0.133-0.021c-0.118-0.021-0.237-0.037-0.359-0.052
			c-0.044-0.005-0.089-0.01-0.134-0.014c-0.127-0.014-0.257-0.024-0.39-0.032c-0.037-0.002-0.076-0.003-0.113-0.004
			c-0.143-0.006-0.288-0.011-0.438-0.011v16.059c1.632-0.179,3.209-2.585,4.052-3.931c0.876-1.395,1.452-2.874,1.534-3.203
			c0.082-0.328,0.027-0.548,0.027-0.548s0.821-0.328,0.876-1.177C121.845,209.126,121.927,207.812,121.297,207.947z"/>
		<path fill="#2B3C52" d="M110.943,202.447c0,0-1.623,1.097-2.017,4.298c0.965-1.228,2.456-2.368,2.456-2.368l0.175,1.185
			l1.359-1.622l2.105,2.411l0.219-1.842l2.193,2.588c0,0,0.876-2.631,0.833-3.509c1.096,1.491,2.631,2.851,2.631,2.851
			s-0.176-1.799-1.008-3.289c0.351,0.132,0.657,0.044,0.657,0.044s-1.753-2.28-6.052-2.192c0.175-0.569,0.22-0.965,0.22-0.965
			l-1.447,1.184h-3.333L110.943,202.447z"/>
		<path fill="#FFFFFF" d="M108.691,219.811c0.432,4.414,4.17,11.13,6.37,11.13c1.341,0,2.954-2.031,4.017-3.933
			c1.288-2.303,2.083-4.883,2.245-7.21c-0.146-0.004-0.293-0.007-0.447-0.007c-0.156,0-0.321,0-0.487,0
			c-0.368,5.26-3.982,10.214-5.328,10.214c-1.235,0-5.01-5.818-5.437-10.212C109.31,219.794,108.999,219.799,108.691,219.811z"/>
	</g>
	<g>
		<path fill="#51BF32" d="M352.241,97.757h43.135c0,0,0-6.85,0-10.88s-1.045-5.896-3.435-8.284
			c-2.387-2.388-4.776-3.433-9.478-3.433c-4.702,0-12.462,0-16.79,0s-8.283,0.522-10.447,2.911
			c-2.165,2.388-3.061,5.224-3.061,8.059C352.166,88.967,352.241,97.757,352.241,97.757z"/>
		<path fill="#41A520" d="M382.464,75.161c-2.464,0-5.765,0-8.975,0v22.596h21.887c0,0,0-6.85,0-10.88s-1.045-5.896-3.435-8.284
			C389.555,76.206,387.165,75.161,382.464,75.161z"/>
		<g>
			<path fill="#E3CEA1" d="M367.649,67.552v7.629h-2.654c0,0,1.612,9.006,8.494,9.399c1.504,0,7.785-1.19,8.316-9.065
				c-1.238,0-2.123,0-2.123,0v-9.024L367.649,67.552z"/>
			<path fill="#CEBC8D" d="M379.683,66.491l-6.017,0.531v17.527c1.763-0.53,7.628-1.74,8.14-9.337c-1.238,0-2.123,0-2.123,0V66.491z
				"/>
		</g>
		<path fill="#F8E6B8" d="M365.12,54.175c-0.622,1.036-0.457,3.025-0.415,3.729c-0.662-0.083-1.409-0.912-1.45,0.663
			c-0.042,1.574,0.124,3.48,0.705,4.185c0.579,0.704,1.533,1.16,1.533,1.16s-0.083,0.581,0,0.953
			c0.082,0.373,1.367,3.107,3.273,5.137c1.905,2.03,2.402,3.736,4.973,3.736s5.094-3.86,6.42-5.974
			c1.326-2.113,2.195-4.35,2.319-4.847c0.125-0.498,0.042-0.829,0.042-0.829s1.243-0.497,1.325-1.781
			c0.083-1.284,0.208-3.273-0.744-3.065c-0.208-1.45-0.83-3.563-1.451-4.765c-0.622-1.202-4.019-3.646-9.445-2.942
			C366.777,50.24,365.12,54.175,365.12,54.175z"/>
		<path fill="#DFCFA6" d="M383.102,57.242c-0.208-1.45-0.83-3.563-1.451-4.765c-0.037-0.071-0.084-0.146-0.141-0.225
			c-0.018-0.026-0.043-0.054-0.063-0.082c-0.041-0.053-0.083-0.107-0.133-0.163c-0.03-0.035-0.066-0.071-0.101-0.108
			c-0.047-0.049-0.096-0.099-0.149-0.149c-0.043-0.042-0.09-0.084-0.137-0.126c-0.053-0.046-0.106-0.092-0.163-0.139
			c-0.057-0.046-0.116-0.093-0.178-0.139c-0.055-0.042-0.114-0.084-0.172-0.126c-0.072-0.051-0.145-0.102-0.222-0.152
			c-0.054-0.036-0.112-0.071-0.167-0.106c-0.092-0.056-0.18-0.112-0.276-0.167c-0.039-0.022-0.082-0.043-0.122-0.065
			c-0.409-0.225-0.871-0.438-1.39-0.625c-0.01-0.004-0.019-0.008-0.03-0.012c-0.156-0.056-0.32-0.108-0.488-0.158
			c-0.045-0.014-0.09-0.029-0.137-0.043c-0.158-0.046-0.324-0.088-0.492-0.129c-0.059-0.014-0.118-0.029-0.18-0.042
			c-0.167-0.038-0.337-0.072-0.513-0.103c-0.064-0.012-0.133-0.023-0.2-0.034c-0.177-0.029-0.358-0.055-0.543-0.077
			c-0.067-0.008-0.136-0.014-0.204-0.021c-0.193-0.02-0.388-0.037-0.59-0.049c-0.056-0.003-0.114-0.003-0.171-0.006
			c-0.217-0.009-0.436-0.017-0.662-0.016v24.298c2.469-0.271,4.855-3.913,6.132-5.947c1.326-2.113,2.195-4.35,2.319-4.847
			c0.125-0.498,0.042-0.829,0.042-0.829s1.243-0.497,1.325-1.781C383.929,59.023,384.054,57.034,383.102,57.242z"/>
		<path fill="#FFFFFF" d="M364.027,75.19c0.654,6.679,6.31,10.02,9.639,10.02c2.029,0,9.12-0.63,9.476-10.04
			c-0.223-0.005-0.445-0.01-0.678-0.01c-0.236,0-0.485,0-0.737,0c-0.557,7.957-6.023,8.634-8.061,8.634
			c-1.869,0-7.579-1.984-8.225-8.632C364.965,75.165,364.492,75.173,364.027,75.19z"/>
		<path fill="#2B3C52" d="M364.854,55.579c0,0,1.427-3.447,4.161-3.566c2.733-0.119,0.833,1.545,3.923,1.545
			c3.091,0,2.615-1.545,4.755-1.545c2.141,0,5.35,4.398,5.35,4.398s0.237-8.916-9.035-8.916S364.854,55.579,364.854,55.579z"/>
	</g>
	<g>
		<path fill="#D35050" d="M127.324,268.555c-1.604-1.605-3.21-2.308-6.372-2.308s-8.378,0-11.289,0
			c-2.909,0-5.568,0.351-7.024,1.956s-2.057,3.513-2.057,5.419c0,0.241,0.001,0.547,0.002,0.896c3.393,4.05,8.483,6.63,14.181,6.63
			c6.093,0,11.48-2.959,14.851-7.504C129.533,271.271,128.83,270.059,127.324,268.555z"/>
		<path fill="#B53535" d="M129.617,273.645c-0.083-2.374-0.787-3.586-2.292-5.09c-1.604-1.605-3.21-2.308-6.372-2.308
			c-1.657,0-3.875,0-6.034,0v14.894C120.948,281.092,126.275,278.151,129.617,273.645z"/>
		<g>
			<path fill="#E3CEA1" d="M110.993,261.132v5.129h-1.785c0,0,1.084,6.055,5.711,6.319c1.011,0,5.234-0.802,5.591-6.095
				c-0.833,0-1.428,0-1.428,0v-6.067L110.993,261.132z"/>
			<path fill="#CEBC8D" d="M119.083,260.418l-4.044,0.356v11.784c1.185-0.356,5.128-1.17,5.472-6.278c-0.833,0-1.428,0-1.428,0
				V260.418z"/>
		</g>
		<path fill="#F8E6B8" d="M109.292,252.139c-0.418,0.694-0.307,2.033-0.279,2.506c-0.445-0.055-0.948-0.612-0.975,0.446
			c-0.029,1.059,0.083,2.34,0.474,2.813c0.39,0.473,1.031,0.779,1.031,0.779s-0.055,0.39,0,0.642c0.056,0.25,0.92,2.088,2.201,3.453
			c1.281,1.365,1.615,2.512,3.343,2.512c1.729,0,3.425-2.595,4.316-4.016c0.892-1.421,1.477-2.926,1.56-3.259
			c0.084-0.335,0.029-0.558,0.029-0.558s0.835-0.334,0.891-1.198c0.055-0.862,0.14-2.2-0.501-2.06
			c-0.139-0.977-0.558-2.396-0.975-3.205c-0.418-0.808-2.702-2.45-6.351-1.978C110.406,249.492,109.292,252.139,109.292,252.139z"/>
		<path fill="#DFCFA6" d="M121.381,254.2c-0.139-0.977-0.558-2.396-0.975-3.205c-0.025-0.047-0.057-0.099-0.094-0.15
			c-0.012-0.018-0.029-0.037-0.043-0.056c-0.027-0.034-0.055-0.071-0.089-0.108c-0.02-0.023-0.045-0.048-0.068-0.073
			c-0.031-0.033-0.064-0.066-0.101-0.1c-0.028-0.028-0.06-0.057-0.091-0.085c-0.036-0.031-0.071-0.062-0.11-0.094
			c-0.038-0.031-0.078-0.062-0.12-0.094c-0.037-0.027-0.077-0.056-0.115-0.084c-0.049-0.035-0.097-0.069-0.149-0.103
			c-0.037-0.025-0.076-0.049-0.112-0.072c-0.062-0.037-0.121-0.075-0.186-0.112c-0.026-0.015-0.055-0.029-0.082-0.044
			c-0.275-0.15-0.585-0.294-0.935-0.42c-0.006-0.003-0.012-0.005-0.02-0.009c-0.105-0.036-0.215-0.071-0.329-0.106
			c-0.03-0.008-0.061-0.019-0.092-0.028c-0.106-0.03-0.218-0.059-0.331-0.086c-0.04-0.01-0.08-0.02-0.121-0.028
			c-0.113-0.026-0.227-0.05-0.345-0.069c-0.043-0.009-0.089-0.016-0.134-0.023c-0.119-0.02-0.242-0.037-0.366-0.052
			c-0.045-0.005-0.091-0.01-0.137-0.014c-0.13-0.014-0.261-0.026-0.396-0.033c-0.038-0.003-0.077-0.003-0.115-0.004
			c-0.146-0.006-0.292-0.011-0.445-0.011v16.337c1.66-0.184,3.265-2.632,4.123-3.999c0.892-1.421,1.477-2.926,1.56-3.259
			c0.084-0.335,0.029-0.558,0.029-0.558s0.835-0.334,0.891-1.198C121.937,255.397,122.022,254.06,121.381,254.2z"/>
		<path fill="#FFFFFF" d="M108.558,266.267c0.439,4.49,4.242,6.736,6.48,6.736c1.364,0,6.131-0.423,6.37-6.75
			c-0.149-0.002-0.299-0.006-0.456-0.006c-0.159,0-0.326,0-0.496,0c-0.375,5.35-4.049,5.805-5.419,5.805
			c-1.257,0-5.096-1.335-5.53-5.805C109.188,266.249,108.87,266.255,108.558,266.267z"/>
		<path fill="#2B3C52" d="M109.113,253.081c0,0,0.959-2.316,2.797-2.396c1.838-0.081,0.56,1.039,2.638,1.039
			c2.078,0,1.758-1.039,3.197-1.039c1.439,0,3.597,2.957,3.597,2.957s0.159-5.994-6.075-5.994
			C109.033,247.647,109.113,253.081,109.113,253.081z"/>
	</g>
	<g>
		<path fill="#29384F" d="M91.396,106.122h73.181c0,0,0-11.623,0-18.459c0-6.837-1.772-10.002-5.824-14.053
			c-4.052-4.052-8.104-5.824-16.08-5.824s-21.144,0-28.487,0c-7.343,0-14.053,0.886-17.725,4.938
			c-3.672,4.051-5.191,8.863-5.191,13.674S91.396,106.122,91.396,106.122z"/>
		<path fill="#FFFDFF" d="M113.304,67.731c-2.433,0.572-4.436,3.291-3.005,7.869s15.881,27.901,17.169,27.758
			s15.596-24.038,16.884-26.756s1.145-9.443-3.148-9.729S113.304,67.731,113.304,67.731z"/>
		<path fill="#E4E4E4" d="M141.205,66.873c-1.96-0.131-7.95,0.037-13.879,0.258v36.179c0.057,0.032,0.107,0.053,0.143,0.049
			c1.288-0.143,15.596-24.038,16.884-26.756S145.497,67.159,141.205,66.873z"/>
		<polygon fill="#CCCCCC" points="112.053,69.436 117.552,65.312 127.388,75.252 138.069,63.831 143.145,69.013 127.493,84.665 		
			"/>
		<g>
			<polygon fill="#E0D0A3" points="137.329,70.593 126.896,76.359 117.658,70.164 117.658,57.006 137.329,57.006 			"/>
			<polygon fill="#C6BB94" points="127.493,76.359 137.329,71.738 137.329,57.006 127.493,57.006 			"/>
		</g>
		<path fill="#FCE6B9" d="M127.465,16.305c12.702,0,20.936,17.448,18.145,25.962s-12.562,23.729-18.145,23.729
			s-19.681-15.913-19.681-25.823S110.716,16.305,127.465,16.305z"/>
		<path fill="#DFD0A8" d="M127.488,16.306v49.688c5.587-0.041,15.335-15.224,18.122-23.727
			C148.399,33.758,140.177,16.327,127.488,16.306z"/>
		<path fill="#2B3C52" d="M142.34,37.517c-0.648-0.733-1.604-1.154-2.625-1.154h-6.421v-0.016h-12.988v0.016h-5.47
			c-1.02,0-1.977,0.421-2.625,1.154c-0.644,0.73-0.93,1.683-0.805,2.682c0.252,2.023,2.221,4.59,4.074,4.59h5.958
			c3.831,0,4.347-2.198,4.347-4.348c0-1.014-0.101-2.038-0.571-2.807h4.125c-0.471,0.769-0.571,1.793-0.571,2.807
			c0,2.15,0.516,4.348,4.347,4.348h5.958c1.853,0,3.821-2.567,4.074-4.59C143.27,39.2,142.984,38.247,142.34,37.517z
			 M121.438,43.501h-5.958c-1.06,0-2.602-1.909-2.796-3.461c-0.078-0.628,0.097-1.221,0.493-1.67
			c0.409-0.463,0.999-0.719,1.659-0.719h7.622c1.41,0,2.039,0.403,2.039,2.791C124.497,42.471,124.023,43.501,121.438,43.501z
			 M141.867,40.04c-0.194,1.553-1.736,3.461-2.796,3.461h-5.958c-2.586,0-3.059-1.03-3.059-3.06c0-2.388,0.629-2.791,2.039-2.791
			h7.622c0.66,0,1.25,0.255,1.659,0.719C141.771,38.819,141.945,39.412,141.867,40.04z"/>
		<path fill="#2B3C52" d="M112.81,53.014c0,0-4.931-9.683-2.373-18.564c2.373-8.235,6.281-11.865,7.677-11.585
			s17.307,5.305,21.495,11.865s2.513,16.47,2.513,16.47s8.235-6.281,8.654-17.029s-7.537-25.264-21.635-25.683
			S106.529,20.91,106.11,30.681S107.366,49.105,112.81,53.014z"/>
		<polygon fill="#FDFEFF" points="112.053,68.005 117.552,63.88 127.388,73.821 138.069,62.4 143.145,67.582 127.493,83.233 		"/>
		<polygon fill="#E2E6E9" points="127.493,73.708 127.493,83.233 143.145,67.582 138.069,62.4 		"/>
	</g>
	<g>
		<path fill="#7E848C" d="M313.982,199.323c-2.838-2.837-5.676-4.079-11.263-4.079c-5.588,0-14.81,0-19.954,0
			c-5.143,0-9.843,0.621-12.416,3.458c-2.571,2.839-3.636,6.209-3.636,9.577c0,0.134,0,0.282,0,0.437
			c6.403,6.75,15.451,10.966,25.489,10.966c10.224,0,19.424-4.37,25.846-11.34C317.909,204.114,316.652,201.993,313.982,199.323z"/>
		<path fill="#5E6770" d="M313.982,199.323c-2.838-2.837-5.676-4.079-11.263-4.079c-2.957,0-6.93,0-10.778,0v24.431
			c0.088,0.001,0.174,0.007,0.262,0.007c10.224,0,19.424-4.37,25.846-11.34C317.909,204.114,316.652,201.993,313.982,199.323z"/>
		<path fill="#FFFDFF" d="M301.691,194.604c-3.007-0.199-19.543,0.603-19.543,0.603c-1.703,0.4-3.107,2.305-2.104,5.512
			c0.896,2.866,9.072,16.213,11.444,18.945c0.238,0.004,0.475,0.018,0.715,0.018c0.129,0,0.256-0.008,0.385-0.01
			c2.273-2.771,10.497-16.535,11.308-18.253C304.798,199.516,304.697,194.806,301.691,194.604z"/>
		<path fill="#E4E4E4" d="M301.691,194.604c-1.374-0.092-5.568,0.025-9.723,0.181v24.891c0.078,0,0.156,0.006,0.234,0.006
			c0.129,0,0.256-0.008,0.385-0.01c2.273-2.771,10.497-16.535,11.308-18.253C304.798,199.516,304.697,194.806,301.691,194.604z"/>
		<polygon fill="#CCCCCC" points="281.272,196.399 285.124,193.511 292.013,200.474 299.495,192.473 303.05,196.103 
			292.088,207.066 		"/>
		<g>
			<polygon fill="#E0D0A3" points="298.977,197.21 291.67,201.25 285.198,196.911 285.198,187.693 298.977,187.693 			"/>
			<polygon fill="#C6BB94" points="292.088,201.25 298.977,198.013 298.977,187.693 292.088,187.693 			"/>
		</g>
		<path fill="#FCE6B9" d="M292.068,159.185c8.896,0,14.663,12.222,12.709,18.186c-1.955,5.963-8.799,16.62-12.709,16.62
			c-3.911,0-13.786-11.146-13.786-18.087C278.282,168.961,280.336,159.185,292.068,159.185z"/>
		<path fill="#DFD0A8" d="M292.084,159.186v34.805c3.912-0.03,10.741-10.664,12.693-16.62
			C306.729,171.411,300.972,159.201,292.084,159.186z"/>
		<path fill="#2B3C52" d="M281.802,184.898c0,0-3.453-6.783-1.661-13.004c1.661-5.768,4.399-8.31,5.377-8.115
			c0.977,0.196,12.122,3.716,15.056,8.311c2.935,4.594,1.761,11.535,1.761,11.535s5.769-4.4,6.062-11.926
			c0.293-7.528-5.28-17.696-15.153-17.99c-9.875-0.294-15.84,8.701-16.133,15.546C276.816,176.099,277.989,182.159,281.802,184.898z
			"/>
		<polygon fill="#FDFEFF" points="281.272,195.397 285.124,192.509 292.013,199.473 299.495,191.472 303.05,195.102 
			292.088,206.065 		"/>
		<polygon fill="#E2E6E9" points="292.088,199.393 292.088,206.065 303.05,195.102 299.495,191.472 		"/>
	</g>
	<g>
		<path fill="#2FADFF" d="M282.359,87.799h63.565c0,0,0-10.095,0-16.033c0-5.938-1.539-8.688-5.059-12.207
			c-3.52-3.519-7.039-5.059-13.968-5.059s-18.364,0-24.743,0c-6.378,0-12.207,0.77-15.396,4.29c-3.189,3.519-4.51,7.698-4.51,11.876
			C282.25,74.845,282.359,87.799,282.359,87.799z"/>
		<path fill="#299DE9" d="M326.898,54.5c-3.648,0-8.544,0-13.295,0v33.299h32.321c0,0,0-10.095,0-16.033
			c0-5.938-1.539-8.688-5.059-12.207C337.347,56.04,333.827,54.5,326.898,54.5z"/>
		<g>
			<path fill="#E0D0A3" d="M305.173,45.137v9.336l-2.471,0.04c0,0,1.991,5.418,7.542,5.851c0.084-0.082,0.153-0.165,0.225-0.247
				l2.728,1.83l9.061-5.009V45.137H305.173z"/>
			<path fill="#C6BB94" d="M322.257,54.466v-9.329h-8.543v16.81l8.543-4.014v-0.361c0.083-0.019,0.168-0.039,0.26-0.07
				c1.821-0.607,2.664-3.036,2.664-3.036H322.257z"/>
		</g>
		<path fill="#FCE6B9" d="M313.689,9.784c11.033,0,18.186,15.156,15.761,22.551c-2.424,7.396-10.91,20.611-15.761,20.611
			c-4.85,0-17.096-13.822-17.096-22.43S299.141,9.784,313.689,9.784z"/>
		<path fill="#DFD0A8" d="M313.711,9.785v43.159c4.852-0.035,13.319-13.223,15.739-20.609
			C331.872,24.944,324.73,9.804,313.711,9.785z"/>
		<path fill="#FFFFFF" d="M313.938,62.667c5.948,0,11.204-3.171,14.322-7.986c-0.934-0.112-1.952-0.171-3.079-0.178
			c-2.708,3.354-6.74,5.491-11.243,5.491c-4.498,0-8.526-2.133-11.235-5.481c-1.055,0.022-2.085,0.078-3.08,0.177
			C302.74,59.5,307.992,62.667,313.938,62.667z"/>
		<path fill="#334253" d="M321.398,48.842c0,0,5.356-7.652,4.782-17.981s-6.503-14.729-7.46-14.729s-0.957,0-0.957,0
			s-9.565,3.061-12.052,12.051c-2.104-0.957-1.339-3.252-1.339-3.252s-5.164,4.4-4.399,15.686
			c-5.93-5.739-8.418-12.816-5.739-21.807s9.757-14.156,19.13-14.156s18.938,12.243,17.599,24.103S321.398,48.842,321.398,48.842z"
			/>
	</g>
	<g>
		<path fill="#FFFFFF" d="M3.442,231.789h99.82c0,0,0-15.854,0-25.179s-2.417-13.643-7.944-19.169s-11.053-7.944-21.933-7.944
			s-28.841,0-38.857,0s-19.169,1.209-24.178,6.735S3.27,198.321,3.27,204.884S3.442,231.789,3.442,231.789z"/>
		<polygon fill="#E5E5E5" points="38.115,172.826 31.821,179.766 45.055,194.452 52.64,187.351 		"/>
		<path fill="#E6E6E8" d="M103.263,231.789c0,0,0-15.854,0-25.179s-2.417-13.643-7.944-19.169s-11.053-7.944-21.933-7.944
			c-5.178,0-11.96,0-18.726,0l-1.48,3.454v48.838H103.263z"/>
		<polygon fill="#CCCCCC" points="68.414,172.095 53.889,187.104 61.152,194.366 74.708,180.486 		"/>
		<polygon fill="#E7D2A7" points="39.071,163.527 39.071,174.34 52.305,188.703 56.824,186.605 55.694,164.495 		"/>
		<polygon fill="#CDBC99" points="53.757,170.305 53.757,191.124 67.798,172.888 67.798,162.559 		"/>
		<polygon fill="#2D394A" points="45.204,193.706 50.045,198.063 44.72,231.632 61.988,231.632 56.985,197.095 60.858,193.706 
			53.273,186.282 		"/>
		<path fill="#F8E6B8" d="M31.685,127.703c-1.561,2.602-1.145,7.598-1.041,9.367c-1.665-0.208-3.539-2.29-3.643,1.665
			s0.312,8.743,1.769,10.512s3.851,2.914,3.851,2.914s-0.208,1.458,0,2.394s3.435,7.805,8.222,12.905s18.42,5.308,18.42,5.308
			s6.869-5.62,10.199-10.928s5.516-10.927,5.828-12.176s0.104-2.082,0.104-2.082s3.123-1.249,3.331-4.475s0.52-8.221-1.874-7.701
			c-0.521-3.643-2.082-8.95-3.643-11.968s-10.095-9.158-23.729-7.389S31.685,127.703,31.685,127.703z"/>
		<path fill="#DFCFA6" d="M76.852,135.404c-0.521-3.643-2.082-8.95-3.643-11.968c-1.378-2.664-8.195-7.751-19.149-7.694v56.612
			c2.973,0.378,5.204,0.412,5.204,0.412s6.869-5.62,10.199-10.928s5.516-10.927,5.828-12.176s0.104-2.082,0.104-2.082
			s3.123-1.249,3.331-4.475S79.246,134.884,76.852,135.404z"/>
		<path fill="#2B3C52" d="M37.5,114.5c0,0-6.167,4.167-7.667,16.333c3.667-4.667,9.333-9,9.333-9l0.667,4.5L45,120.167l8,9.167
			l0.833-7l8.333,9.833c0,0,3.333-10,3.167-13.333c4.167,5.667,10,10.833,10,10.833s-0.667-6.833-3.833-12.5
			c1.333,0.5,2.5,0.167,2.5,0.167s-6.666-8.667-23-8.333c0.667-2.167,0.833-3.667,0.833-3.667l-5.5,4.5H33.667L37.5,114.5z"/>
		<path fill="#2B3C52" d="M76.205,135.126c-1.006-1.139-2.491-1.792-4.075-1.792h-9.97v-0.025H41.993v0.025H33.5
			c-1.584,0-3.069,0.653-4.075,1.792c-1,1.133-1.444,2.612-1.25,4.165c0.392,3.141,3.449,7.126,6.326,7.126h9.25
			c5.948,0,6.75-3.413,6.75-6.75c0-1.574-0.156-3.164-0.888-4.358h6.405c-0.732,1.194-0.888,2.784-0.888,4.358
			c0,3.338,0.802,6.75,6.75,6.75h9.25c2.876,0,5.934-3.985,6.326-7.126C77.649,137.738,77.205,136.259,76.205,135.126z
			 M43.75,144.417H34.5c-1.646,0-4.04-2.963-4.341-5.375c-0.122-0.975,0.15-1.896,0.766-2.593c0.635-0.72,1.55-1.116,2.576-1.116
			h11.833c2.189,0,3.167,0.625,3.167,4.333C48.5,142.817,47.765,144.417,43.75,144.417z M75.471,139.042
			c-0.301,2.411-2.695,5.375-4.341,5.375h-9.25c-4.015,0-4.75-1.6-4.75-4.75c0-3.708,0.977-4.333,3.167-4.333h11.833
			c1.025,0,1.94,0.396,2.576,1.116C75.32,137.147,75.592,138.067,75.471,139.042z"/>
		<path fill="#2B3C52" d="M63.068,167.955c0,0-0.942-5.468-1.979-6.882s-2.64-2.828-8.013-2.828s-7.447,1.037-8.956,3.111
			s-1.226,6.411-1.226,6.411l-5.738-4.923c0,0,6.115,9.354,8.567,11.805s4.053,1.979,7.635,1.979s3.865,0.565,5.845-1.697
			s9.333-11.877,9.333-11.877L63.068,167.955z M61.183,169.369c-0.66,0.754-2.262,1.979-3.394,1.131s0.471-3.017-3.865-3.017
			s-4.431,0.849-4.713,2.263s-1.885,1.602-3.394,0.66s-1.697-3.206-0.849-5.656s3.205-3.016,7.636-3.016
			c3.959,0,7.354,0.377,8.013,2.262S61.842,168.615,61.183,169.369z"/>
		<polygon fill="#F4F4F4" points="38.264,172.08 31.97,179.02 45.204,193.706 52.789,186.604 		"/>
		<polygon fill="#E0E0E0" points="68.121,171.435 53.596,186.443 60.858,193.706 74.415,179.826 		"/>
	</g>
	<g>
		<g>
			<path fill="#FFFFFF" d="M364.658,221.205h69.498c0,0,0-11.037,0-17.529s-1.684-9.498-5.531-13.346s-7.695-5.531-15.271-5.531
				s-20.079,0-27.053,0c-6.975,0-13.347,0.842-16.834,4.689c-3.486,3.848-4.929,8.416-4.929,12.984S364.658,221.205,364.658,221.205
				z"/>
			<path fill="#E6E6E8" d="M434.156,221.205c0,0,0-11.037,0-17.529s-1.684-9.498-5.531-13.346s-7.695-5.531-15.271-5.531
				c-3.604,0-8.326,0-13.037,0l-1.03,2.404v34.002H434.156z"/>
			<g>
				<path fill="#E7D2A7" d="M401.703,189.359l-0.666-15.004l-11.573-0.676v12.695l0.871,0.646c2.498,1.548,5.688,2.479,9.165,2.479
					C400.251,189.5,400.982,189.443,401.703,189.359z"/>
				<path fill="#CDBC99" d="M399.689,189.493c3.788-0.038,7.219-1.178,9.774-3.016v-13.472l-9.774,5.393V189.493z"/>
			</g>
			<path fill="#F8E6B8" d="M384.321,148.738c-1.088,1.811-0.797,5.29-0.724,6.521c-1.161-0.145-2.464-1.595-2.537,1.159
				c-0.072,2.753,0.218,6.087,1.232,7.318c1.014,1.232,2.68,2.029,2.68,2.029s-0.143,1.015,0,1.667
				c0.146,0.652,2.393,5.433,5.725,8.986c3.333,3.549,12.825,3.695,12.825,3.695s4.783-3.914,7.102-7.608
				c2.318-3.696,3.839-7.608,4.058-8.478c0.217-0.87,0.071-1.449,0.071-1.449s2.175-0.87,2.319-3.116
				c0.146-2.246,0.362-5.724-1.304-5.362c-0.362-2.536-1.45-6.231-2.537-8.333c-1.087-2.102-7.028-6.376-16.52-5.145
				C387.22,141.855,384.321,148.738,384.321,148.738z"/>
			<path fill="#DFCFA6" d="M415.769,154.1c-0.362-2.536-1.45-6.231-2.537-8.333c-0.958-1.855-5.705-5.397-13.332-5.357v39.416
				c2.07,0.262,3.623,0.287,3.623,0.287s4.783-3.914,7.102-7.608c2.318-3.696,3.839-7.608,4.058-8.478
				c0.217-0.87,0.071-1.449,0.071-1.449s2.175-0.87,2.319-3.116C417.218,157.216,417.435,153.738,415.769,154.1z"/>
			<path fill="#2D3336" d="M403.771,178.726c1.384,0,6.206-5.375,6.206-5.375s-5.119,6.692-6.497,8.269
				c-1.378,1.574-1.57,1.508-4.063,1.508s-3.614,0.002-5.321-1.705c-1.707-1.705-5.964-8.218-5.964-8.218s5.036,5.714,6.15,5.637
				c0.915-0.063,1.217-3.175,1.884-3.841s5.186-0.5,5.762,0.307C402.842,176.586,403.038,178.726,403.771,178.726z"/>
			<path fill="#4B4240" d="M399.238,190.203c7.601,0,11.62-3.644,13.121-5.404c-0.894,0-1.842,0-2.834,0
				c-1.821,1.538-5.094,3.404-10.287,3.404c-5.056,0-8.141-1.842-9.856-3.404c-0.976,0-1.889,0-2.732,0
				C388.165,186.712,391.929,190.203,399.238,190.203z"/>
		</g>
		<path fill="#BC281B" d="M383.524,153.783c0,0,5.458-3.804,15.545-3.804s16.699,4.121,16.699,4.121s1.325-16.193-15.873-16.193
			S383.524,153.783,383.524,153.783z"/>
	</g>
	<g>
		<g>
			<path fill="#4F556F" d="M127.258,176.071c-1.596-1.596-3.193-2.294-6.335-2.294c-3.143,0-8.331,0-11.224,0
				c-2.894,0-5.538,0.349-6.984,1.945c-1.325,1.463-1.932,3.176-2.026,4.909c3.393,3.982,8.436,6.517,14.078,6.517
				c5.979,0,11.28-2.85,14.661-7.251C129.164,178.3,128.472,177.285,127.258,176.071z"/>
			<path fill="#383E56" d="M129.427,179.897c-0.264-1.598-0.956-2.612-2.169-3.826c-1.596-1.596-3.193-2.294-6.335-2.294
				c-1.496,0-3.455,0-5.409,0l-0.428,0.998v12.357C120.933,187.032,126.107,184.22,129.427,179.897z"/>
			<g>
				<path fill="#E7D2A7" d="M116.089,175.669l-0.276-6.225l-4.802-0.281v5.268l0.361,0.269c1.037,0.642,2.36,1.027,3.803,1.027
					C115.486,175.727,115.79,175.704,116.089,175.669z"/>
				<path fill="#CDBC99" d="M115.253,175.725c1.572-0.016,2.995-0.488,4.056-1.251v-5.589l-4.056,2.238V175.725z"/>
			</g>
			<path fill="#F8F8F8" d="M115.066,176.019c3.153,0,4.821-1.511,5.444-2.241c-0.371,0-0.765,0-1.176,0
				c-0.756,0.638-2.113,1.412-4.268,1.412c-2.097,0-3.377-0.765-4.089-1.412c-0.404,0-0.784,0-1.133,0
				C110.472,174.571,112.033,176.019,115.066,176.019z"/>
			<path fill="#F8E6B8" d="M108.921,159.333c-0.449,0.749-0.329,2.187-0.299,2.696c-0.479-0.06-1.018-0.659-1.048,0.479
				c-0.03,1.139,0.09,2.517,0.509,3.025c0.419,0.509,1.108,0.839,1.108,0.839s-0.06,0.419,0,0.689
				c0.06,0.27,0.989,2.247,2.367,3.714c1.377,1.469,5.301,1.529,5.301,1.529s1.977-1.619,2.936-3.146
				c0.959-1.527,1.588-3.145,1.678-3.504c0.089-0.36,0.029-0.6,0.029-0.6s0.898-0.359,0.959-1.288
				c0.06-0.929,0.149-2.367-0.54-2.216c-0.15-1.049-0.599-2.577-1.048-3.445s-2.906-2.636-6.83-2.127
				C110.12,156.488,108.921,159.333,108.921,159.333z"/>
			<path fill="#DFCFA6" d="M121.922,161.551c-0.15-1.049-0.599-2.577-1.048-3.445c-0.397-0.767-2.358-2.231-5.512-2.215v16.295
				c0.856,0.109,1.498,0.119,1.498,0.119s1.977-1.619,2.936-3.146c0.959-1.527,1.588-3.145,1.678-3.504
				c0.089-0.36,0.029-0.6,0.029-0.6s0.898-0.359,0.959-1.288C122.521,162.838,122.611,161.4,121.922,161.551z"/>
			<path fill="#2B3C52" d="M110.596,155.534c0,0-1.775,1.199-2.207,4.701c1.055-1.343,2.687-2.59,2.687-2.59l0.192,1.295
				l1.487-1.775l2.303,2.638l0.24-2.015l2.399,2.83c0,0,0.96-2.878,0.912-3.837c1.199,1.631,2.878,3.118,2.878,3.118
				s-0.192-1.966-1.104-3.597c0.384,0.144,0.72,0.048,0.72,0.048s-1.918-2.495-6.62-2.399c0.192-0.624,0.24-1.055,0.24-1.055
				l-1.583,1.295h-3.646L110.596,155.534z"/>
			<path fill="#2B3C52" d="M121.736,161.47c-0.29-0.328-0.717-0.516-1.173-0.516h-2.869v-0.007h-5.805v0.007h-2.445
				c-0.455,0-0.883,0.188-1.172,0.516c-0.288,0.326-0.416,0.752-0.36,1.199c0.113,0.904,0.993,2.051,1.821,2.051h2.663
				c1.712,0,1.942-0.983,1.942-1.943c0-0.453-0.044-0.911-0.255-1.255h1.843c-0.211,0.344-0.256,0.802-0.256,1.255
				c0,0.96,0.231,1.943,1.943,1.943h2.662c0.828,0,1.708-1.147,1.821-2.051C122.151,162.222,122.023,161.796,121.736,161.47z
				 M112.395,164.145h-2.663c-0.474,0-1.163-0.853-1.25-1.547c-0.035-0.281,0.043-0.546,0.22-0.746
				c0.183-0.208,0.446-0.322,0.741-0.322h3.406c0.63,0,0.911,0.18,0.911,1.248C113.761,163.683,113.55,164.145,112.395,164.145z
				 M121.524,162.598c-0.087,0.694-0.775,1.547-1.25,1.547h-2.662c-1.156,0-1.367-0.461-1.367-1.367
				c0-1.068,0.281-1.248,0.911-1.248h3.406c0.295,0,0.559,0.114,0.741,0.322C121.481,162.052,121.56,162.317,121.524,162.598z"/>
			<path fill="#2B3C52" d="M117.955,170.919c0,0-0.271-1.574-0.569-1.98c-0.299-0.407-0.76-0.814-2.307-0.814
				s-2.143,0.298-2.578,0.895c-0.434,0.597-0.352,1.846-0.352,1.846l-1.652-1.417c0,0,1.76,2.692,2.466,3.397
				c0.706,0.705,1.166,0.57,2.198,0.57c1.031,0,1.112,0.162,1.682-0.489c0.57-0.652,2.686-3.418,2.686-3.418L117.955,170.919z
				 M117.412,171.326c-0.19,0.218-0.651,0.57-0.977,0.326c-0.325-0.245,0.136-0.868-1.112-0.868c-1.249,0-1.275,0.244-1.357,0.651
				c-0.082,0.407-0.542,0.46-0.977,0.19c-0.434-0.271-0.489-0.923-0.244-1.628c0.244-0.705,0.922-0.869,2.197-0.869
				c1.14,0,2.116,0.108,2.307,0.652C117.439,170.322,117.602,171.109,117.412,171.326z"/>
		</g>
	</g>
	<g>
		<g>
			<path fill="#3EB4C3" d="M407.5,143.5c0,7.732-6.268,14-14,14H325c-7.732,0-14-6.268-14-14v-20c0-7.732,6.268-14,14-14h68.5
				c7.732,0,14,6.268,14,14V143.5z"/>
			<circle fill="#3EB4C3" cx="321.871" cy="148.894" r="12.117"/>
			<path fill="#37A1AB" d="M393.5,109.5h-35.749v48H393.5c7.732,0,14-6.268,14-14v-20C407.5,115.768,401.232,109.5,393.5,109.5z"/>
		</g>
		<rect x="328.5" y="123" fill="#FFFFFF" width="66" height="4.5"/>
		<rect x="328.5" y="131.5" fill="#FFFFFF" width="66" height="4.5"/>
		<rect x="328.5" y="140" fill="#FFFFFF" width="66" height="4.5"/>
	</g>
	<g>
		<g>
			<path fill="#D1D919" d="M130.754,104.369c0,5.201,4.216,9.417,9.417,9.417h46.075c5.201,0,9.417-4.216,9.417-9.417V90.917
				c0-5.201-4.216-9.417-9.417-9.417H140.17c-5.201,0-9.417,4.216-9.417,9.417V104.369z"/>
			<circle fill="#D1D919" cx="188.35" cy="107.997" r="8.15"/>
			<path fill="#B8C317" d="M164.187,81.5H140.17c-5.201,0-9.417,4.216-9.417,9.417v13.453c0,5.201,4.216,9.417,9.417,9.417h24.017
				V81.5z"/>
		</g>
		<rect x="139.498" y="90.581" fill="#FFFFFF" width="44.393" height="3.027"/>
		<rect x="139.498" y="96.298" fill="#FFFFFF" width="44.393" height="3.026"/>
		<rect x="139.498" y="102.015" fill="#FFFFFF" width="44.393" height="3.027"/>
	</g>
	<rect x="271.5" y="223.98" fill="#34B1C2" width="41.75" height="2.789"/>
	<rect x="140.125" y="158.558" fill="#34B1C2" width="41.75" height="2.789"/>
	<rect x="140.125" y="165.064" fill="#34B1C2" width="68.174" height="2.789"/>
	<rect x="140.125" y="171.57" fill="#34B1C2" width="68.174" height="2.789"/>
	<rect x="140.125" y="205.559" fill="#34B1C2" width="41.75" height="2.789"/>
	<rect x="140.125" y="212.064" fill="#34B1C2" width="68.174" height="2.789"/>
	<rect x="140.125" y="218.57" fill="#34B1C2" width="68.174" height="2.789"/>
	<rect x="140.125" y="252.559" fill="#34B1C2" width="41.75" height="2.789"/>
	<rect x="140.125" y="259.064" fill="#34B1C2" width="68.174" height="2.789"/>
	<rect x="140.125" y="265.57" fill="#34B1C2" width="68.174" height="2.789"/>
	<rect x="258" y="231.48" fill="#34B1C2" width="68.75" height="2.789"/>
	<rect x="258" y="240.48" fill="#34B1C2" width="68.75" height="2.789"/>
	<rect x="258" y="249.48" fill="#34B1C2" width="68.75" height="2.789"/>
	<rect x="258" y="258.48" fill="#34B1C2" width="68.75" height="2.789"/>
	<rect x="161.34" y="338.629" fill="#B1BBC4" width="101.395" height="1.526"/>
</g>
</svg>
