<?xml version="1.0" encoding="utf-8"?>
<!-- Generator: Adobe Illustrator 16.0.0, SVG Export Plug-In . SVG Version: 6.00 Build 0)  -->
<!DOCTYPE svg PUBLIC "-//W3C//DTD SVG 1.1//EN" "http://www.w3.org/Graphics/SVG/1.1/DTD/svg11.dtd">
<svg version="1.1" id="Layer_1" xmlns="http://www.w3.org/2000/svg" xmlns:xlink="http://www.w3.org/1999/xlink" x="0px" y="0px"
	 width="424.947px" height="470.941px" viewBox="0 0 424.947 470.941" enable-background="new 0 0 424.947 470.941"
	 xml:space="preserve">
<path fill="#EEBA94" d="M214.5,443l-16-31c0,0-52.5-15.5-79-77c0,0-12.5-5.5-18-20c0,0-33.5-17.5-43-30c1.5-13,18-34.5,18-34.5
	s-21-12-30-27.5c4.5-16.5,16-32.5,16-32.5l-20.5-24l179.5,4.5c0,0,22.5,15.5,36,29s55,96,55,96l26,63l-4,73.5L214.5,443z"/>
<path fill="#F5D4A9" d="M86,82.25c0,0-30.5-17-40-22.5s-22-7-29.5,3S10.25,87,26,97.5s59.75,37,59.75,37L86,82.25z"/>
<g>
	<path fill="#EEC39C" d="M54.75,104.25c-0.274,0-0.546-0.112-0.744-0.331c-0.37-0.411-0.336-1.043,0.074-1.412
		c9.618-8.656,11.164-19.041,11.179-19.145c0.076-0.548,0.582-0.931,1.128-0.852c0.547,0.076,0.929,0.582,0.852,1.128
		c-0.063,0.454-1.667,11.216-11.821,20.355C55.228,104.165,54.989,104.25,54.75,104.25z"/>
</g>
<path fill="#286D8A" d="M225.5,264.5c0,7.18-5.82,13-13,13h-123c-7.18,0-13-5.82-13-13V21c0-7.18,5.82-13,13-13h123
	c7.18,0,13,5.82,13,13V264.5z"/>
<path fill="#FFFFFF" d="M220,233.5c0,2.762-2.238,5-5,5H86.5c-2.761,0-5-2.238-5-5v-189c0-2.761,2.239-5,5-5H215
	c2.762,0,5,2.239,5,5V233.5z"/>
<path fill="#F5D4A9" d="M235,356.5c0,0-32-38.5-23.5-78.5s38.5-65,38.5-65s0-10.5,3-16c-8.5-8.5-17-42-17.5-56.5c0,0-21-11-23-41.5
	s12-40.5,17.5-41.5C234,67,249.5,90,249.5,90s4,4.5,6,6s15.5,7.5,20,16s36.5,74,40.5,87s9.5,50-1,94s-53,82-53,82s31-26,44-31.5
	s21.5-1,28,4.5l16.5,39l-106,45c0,0,0-24.5,5-40.5c0,0-17.5,11-41,5s-53.5-22.5-66-51S139,301,139,301s-7,5.5-8,8.5s-12-9.5-14-18.5
	s-4.5-13-4.5-13H196c0,0,1,25.5,15.5,49S235,356.5,235,356.5z"/>
<path fill="#F5D4A9" d="M79.25,251.25c9.5,3,30.5,10.75,36,15.5s8.25,13.25,4.5,23s-12.5,15.25-21.5,12.5s-25.25-9-33.5-13
	s-17.5-11.5-12-25.5S67.163,247.433,79.25,251.25z"/>
<path fill="#F5D4A9" d="M66.5,190.25c5.509,1.722,21.5,11.5,27,16.75s13.5,16,5,28.5S82,247,68.75,240.75S43,225.5,39.25,219
	s-3-16.75,4.5-23.75S58.5,187.75,66.5,190.25z"/>
<path fill="#F5D4A9" d="M64.25,135.25C71.447,139.125,83.5,146,87,151.5s5,15.25-0.25,23.5s-15.25,13-26,8.5S37,168.75,34.5,160.75
	s2.25-18.75,9.25-24.25S61,133.5,64.25,135.25z"/>
<path fill="#E05D02" d="M206.167,100.333c0-16.798-13.65-30.466-30.44-30.499c-5.328-9.149-15.188-15.002-26.06-15.002
	c-10.966,0-20.785,5.775-26.115,15.039c-0.406-0.016-0.812-0.038-1.218-0.038c-16.818,0-30.5,13.682-30.5,30.5
	s13.682,30.5,30.5,30.5l53.996-0.017C192.841,130.462,206.167,116.929,206.167,100.333z M175.667,121.833h-53.333
	c-11.855,0-21.5-9.645-21.5-21.5s9.645-21.5,21.5-21.5c3.592,0,7.145,0.902,10.274,2.608l4.308-7.902
	c-1.23-0.671-2.51-1.245-3.821-1.738c3.936-4.972,9.956-7.968,16.573-7.968c6.396,0,12.293,2.89,16.238,7.604
	c-1.817,0.613-3.579,1.393-5.252,2.341l4.436,7.831c3.207-1.816,6.865-2.776,10.578-2.776c11.855,0,21.5,9.645,21.5,21.5
	S187.521,121.833,175.667,121.833z"/>
<g>
	<path fill="#292929" d="M162.5,121.833h-40.167c-11.855,0-21.5-9.645-21.5-21.5s9.645-21.5,21.5-21.5
		c3.592,0,7.145,0.902,10.274,2.608l4.308-7.902c-1.23-0.671-2.51-1.245-3.821-1.738c3.936-4.972,9.956-7.968,16.573-7.968
		c4.753,0,9.228,1.598,12.833,4.352V57.724c-3.932-1.857-8.291-2.891-12.833-2.891c-10.966,0-20.785,5.775-26.115,15.039
		c-0.406-0.016-0.812-0.038-1.218-0.038c-16.818,0-30.5,13.682-30.5,30.5s13.682,30.5,30.5,30.5l40.167-0.012V121.833z"/>
	<path fill="#292929" d="M162.5,77.04v-4.214c-0.625,0.298-1.244,0.611-1.847,0.953L162.5,77.04z"/>
</g>
<g>
	<g>
		<path fill="#47B72D" d="M124.414,196.366v4.977h-2.385v-4.793c-3.256,0-5.901-0.657-7.935-1.972v-3.99
			c0.887,0.78,2.098,1.433,3.635,1.961c1.537,0.527,2.97,0.791,4.3,0.791v-11.741c-3.363-1.621-5.542-3.115-6.536-4.483
			c-0.994-1.368-1.491-2.985-1.491-4.85c0-2.216,0.757-4.131,2.271-5.745c1.514-1.613,3.432-2.58,5.756-2.901v-4.127h2.385v4.036
			c2.997,0.092,5.068,0.52,6.215,1.284v3.898c-1.56-1.223-3.631-1.88-6.215-1.972v12.108c3.18,1.514,5.355,2.978,6.524,4.392
			s1.754,3.023,1.754,4.827c0,2.171-0.73,3.994-2.19,5.469C129.042,195.009,127.013,195.953,124.414,196.366z M122.029,177.562
			v-10.687c-1.284,0.26-2.301,0.83-3.05,1.708c-0.75,0.879-1.124,1.946-1.124,3.199c0,1.315,0.306,2.393,0.917,3.233
			C119.384,175.857,120.47,176.706,122.029,177.562z M124.414,182.79v10.365c2.951-0.642,4.426-2.232,4.426-4.77
			C128.84,186.276,127.365,184.411,124.414,182.79z"/>
	</g>
	<g>
		<path fill="#47B72D" d="M151.914,196.366v4.977h-2.385v-4.793c-3.256,0-5.901-0.657-7.935-1.972v-3.99
			c0.887,0.78,2.098,1.433,3.635,1.961c1.537,0.527,2.97,0.791,4.3,0.791v-11.741c-3.363-1.621-5.542-3.115-6.536-4.483
			c-0.994-1.368-1.491-2.985-1.491-4.85c0-2.216,0.757-4.131,2.271-5.745c1.514-1.613,3.432-2.58,5.756-2.901v-4.127h2.385v4.036
			c2.997,0.092,5.068,0.52,6.215,1.284v3.898c-1.56-1.223-3.631-1.88-6.215-1.972v12.108c3.18,1.514,5.355,2.978,6.524,4.392
			s1.754,3.023,1.754,4.827c0,2.171-0.73,3.994-2.19,5.469C156.542,195.009,154.513,195.953,151.914,196.366z M149.529,177.562
			v-10.687c-1.284,0.26-2.301,0.83-3.05,1.708c-0.75,0.879-1.124,1.946-1.124,3.199c0,1.315,0.306,2.393,0.917,3.233
			C146.884,175.857,147.97,176.706,149.529,177.562z M151.914,182.79v10.365c2.951-0.642,4.426-2.232,4.426-4.77
			C156.34,186.276,154.865,184.411,151.914,182.79z"/>
	</g>
	<g>
		<path fill="#47B72D" d="M179.414,196.366v4.977h-2.385v-4.793c-3.256,0-5.901-0.657-7.935-1.972v-3.99
			c0.887,0.78,2.098,1.433,3.635,1.961c1.537,0.527,2.97,0.791,4.3,0.791v-11.741c-3.363-1.621-5.542-3.115-6.536-4.483
			c-0.994-1.368-1.491-2.985-1.491-4.85c0-2.216,0.757-4.131,2.271-5.745c1.514-1.613,3.432-2.58,5.756-2.901v-4.127h2.385v4.036
			c2.997,0.092,5.068,0.52,6.215,1.284v3.898c-1.56-1.223-3.631-1.88-6.215-1.972v12.108c3.18,1.514,5.355,2.978,6.524,4.392
			s1.754,3.023,1.754,4.827c0,2.171-0.73,3.994-2.19,5.469C184.042,195.009,182.013,195.953,179.414,196.366z M177.029,177.562
			v-10.687c-1.284,0.26-2.301,0.83-3.05,1.708c-0.75,0.879-1.124,1.946-1.124,3.199c0,1.315,0.306,2.393,0.917,3.233
			C174.384,175.857,175.47,176.706,177.029,177.562z M179.414,182.79v10.365c2.951-0.642,4.426-2.232,4.426-4.77
			C183.84,186.276,182.365,184.411,179.414,182.79z"/>
	</g>
</g>
<path fill="#EEC39C" d="M107.333,269c0,0,4.667,15-10.333,29.667c-15.667-7-23-16.001-21.667-21.667s4.666-9.998,6.333-11.332
	s5.667-2.334,11.333-1.001S107.333,269,107.333,269z"/>
<path fill="#EEC39C" d="M87.667,209c0,0-3.333,3-9,14.333s-6.333,17-6.333,17s-9-7.001-13.667-12.334s-8-12-6.333-15.667
	S55.667,206,58,204s5.667-2.667,10.333-1.667S87.667,209,87.667,209z"/>
<path fill="#EEC39C" d="M75,148.333c0,0-5.667,6.333-9.667,15s-6,16.333-6,16.333s-5.333-4.333-9.333-9S46,166,46,166s-5-9-3-13
	s3.667-6,4.667-8s6-4.333,12.667-2.333S75,148.333,75,148.333z"/>
<path fill="#EEC39C" d="M252,92.333c0,0-18.999-35.333-19.666-36.333s-4.668,1.333-5.334,2.667S228,68,233,77
	s8.666,13.667,12,14.667S252,92.333,252,92.333z"/>
<polygon fill="#DE4944" points="415,470.941 212,470.941 201,444 366,376.5 "/>
<path fill="#4D819A" d="M168,263c0,1.657-1.343,3-3,3h-28.5c-1.657,0-3-1.343-3-3v-10c0-1.657,1.343-3,3-3H165c1.657,0,3,1.343,3,3
	V263z"/>
</svg>
